<svg xmlns="http://www.w3.org/2000/svg" xmlns:xlink="http://www.w3.org/1999/xlink" width="500" zoomAndPan="magnify" viewBox="0 0 375 374.999991" height="500" preserveAspectRatio="xMidYMid meet" version="1.0"><defs><clipPath id="5d104c1d7a"><path d="M 11 49 L 337.78125 49 L 337.78125 375 L 11 375 Z M 11 49 " clip-rule="nonzero"/></clipPath></defs><rect x="-37.5" width="450" fill="transparent" y="-37.499999" height="449.999989" fill-opacity="1"/><rect x="-37.5" width="450" fill="transparent" y="-37.499999" height="449.999989" fill-opacity="1"/><rect x="-37.5" width="450" fill="transparent" y="-37.499999" height="449.999989" fill-opacity="1"/><path fill="#32B2FF" d="M 36.238281 100.296875 C 63.5625 66.710938 102.878906 43.25 147.625 36.519531 L 127.214844 11.109375 C 116.597656 0.136719 93.644531 4.832031 64.777344 21.492188 C 35.910156 38.148438 20.371094 55.652344 24.566406 70.320312 Z M 36.238281 100.296875 " fill-opacity="1" fill-rule="nonzero"/><path fill="#32B2FF" d="M 174.207031 93.742188 C 168.070312 93.742188 163.09375 98.714844 163.09375 104.84375 L 163.09375 201.066406 L 66.792969 201.066406 C 60.65625 201.066406 55.679688 206.035156 55.679688 212.167969 C 55.679688 218.296875 60.65625 223.269531 66.792969 223.269531 L 174.207031 223.269531 C 180.34375 223.269531 185.320312 218.296875 185.320312 212.167969 L 185.320312 104.84375 C 185.320312 98.714844 180.34375 93.742188 174.207031 93.742188 Z M 174.207031 93.742188 " fill-opacity="1" fill-rule="nonzero"/><path fill="#32B2FF" d="M 312.179688 100.296875 C 284.855469 66.710938 245.539062 43.25 200.792969 36.519531 L 221.203125 11.109375 C 231.820312 0.136719 254.773438 4.832031 283.640625 21.492188 C 312.507812 38.148438 328.050781 55.652344 323.851562 70.320312 Z M 312.179688 100.296875 " fill-opacity="1" fill-rule="nonzero"/><g clip-path="url(#5d104c1d7a)"><path fill="#32B2FF" d="M 174.207031 49.332031 C 84.34375 49.332031 11.234375 122.378906 11.234375 212.164062 C 11.234375 301.949219 84.34375 375 174.207031 375 C 264.070312 375 337.179688 301.953125 337.179688 212.164062 C 337.179688 122.375 264.074219 49.332031 174.207031 49.332031 Z M 174.207031 352.796875 C 96.597656 352.796875 33.457031 289.707031 33.457031 212.167969 C 33.457031 134.625 96.597656 71.535156 174.207031 71.535156 C 251.816406 71.535156 314.957031 134.621094 314.957031 212.164062 C 314.957031 289.703125 251.816406 352.796875 174.207031 352.796875 Z M 174.207031 352.796875 " fill-opacity="1" fill-rule="nonzero"/></g></svg>