<svg xmlns="http://www.w3.org/2000/svg" xmlns:xlink="http://www.w3.org/1999/xlink" width="500" zoomAndPan="magnify" viewBox="0 0 375 374.999991" height="500" preserveAspectRatio="xMidYMid meet" version="1.0"><defs><clipPath id="c6879ef509"><path d="M 0 8.203125 L 375 8.203125 L 375 366 L 0 366 Z M 0 8.203125 " clip-rule="nonzero"/></clipPath></defs><rect x="-37.5" width="450" fill="transparent" y="-37.499999" height="449.999989" fill-opacity="1"/><rect x="-37.5" width="450" fill="transparent" y="-37.499999" height="449.999989" fill-opacity="1"/><g clip-path="url(#c6879ef509)"><path fill="#0044e8" d="M 325.421875 171.070312 L 325.421875 139.355469 C 325.421875 67.007812 263.519531 8.203125 187.5 8.203125 C 111.480469 8.203125 49.578125 67.007812 49.578125 139.355469 L 49.578125 171.070312 C 47.90625 171.308594 46.25 171.625 44.609375 172.015625 C 42.964844 172.402344 41.34375 172.863281 39.738281 173.398438 C 38.136719 173.933594 36.5625 174.535156 35.015625 175.210938 C 33.464844 175.882812 31.953125 176.625 30.46875 177.433594 C 28.988281 178.246094 27.542969 179.117188 26.140625 180.054688 C 24.738281 180.992188 23.378906 181.992188 22.0625 183.050781 C 20.746094 184.109375 19.480469 185.226562 18.265625 186.398438 C 17.050781 187.570312 15.890625 188.792969 14.785156 190.070312 C 13.679688 191.34375 12.628906 192.667969 11.640625 194.035156 C 10.65625 195.40625 9.730469 196.816406 8.867188 198.265625 C 8.003906 199.71875 7.207031 201.203125 6.476562 202.726562 C 5.75 204.25 5.089844 205.800781 4.496094 207.382812 C 3.90625 208.964844 3.386719 210.566406 2.9375 212.195312 C 2.488281 213.824219 2.113281 215.46875 1.8125 217.128906 C 1.511719 218.789062 1.285156 220.460938 1.132812 222.140625 C 0.980469 223.824219 0.902344 225.507812 0.902344 227.195312 L 0.902344 243.417969 C 0.902344 245.277344 0.992188 247.132812 1.175781 248.984375 C 1.355469 250.832031 1.628906 252.671875 1.992188 254.496094 C 2.355469 256.316406 2.808594 258.121094 3.347656 259.898438 C 3.886719 261.679688 4.511719 263.425781 5.222656 265.144531 C 5.9375 266.863281 6.730469 268.542969 7.605469 270.183594 C 8.484375 271.820312 9.4375 273.414062 10.472656 274.960938 C 11.503906 276.507812 12.613281 278 13.792969 279.4375 C 14.972656 280.875 16.21875 282.25 17.535156 283.566406 C 18.851562 284.878906 20.226562 286.125 21.664062 287.304688 C 23.101562 288.484375 24.59375 289.59375 26.140625 290.625 C 27.6875 291.660156 29.28125 292.613281 30.921875 293.488281 C 32.5625 294.367188 34.242188 295.160156 35.960938 295.871094 C 37.679688 296.582031 39.425781 297.210938 41.207031 297.75 C 42.988281 298.289062 44.789062 298.742188 46.613281 299.101562 C 48.4375 299.464844 50.273438 299.738281 52.125 299.921875 C 53.976562 300.101562 55.832031 300.195312 57.691406 300.195312 L 82.03125 300.195312 C 82.5625 300.195312 83.09375 300.167969 83.621094 300.117188 C 84.152344 300.0625 84.675781 299.984375 85.195312 299.882812 C 85.71875 299.777344 86.234375 299.648438 86.742188 299.496094 C 87.25 299.339844 87.75 299.164062 88.242188 298.960938 C 88.730469 298.757812 89.210938 298.527344 89.679688 298.277344 C 90.148438 298.027344 90.605469 297.753906 91.046875 297.460938 C 91.488281 297.164062 91.914062 296.847656 92.324219 296.511719 C 92.734375 296.175781 93.128906 295.820312 93.503906 295.441406 C 93.878906 295.066406 94.238281 294.675781 94.574219 294.261719 C 94.910156 293.851562 95.226562 293.425781 95.523438 292.984375 C 95.816406 292.542969 96.089844 292.085938 96.339844 291.621094 C 96.589844 291.152344 96.820312 290.671875 97.023438 290.179688 C 97.226562 289.6875 97.402344 289.191406 97.558594 288.679688 C 97.710938 288.171875 97.839844 287.65625 97.945312 287.136719 C 98.050781 286.617188 98.128906 286.089844 98.179688 285.5625 C 98.230469 285.035156 98.257812 284.503906 98.257812 283.972656 L 98.257812 186.640625 C 98.257812 186.109375 98.230469 185.582031 98.179688 185.050781 C 98.128906 184.523438 98.050781 184 97.945312 183.476562 C 97.839844 182.957031 97.710938 182.441406 97.558594 181.933594 C 97.402344 181.425781 97.226562 180.925781 97.023438 180.433594 C 96.820312 179.945312 96.589844 179.464844 96.339844 178.996094 C 96.089844 178.527344 95.816406 178.070312 95.523438 177.628906 C 95.226562 177.1875 94.910156 176.761719 94.574219 176.351562 C 94.238281 175.941406 93.878906 175.546875 93.503906 175.171875 C 93.128906 174.796875 92.734375 174.441406 92.324219 174.101562 C 91.914062 173.765625 91.488281 173.449219 91.046875 173.152344 C 90.605469 172.859375 90.148438 172.585938 89.679688 172.335938 C 89.210938 172.085938 88.730469 171.859375 88.242188 171.65625 C 87.75 171.453125 87.25 171.273438 86.742188 171.117188 C 86.234375 170.964844 85.71875 170.835938 85.195312 170.730469 C 84.675781 170.628906 84.152344 170.550781 83.621094 170.5 C 83.09375 170.445312 82.5625 170.421875 82.03125 170.421875 L 82.03125 139.355469 C 82.03125 84.933594 129.328125 40.648438 187.5 40.648438 C 245.671875 40.648438 292.96875 84.933594 292.96875 139.355469 L 292.96875 170.421875 C 292.4375 170.421875 291.90625 170.445312 291.378906 170.5 C 290.847656 170.550781 290.324219 170.628906 289.804688 170.730469 C 289.28125 170.835938 288.765625 170.964844 288.257812 171.117188 C 287.75 171.273438 287.25 171.453125 286.757812 171.65625 C 286.269531 171.859375 285.789062 172.085938 285.320312 172.335938 C 284.851562 172.585938 284.394531 172.859375 283.953125 173.152344 C 283.511719 173.449219 283.085938 173.765625 282.675781 174.101562 C 282.265625 174.441406 281.871094 174.796875 281.496094 175.171875 C 281.121094 175.546875 280.761719 175.941406 280.425781 176.351562 C 280.089844 176.761719 279.773438 177.1875 279.476562 177.628906 C 279.183594 178.070312 278.910156 178.527344 278.660156 178.996094 C 278.40625 179.464844 278.179688 179.945312 277.976562 180.433594 C 277.773438 180.925781 277.597656 181.425781 277.441406 181.933594 C 277.289062 182.441406 277.160156 182.957031 277.054688 183.476562 C 276.949219 184 276.871094 184.523438 276.820312 185.050781 C 276.769531 185.582031 276.742188 186.109375 276.742188 186.640625 L 276.742188 283.972656 C 276.746094 285.984375 277.113281 287.925781 277.839844 289.796875 C 278.570312 291.671875 279.609375 293.351562 280.960938 294.839844 C 275.355469 298.820312 269.515625 302.421875 263.445312 305.648438 C 257.375 308.875 251.121094 311.699219 244.6875 314.121094 C 238.25 316.546875 231.6875 318.546875 224.996094 320.125 C 218.304688 321.703125 211.539062 322.84375 204.699219 323.554688 C 204.125 322.972656 203.523438 322.425781 202.894531 321.90625 C 202.265625 321.386719 201.613281 320.902344 200.933594 320.449219 C 200.253906 319.996094 199.554688 319.578125 198.835938 319.195312 C 198.117188 318.8125 197.378906 318.464844 196.625 318.15625 C 195.867188 317.847656 195.101562 317.578125 194.316406 317.347656 C 193.535156 317.117188 192.742188 316.925781 191.941406 316.773438 C 191.140625 316.621094 190.335938 316.507812 189.523438 316.4375 C 188.710938 316.367188 187.894531 316.339844 187.078125 316.347656 C 186.265625 316.359375 185.453125 316.414062 184.640625 316.503906 C 183.832031 316.597656 183.027344 316.730469 182.230469 316.90625 C 181.433594 317.078125 180.648438 317.292969 179.871094 317.542969 C 179.097656 317.796875 178.335938 318.085938 177.589844 318.417969 C 176.84375 318.746094 176.113281 319.109375 175.40625 319.511719 C 174.695312 319.914062 174.007812 320.351562 173.34375 320.824219 C 172.675781 321.292969 172.035156 321.796875 171.421875 322.335938 C 170.808594 322.871094 170.21875 323.433594 169.664062 324.03125 C 169.105469 324.625 168.578125 325.246094 168.082031 325.894531 C 167.585938 326.539062 167.125 327.210938 166.695312 327.90625 C 166.265625 328.597656 165.875 329.3125 165.519531 330.046875 C 165.164062 330.78125 164.84375 331.527344 164.5625 332.292969 C 164.28125 333.058594 164.039062 333.835938 163.835938 334.628906 C 163.632812 335.417969 163.472656 336.214844 163.347656 337.019531 C 163.226562 337.828125 163.144531 338.636719 163.101562 339.453125 C 163.0625 340.265625 163.0625 341.082031 163.101562 341.894531 C 163.140625 342.710938 163.222656 343.519531 163.347656 344.324219 C 163.46875 345.132812 163.628906 345.929688 163.832031 346.71875 C 164.035156 347.511719 164.277344 348.289062 164.558594 349.054688 C 164.839844 349.820312 165.15625 350.570312 165.511719 351.300781 C 165.867188 352.035156 166.261719 352.75 166.6875 353.445312 C 167.117188 354.136719 167.578125 354.808594 168.074219 355.457031 C 168.570312 356.105469 169.09375 356.726562 169.652344 357.320312 C 170.210938 357.914062 170.796875 358.480469 171.410156 359.015625 C 172.027344 359.554688 172.667969 360.058594 173.332031 360.527344 C 173.996094 361 174.683594 361.4375 175.394531 361.839844 C 176.101562 362.242188 176.832031 362.609375 177.578125 362.9375 C 178.324219 363.265625 179.082031 363.558594 179.859375 363.8125 C 180.632812 364.066406 181.421875 364.277344 182.21875 364.453125 C 183.015625 364.625 183.816406 364.757812 184.628906 364.851562 C 185.4375 364.945312 186.25 365 187.066406 365.011719 C 187.882812 365.023438 188.695312 364.992188 189.507812 364.921875 C 190.320312 364.851562 191.128906 364.742188 191.929688 364.589844 C 192.730469 364.4375 193.523438 364.246094 194.304688 364.015625 C 195.085938 363.785156 195.855469 363.515625 196.609375 363.207031 C 197.367188 362.898438 198.105469 362.554688 198.824219 362.171875 C 199.542969 361.789062 200.246094 361.371094 200.921875 360.917969 C 201.601562 360.464844 202.253906 359.980469 202.882812 359.460938 C 203.515625 358.941406 204.117188 358.394531 204.691406 357.816406 C 205.265625 357.238281 205.808594 356.628906 206.320312 355.996094 C 211.683594 355.53125 217.015625 354.832031 222.320312 353.90625 C 227.621094 352.980469 232.871094 351.824219 238.074219 350.441406 C 243.277344 349.058594 248.410156 347.457031 253.472656 345.628906 C 258.535156 343.804688 263.511719 341.761719 268.398438 339.507812 C 273.285156 337.25 278.0625 334.789062 282.738281 332.117188 C 287.410156 329.449219 291.960938 326.582031 296.382812 323.519531 C 300.808594 320.453125 305.09375 317.207031 309.238281 313.773438 C 313.382812 310.335938 317.371094 306.730469 321.203125 302.953125 C 322.03125 302.113281 322.761719 301.191406 323.390625 300.195312 C 325.121094 300.007812 326.839844 299.742188 328.542969 299.398438 C 330.25 299.054688 331.933594 298.632812 333.601562 298.132812 C 335.269531 297.636719 336.90625 297.0625 338.523438 296.410156 C 340.136719 295.761719 341.714844 295.039062 343.261719 294.246094 C 344.808594 293.449219 346.316406 292.585938 347.785156 291.652344 C 349.253906 290.71875 350.675781 289.722656 352.050781 288.65625 C 353.425781 287.59375 354.75 286.46875 356.023438 285.28125 C 357.296875 284.097656 358.511719 282.855469 359.671875 281.558594 C 360.828125 280.261719 361.925781 278.914062 362.960938 277.515625 C 363.996094 276.117188 364.964844 274.675781 365.867188 273.1875 C 366.769531 271.703125 367.601562 270.175781 368.363281 268.613281 C 369.125 267.050781 369.8125 265.453125 370.429688 263.828125 C 371.042969 262.203125 371.582031 260.550781 372.046875 258.875 C 372.507812 257.199219 372.894531 255.503906 373.203125 253.792969 C 373.511719 252.082031 373.738281 250.359375 373.890625 248.625 C 374.039062 246.894531 374.109375 245.15625 374.097656 243.417969 L 374.097656 227.195312 C 374.097656 225.507812 374.019531 223.824219 373.867188 222.140625 C 373.714844 220.460938 373.488281 218.789062 373.1875 217.128906 C 372.886719 215.46875 372.511719 213.824219 372.0625 212.195312 C 371.613281 210.566406 371.09375 208.964844 370.503906 207.382812 C 369.910156 205.800781 369.25 204.25 368.523438 202.726562 C 367.792969 201.203125 366.996094 199.71875 366.132812 198.265625 C 365.269531 196.816406 364.34375 195.40625 363.359375 194.035156 C 362.371094 192.667969 361.320312 191.34375 360.214844 190.070312 C 359.109375 188.792969 357.949219 187.570312 356.734375 186.398438 C 355.519531 185.226562 354.253906 184.109375 352.9375 183.050781 C 351.621094 181.992188 350.261719 180.992188 348.859375 180.054688 C 347.457031 179.117188 346.011719 178.246094 344.53125 177.433594 C 343.046875 176.625 341.535156 175.882812 339.984375 175.210938 C 338.4375 174.535156 336.863281 173.933594 335.261719 173.398438 C 333.65625 172.863281 332.035156 172.402344 330.390625 172.015625 C 328.75 171.625 327.09375 171.308594 325.421875 171.070312 Z M 65.804688 267.75 L 57.691406 267.75 C 56.894531 267.75 56.101562 267.710938 55.308594 267.632812 C 54.511719 267.554688 53.726562 267.4375 52.945312 267.28125 C 52.164062 267.128906 51.390625 266.933594 50.628906 266.703125 C 49.863281 266.472656 49.113281 266.203125 48.378906 265.898438 C 47.640625 265.59375 46.921875 265.253906 46.21875 264.878906 C 45.515625 264.5 44.832031 264.09375 44.171875 263.648438 C 43.507812 263.207031 42.867188 262.734375 42.25 262.226562 C 41.636719 261.722656 41.046875 261.1875 40.480469 260.625 C 39.917969 260.058594 39.382812 259.46875 38.878906 258.855469 C 38.371094 258.238281 37.898438 257.597656 37.457031 256.9375 C 37.011719 256.273438 36.601562 255.589844 36.226562 254.886719 C 35.851562 254.183594 35.511719 253.464844 35.207031 252.730469 C 34.902344 251.992188 34.632812 251.242188 34.402344 250.480469 C 34.171875 249.71875 33.976562 248.945312 33.820312 248.164062 C 33.664062 247.382812 33.546875 246.597656 33.46875 245.804688 C 33.390625 245.011719 33.351562 244.214844 33.351562 243.417969 L 33.351562 227.195312 C 33.351562 226.398438 33.390625 225.605469 33.46875 224.8125 C 33.546875 224.019531 33.664062 223.230469 33.820312 222.449219 C 33.976562 221.667969 34.171875 220.894531 34.402344 220.132812 C 34.632812 219.371094 34.902344 218.621094 35.207031 217.882812 C 35.511719 217.148438 35.851562 216.429688 36.226562 215.726562 C 36.601562 215.023438 37.011719 214.339844 37.457031 213.679688 C 37.898438 213.015625 38.371094 212.375 38.878906 211.761719 C 39.382812 211.144531 39.917969 210.554688 40.480469 209.992188 C 41.046875 209.425781 41.636719 208.890625 42.25 208.386719 C 42.867188 207.882812 43.507812 207.40625 44.171875 206.964844 C 44.832031 206.523438 45.515625 206.113281 46.21875 205.738281 C 46.921875 205.359375 47.640625 205.019531 48.378906 204.714844 C 49.113281 204.410156 49.863281 204.144531 50.628906 203.910156 C 51.390625 203.679688 52.164062 203.488281 52.945312 203.332031 C 53.726562 203.175781 54.511719 203.058594 55.308594 202.980469 C 56.101562 202.902344 56.894531 202.863281 57.691406 202.863281 L 65.804688 202.863281 Z M 341.648438 243.417969 C 341.648438 244.214844 341.609375 245.011719 341.53125 245.804688 C 341.453125 246.597656 341.335938 247.382812 341.179688 248.164062 C 341.023438 248.945312 340.828125 249.71875 340.597656 250.480469 C 340.367188 251.242188 340.097656 251.992188 339.792969 252.730469 C 339.488281 253.464844 339.148438 254.1875 338.773438 254.886719 C 338.398438 255.589844 337.988281 256.273438 337.542969 256.9375 C 337.101562 257.597656 336.628906 258.238281 336.121094 258.855469 C 335.617188 259.46875 335.082031 260.058594 334.519531 260.625 C 333.953125 261.1875 333.363281 261.722656 332.75 262.226562 C 332.132812 262.734375 331.492188 263.207031 330.828125 263.648438 C 330.167969 264.09375 329.484375 264.5 328.78125 264.878906 C 328.078125 265.253906 327.359375 265.59375 326.621094 265.898438 C 325.886719 266.203125 325.136719 266.472656 324.371094 266.703125 C 323.609375 266.933594 322.835938 267.128906 322.054688 267.28125 C 321.273438 267.4375 320.488281 267.554688 319.691406 267.632812 C 318.898438 267.710938 318.105469 267.75 317.308594 267.75 L 309.195312 267.75 L 309.195312 202.863281 L 317.308594 202.863281 C 318.105469 202.863281 318.898438 202.902344 319.691406 202.980469 C 320.488281 203.058594 321.273438 203.175781 322.054688 203.332031 C 322.835938 203.488281 323.609375 203.679688 324.371094 203.910156 C 325.136719 204.144531 325.886719 204.410156 326.621094 204.714844 C 327.359375 205.019531 328.078125 205.359375 328.78125 205.738281 C 329.484375 206.113281 330.167969 206.523438 330.828125 206.964844 C 331.492188 207.40625 332.132812 207.882812 332.75 208.386719 C 333.363281 208.890625 333.953125 209.425781 334.519531 209.992188 C 335.082031 210.554688 335.617188 211.144531 336.121094 211.761719 C 336.628906 212.375 337.101562 213.015625 337.542969 213.679688 C 337.988281 214.339844 338.398438 215.023438 338.773438 215.726562 C 339.148438 216.429688 339.488281 217.148438 339.792969 217.882812 C 340.097656 218.621094 340.367188 219.371094 340.597656 220.132812 C 340.828125 220.894531 341.023438 221.667969 341.179688 222.449219 C 341.335938 223.230469 341.453125 224.019531 341.53125 224.8125 C 341.609375 225.605469 341.648438 226.398438 341.648438 227.195312 Z M 341.648438 243.417969 " fill-opacity="1" fill-rule="nonzero"/></g></svg>