<svg xmlns="http://www.w3.org/2000/svg" xmlns:xlink="http://www.w3.org/1999/xlink" width="500" zoomAndPan="magnify" viewBox="0 0 375 374.999991" height="500" preserveAspectRatio="xMidYMid meet" version="1.0"><defs><clipPath id="ddffb5ed1e"><path d="M 316 280 L 369.472656 280 L 369.472656 305 L 316 305 Z M 316 280 " clip-rule="nonzero"/></clipPath></defs><path fill="#ffffff" d="M 53.140625 165.460938 C 70.058594 165.394531 83.75 151.710938 83.851562 134.800781 C 83.75 117.851562 70.058594 104.136719 53.140625 104.105469 C 36.152344 104.136719 22.429688 117.851562 22.429688 134.800781 C 22.429688 151.710938 36.152344 165.394531 53.140625 165.460938 " fill-opacity="1" fill-rule="nonzero"/><path fill="#ffffff" d="M 180.878906 86.59375 C 164.191406 83.261719 153.332031 66.851562 156.695312 49.972656 C 160.09375 33.09375 176.414062 22.140625 193.101562 25.5 C 209.824219 28.863281 220.648438 45.210938 217.253906 62.089844 C 213.886719 78.96875 197.601562 89.953125 180.878906 86.59375 " fill-opacity="1" fill-rule="nonzero"/><path fill="#ffffff" d="M 253.324219 216.664062 L 169.921875 216.664062 L 111.296875 164.5625 C 100.9375 155.375 85.117188 156.304688 75.890625 166.660156 C 66.695312 176.980469 67.628906 192.828125 77.988281 202.015625 L 150.867188 266.769531 L 253.324219 266.769531 L 253.324219 216.664062 " fill-opacity="1" fill-rule="nonzero"/><path fill="#ffffff" d="M 341.027344 216.664062 L 316.480469 216.664062 L 316.480469 266.769531 L 341.027344 266.769531 C 354.851562 266.769531 366.078125 255.546875 366.078125 241.734375 C 366.078125 227.882812 354.851562 216.664062 341.027344 216.664062 " fill-opacity="1" fill-rule="nonzero"/><path fill="#ffffff" d="M 306.054688 186.667969 C 305.054688 173.917969 301.523438 167.390625 296.628906 159.5 L 251.925781 82.53125 C 251.925781 82.53125 248.328125 76.671875 241.96875 73.839844 C 233.90625 70.277344 223.648438 70.644531 216.886719 79.566406 C 214.886719 82.199219 174.648438 133.566406 174.648438 133.566406 L 136.277344 108.230469 C 129.082031 103.503906 119.457031 105.46875 114.726562 112.625 C 112.429688 116.15625 111.730469 120.25 112.460938 124.078125 L 91.445312 130.238281 L 93.640625 137.730469 L 115.960938 131.238281 C 116.890625 132.300781 117.890625 133.300781 119.15625 134.132812 L 169.554688 167.425781 C 172.183594 169.121094 175.183594 169.988281 178.113281 169.988281 C 182.777344 169.988281 187.375 167.890625 190.40625 163.960938 L 212.457031 135.464844 L 263.285156 214.765625 L 263.585938 341.574219 C 263.585938 346.46875 266.316406 362.582031 284.46875 362.582031 C 298.925781 362.582031 306.054688 351.128906 306.054688 340.777344 C 306.054688 340.777344 306.386719 186.601562 306.054688 186.667969 " fill-opacity="1" fill-rule="nonzero"/><path fill="#ffffff" d="M 238.503906 375 C 238.269531 345.4375 208.792969 321.433594 172.386719 321.398438 C 135.878906 321.433594 106.367188 345.4375 106.367188 375 L 238.503906 375 " fill-opacity="1" fill-rule="nonzero"/><path fill="#ffffff" d="M 75.722656 39.652344 L 75.722656 0 L 63.164062 0 L 63.164062 39.652344 L 17.066406 39.652344 L 17.066406 64.6875 L 121.820312 64.6875 L 121.820312 39.652344 L 75.722656 39.652344 " fill-opacity="1" fill-rule="nonzero"/><g clip-path="url(#ddffb5ed1e)"><path fill="#ffffff" d="M 316.511719 280.085938 L 369.472656 280.085938 L 369.472656 304.089844 L 316.511719 304.089844 L 316.511719 280.085938 " fill-opacity="1" fill-rule="nonzero"/></g><path fill="#ffffff" d="M 253.324219 280.085938 L 142.242188 280.085938 L 23.359375 169.589844 L 5.539062 188.699219 L 129.714844 304.089844 L 253.324219 304.089844 L 253.324219 280.085938 " fill-opacity="1" fill-rule="nonzero"/></svg>