<svg xmlns="http://www.w3.org/2000/svg" xmlns:xlink="http://www.w3.org/1999/xlink" width="500" zoomAndPan="magnify" viewBox="0 0 375 374.999991" height="500" preserveAspectRatio="xMidYMid meet" version="1.0"><path fill="#ffffff" d="M 213.851562 24.90625 C 213.949219 26.222656 213.230469 27.179688 212.214844 28.015625 C 208.183594 31.339844 204.191406 34.722656 200.113281 37.988281 C 199.011719 38.871094 198.773438 39.710938 199.121094 41.050781 C 200.425781 46 201.585938 50.984375 202.816406 55.949219 C 203.28125 57.839844 202.839844 59.441406 201.285156 60.636719 C 199.921875 61.6875 198.09375 61.628906 196.371094 60.550781 C 191.863281 57.71875 187.355469 54.910156 182.882812 52.015625 C 181.914062 51.394531 181.253906 51.441406 180.300781 52.039062 C 176.019531 54.777344 171.664062 57.40625 167.347656 60.109375 C 166.128906 60.886719 164.824219 61.304688 163.402344 60.972656 C 161.214844 60.445312 159.96875 58.257812 160.53125 56.019531 C 161.882812 50.617188 163.234375 45.210938 164.644531 39.816406 C 164.859375 38.992188 164.683594 38.527344 164.085938 38.023438 C 160.257812 34.808594 156.453125 31.578125 152.628906 28.363281 C 151.21875 27.179688 149.925781 25.980469 150.082031 23.878906 C 150.226562 21.84375 151.753906 20.242188 153.800781 20.109375 C 159.421875 19.738281 165.039062 19.34375 170.671875 19.011719 C 171.558594 18.960938 171.820312 18.484375 172.109375 17.804688 C 173.996094 13.140625 175.921875 8.5 177.835938 3.835938 C 178.015625 3.417969 178.171875 2.976562 178.375 2.570312 C 179.175781 0.976562 180.441406 0.09375 182.234375 0.117188 C 184.054688 0.140625 185.285156 1.0625 185.953125 2.722656 C 187.964844 7.734375 189.972656 12.746094 191.933594 17.777344 C 192.328125 18.785156 192.78125 19.261719 194.003906 19.332031 C 198.929688 19.597656 203.855469 20.015625 208.78125 20.398438 C 209.511719 20.457031 210.265625 20.542969 210.972656 20.746094 C 212.777344 21.246094 213.863281 22.835938 213.851562 24.90625 " fill-opacity="1" fill-rule="nonzero"/><path fill="#ffffff" d="M 321.257812 91.105469 C 320.398438 92.097656 319.203125 92.265625 317.898438 92.144531 C 312.695312 91.644531 307.484375 91.210938 302.292969 90.636719 C 300.882812 90.484375 300.128906 90.902344 299.421875 92.097656 C 296.851562 96.523438 294.148438 100.863281 291.507812 105.238281 C 290.503906 106.914062 289.054688 107.726562 287.105469 107.476562 C 285.410156 107.261719 284.152344 105.933594 283.699219 103.9375 C 282.503906 98.757812 281.296875 93.582031 280.195312 88.378906 C 279.945312 87.242188 279.441406 86.8125 278.34375 86.5625 C 273.378906 85.460938 268.441406 84.253906 263.476562 83.117188 C 262.066406 82.78125 260.847656 82.183594 260.082031 80.929688 C 258.910156 79.015625 259.566406 76.589844 261.554688 75.390625 C 266.335938 72.535156 271.105469 69.652344 275.925781 66.84375 C 276.644531 66.421875 276.871094 65.957031 276.800781 65.179688 C 276.355469 60.207031 275.949219 55.230469 275.519531 50.246094 C 275.351562 48.414062 275.292969 46.644531 276.882812 45.269531 C 278.425781 43.941406 280.648438 43.882812 282.191406 45.246094 C 286.425781 48.953125 290.683594 52.648438 294.890625 56.390625 C 295.5625 56.988281 296.074219 56.84375 296.757812 56.558594 C 301.398438 54.597656 306.046875 52.671875 310.6875 50.734375 C 311.117188 50.554688 311.535156 50.351562 311.96875 50.222656 C 313.652344 49.660156 315.171875 49.933594 316.429688 51.214844 C 317.707031 52.515625 317.921875 54.035156 317.21875 55.699219 C 315.089844 60.660156 312.972656 65.621094 310.808594 70.5625 C 310.363281 71.554688 310.351562 72.210938 311.167969 73.121094 C 314.464844 76.792969 317.648438 80.570312 320.863281 84.324219 C 321.34375 84.886719 321.808594 85.472656 322.167969 86.117188 C 323.078125 87.746094 322.730469 89.644531 321.257812 91.105469 " fill-opacity="1" fill-rule="nonzero"/><path fill="#ffffff" d="M 350.398438 213.851562 C 349.085938 213.949219 348.128906 213.230469 347.292969 212.214844 C 343.96875 208.183594 340.582031 204.191406 337.304688 200.113281 C 336.433594 199.011719 335.597656 198.773438 334.257812 199.121094 C 329.304688 200.425781 324.320312 201.585938 319.359375 202.816406 C 317.46875 203.28125 315.867188 202.839844 314.671875 201.285156 C 313.617188 199.921875 313.675781 198.09375 314.753906 196.371094 C 317.585938 191.863281 320.398438 187.34375 323.292969 182.882812 C 323.914062 181.914062 323.867188 181.242188 323.269531 180.300781 C 320.53125 176.019531 317.898438 171.664062 315.195312 167.347656 C 314.429688 166.128906 314 164.835938 314.335938 163.402344 C 314.859375 161.214844 317.039062 159.96875 319.285156 160.53125 C 324.691406 161.882812 330.09375 163.234375 335.488281 164.644531 C 336.300781 164.859375 336.78125 164.683594 337.28125 164.097656 C 340.5 160.257812 343.726562 156.453125 346.945312 152.628906 C 348.128906 151.21875 349.324219 149.925781 351.429688 150.082031 C 353.460938 150.226562 355.0625 151.753906 355.195312 153.800781 C 355.566406 159.421875 355.960938 165.039062 356.296875 170.671875 C 356.34375 171.558594 356.820312 171.820312 357.503906 172.109375 C 362.167969 173.996094 366.804688 175.921875 371.46875 177.835938 C 371.886719 178.015625 372.332031 178.171875 372.738281 178.375 C 374.328125 179.175781 375.210938 180.441406 375.1875 182.234375 C 375.164062 184.054688 374.257812 185.285156 372.582031 185.953125 C 367.570312 187.964844 362.5625 189.972656 357.527344 191.933594 C 356.523438 192.328125 356.042969 192.78125 355.972656 194.003906 C 355.710938 198.929688 355.289062 203.855469 354.910156 208.78125 C 354.847656 209.511719 354.765625 210.265625 354.5625 210.972656 C 354.058594 212.777344 352.46875 213.863281 350.398438 213.851562 " fill-opacity="1" fill-rule="nonzero"/><path fill="#ffffff" d="M 284.203125 321.257812 C 283.207031 320.398438 283.042969 319.203125 283.160156 317.898438 C 283.664062 312.695312 284.09375 307.484375 284.667969 302.292969 C 284.824219 300.882812 284.40625 300.128906 283.207031 299.421875 C 278.785156 296.839844 274.445312 294.148438 270.066406 291.507812 C 268.394531 290.503906 267.578125 289.054688 267.832031 287.105469 C 268.046875 285.410156 269.375 284.152344 271.371094 283.6875 C 276.546875 282.503906 281.726562 281.296875 286.925781 280.195312 C 288.0625 279.945312 288.492188 279.441406 288.746094 278.355469 C 289.84375 273.378906 291.054688 268.441406 292.1875 263.476562 C 292.523438 262.066406 293.132812 260.847656 294.378906 260.082031 C 296.289062 258.898438 298.71875 259.566406 299.914062 261.554688 C 302.773438 266.335938 305.652344 271.105469 308.464844 275.925781 C 308.882812 276.644531 309.347656 276.871094 310.125 276.800781 C 315.101562 276.355469 320.074219 275.949219 325.0625 275.519531 C 326.890625 275.351562 328.648438 275.304688 330.035156 276.882812 C 331.363281 278.425781 331.421875 280.648438 330.058594 282.191406 C 326.351562 286.425781 322.65625 290.683594 318.902344 294.890625 C 318.316406 295.550781 318.460938 296.074219 318.746094 296.757812 C 320.707031 301.398438 322.632812 306.035156 324.570312 310.6875 C 324.75 311.117188 324.953125 311.535156 325.097656 311.96875 C 325.648438 313.652344 325.371094 315.171875 324.09375 316.429688 C 322.789062 317.695312 321.269531 317.921875 319.621094 317.21875 C 314.65625 315.089844 309.683594 312.972656 304.746094 310.808594 C 303.753906 310.363281 303.09375 310.351562 302.1875 311.167969 C 298.515625 314.464844 294.734375 317.648438 290.980469 320.863281 C 290.417969 321.34375 289.832031 321.808594 289.1875 322.167969 C 287.5625 323.078125 285.660156 322.730469 284.203125 321.257812 " fill-opacity="1" fill-rule="nonzero"/><path fill="#ffffff" d="M 161.453125 350.398438 C 161.359375 349.085938 162.085938 348.128906 163.089844 347.292969 C 167.121094 343.96875 171.117188 340.582031 175.191406 337.316406 C 176.292969 336.433594 176.53125 335.609375 176.183594 334.257812 C 174.882812 329.304688 173.722656 324.320312 172.492188 319.359375 C 172.023438 317.46875 172.464844 315.867188 174.019531 314.671875 C 175.382812 313.617188 177.214844 313.675781 178.9375 314.753906 C 183.445312 317.585938 187.964844 320.398438 192.425781 323.292969 C 193.394531 323.914062 194.050781 323.867188 195.007812 323.269531 C 199.289062 320.53125 203.640625 317.898438 207.957031 315.195312 C 209.175781 314.417969 210.46875 314 211.902344 314.335938 C 214.09375 314.859375 215.335938 317.050781 214.773438 319.285156 C 213.421875 324.691406 212.070312 330.09375 210.660156 335.488281 C 210.445312 336.3125 210.625 336.78125 211.222656 337.28125 C 215.046875 340.5 218.851562 343.726562 222.679688 346.945312 C 224.089844 348.128906 225.378906 349.324219 225.226562 351.429688 C 225.082031 353.460938 223.550781 355.0625 221.507812 355.195312 C 215.886719 355.566406 210.265625 355.960938 204.632812 356.296875 C 203.75 356.34375 203.484375 356.820312 203.199219 357.503906 C 201.308594 362.167969 199.382812 366.804688 197.46875 371.46875 C 197.292969 371.886719 197.136719 372.332031 196.933594 372.738281 C 196.132812 374.328125 194.863281 375.210938 193.070312 375.1875 C 191.253906 375.164062 190.019531 374.257812 189.351562 372.582031 C 187.34375 367.570312 185.332031 362.5625 183.371094 357.527344 C 182.976562 356.523438 182.523438 356.042969 181.304688 355.972656 C 176.375 355.710938 171.449219 355.289062 166.523438 354.910156 C 165.792969 354.847656 165.039062 354.765625 164.335938 354.5625 C 162.53125 354.058594 161.441406 352.46875 161.453125 350.398438 " fill-opacity="1" fill-rule="nonzero"/><path fill="#ffffff" d="M 54.046875 284.203125 C 54.910156 283.207031 56.105469 283.042969 57.40625 283.171875 C 62.609375 283.664062 67.824219 284.09375 73.011719 284.667969 C 74.421875 284.824219 75.175781 284.40625 75.882812 283.207031 C 78.464844 278.785156 81.15625 274.445312 83.796875 270.054688 C 84.816406 268.394531 86.25 267.578125 88.199219 267.832031 C 89.898438 268.046875 91.152344 269.375 91.605469 271.371094 C 92.804688 276.546875 94.011719 281.726562 95.121094 286.925781 C 95.363281 288.0625 95.863281 288.492188 96.964844 288.746094 C 101.925781 289.84375 106.867188 291.054688 111.816406 292.1875 C 113.238281 292.523438 114.457031 293.132812 115.222656 294.378906 C 116.394531 296.289062 115.738281 298.71875 113.753906 299.902344 C 108.96875 302.773438 104.199219 305.640625 99.378906 308.464844 C 98.648438 308.882812 98.433594 309.347656 98.507812 310.125 C 98.949219 315.101562 99.355469 320.074219 99.785156 325.0625 C 99.941406 326.890625 100.011719 328.660156 98.410156 330.035156 C 96.878906 331.363281 94.65625 331.421875 93.113281 330.058594 C 88.878906 326.351562 84.625 322.65625 80.414062 318.914062 C 79.746094 318.316406 79.230469 318.460938 78.550781 318.746094 C 73.910156 320.707031 69.257812 322.632812 64.617188 324.570312 C 64.1875 324.75 63.769531 324.953125 63.339844 325.085938 C 61.652344 325.648438 60.132812 325.371094 58.867188 324.09375 C 57.597656 322.789062 57.382812 321.269531 58.089844 319.609375 C 60.21875 314.644531 62.335938 309.683594 64.5 304.746094 C 64.941406 303.753906 64.953125 303.09375 64.140625 302.1875 C 60.839844 298.515625 57.660156 294.734375 54.441406 290.980469 C 53.964844 290.417969 53.496094 289.832031 53.136719 289.1875 C 52.230469 287.5625 52.578125 285.660156 54.046875 284.203125 " fill-opacity="1" fill-rule="nonzero"/><path fill="#ffffff" d="M 24.90625 161.453125 C 26.222656 161.359375 27.179688 162.074219 28.015625 163.089844 C 31.339844 167.121094 34.722656 171.117188 38 175.191406 C 38.882812 176.292969 39.699219 176.53125 41.050781 176.183594 C 46 174.882812 50.984375 173.722656 55.949219 172.492188 C 57.839844 172.023438 59.441406 172.464844 60.636719 174.019531 C 61.6875 175.382812 61.628906 177.214844 60.539062 178.9375 C 57.71875 183.445312 54.910156 187.964844 52.015625 192.425781 C 51.394531 193.394531 51.441406 194.0625 52.039062 195.007812 C 54.777344 199.289062 57.40625 203.640625 60.109375 207.957031 C 60.875 209.175781 61.304688 210.480469 60.972656 211.902344 C 60.445312 214.09375 58.269531 215.335938 56.019531 214.773438 C 50.617188 213.421875 45.210938 212.070312 39.816406 210.660156 C 39.003906 210.445312 38.527344 210.625 38.023438 211.210938 C 34.808594 215.046875 31.578125 218.851562 28.363281 222.679688 C 27.179688 224.089844 25.96875 225.378906 23.878906 225.226562 C 21.84375 225.082031 20.242188 223.550781 20.109375 221.507812 C 19.738281 215.886719 19.34375 210.265625 19.011719 204.632812 C 18.960938 203.75 18.484375 203.472656 17.804688 203.199219 C 13.140625 201.308594 8.488281 199.382812 3.835938 197.46875 C 3.417969 197.292969 2.976562 197.136719 2.570312 196.933594 C 0.988281 196.132812 0.09375 194.863281 0.117188 193.070312 C 0.140625 191.253906 1.050781 190.019531 2.722656 189.351562 C 7.734375 187.34375 12.746094 185.332031 17.777344 183.371094 C 18.785156 182.976562 19.261719 182.523438 19.332031 181.304688 C 19.585938 176.375 20.015625 171.449219 20.398438 166.523438 C 20.457031 165.792969 20.542969 165.039062 20.746094 164.335938 C 21.246094 162.542969 22.835938 161.441406 24.90625 161.453125 " fill-opacity="1" fill-rule="nonzero"/><path fill="#ffffff" d="M 91.105469 54.046875 C 92.097656 54.910156 92.265625 56.105469 92.144531 57.40625 C 91.644531 62.609375 91.210938 67.824219 90.636719 73.011719 C 90.484375 74.421875 90.902344 75.175781 92.097656 75.882812 C 96.523438 78.453125 100.863281 81.15625 105.25 83.796875 C 106.914062 84.804688 107.726562 86.25 107.476562 88.199219 C 107.261719 89.898438 105.933594 91.152344 103.9375 91.617188 C 98.757812 92.804688 93.582031 94.011719 88.378906 95.109375 C 87.242188 95.363281 86.8125 95.863281 86.5625 96.953125 C 85.460938 101.925781 84.253906 106.867188 83.105469 111.828125 C 82.78125 113.238281 82.171875 114.457031 80.929688 115.222656 C 79.015625 116.40625 76.589844 115.738281 75.390625 113.753906 C 72.535156 108.96875 69.664062 104.199219 66.84375 99.378906 C 66.421875 98.664062 65.957031 98.433594 65.179688 98.507812 C 60.207031 98.949219 55.230469 99.355469 50.246094 99.785156 C 48.414062 99.953125 46.65625 100 45.269531 98.421875 C 43.941406 96.878906 43.882812 94.65625 45.246094 93.113281 C 48.953125 88.878906 52.648438 84.625 56.402344 80.414062 C 56.988281 79.757812 56.84375 79.230469 56.558594 78.550781 C 54.597656 73.910156 52.671875 69.257812 50.734375 64.617188 C 50.554688 64.199219 50.351562 63.769531 50.207031 63.339844 C 49.660156 61.652344 49.933594 60.132812 51.214844 58.878906 C 52.515625 57.609375 54.035156 57.382812 55.6875 58.089844 C 60.648438 60.21875 65.621094 62.335938 70.5625 64.5 C 71.554688 64.941406 72.210938 64.964844 73.121094 64.140625 C 76.792969 60.839844 80.570312 57.660156 84.324219 54.441406 C 84.886719 53.964844 85.472656 53.496094 86.117188 53.136719 C 87.746094 52.230469 89.644531 52.578125 91.105469 54.046875 " fill-opacity="1" fill-rule="nonzero"/><path fill="#ffffff" d="M 269.46875 149.996094 L 268.761719 149.496094 C 268.523438 149.292969 268.40625 149.230469 268.285156 149.148438 L 267.84375 148.875 C 267.722656 148.789062 267.640625 148.730469 267.519531 148.671875 L 266.597656 148.25 C 266.214844 148.074219 265.773438 147.90625 265.273438 147.714844 C 257.941406 145.382812 250 146.363281 242.503906 147.128906 C 242.324219 147.152344 241.964844 147.152344 241.523438 147.1875 C 240.878906 147.210938 239.980469 147.210938 238.917969 147.28125 C 238.5 147.28125 238.03125 147.28125 237.515625 147.308594 C 237.171875 147.308594 236.789062 147.308594 236.394531 147.332031 C 234.828125 147.367188 233.105469 147.425781 231.503906 147.511719 C 231.15625 147.546875 230.773438 147.546875 230.4375 147.570312 C 230.175781 147.570312 229.9375 147.605469 229.695312 147.628906 C 229.195312 147.664062 228.714844 147.691406 228.273438 147.714844 C 227.269531 147.808594 226.382812 147.929688 225.703125 148.046875 C 225.464844 148.074219 225.226562 148.132812 225.046875 148.167969 C 225.023438 148.191406 225.023438 148.191406 224.984375 148.191406 C 224.960938 148.191406 224.925781 148.226562 224.867188 148.226562 C 224.664062 148.226562 224.484375 148.023438 224.484375 147.808594 C 224.484375 147.785156 224.507812 147.714844 224.507812 147.691406 L 226.730469 140.191406 C 228.070312 135.683594 229.433594 131.066406 230.855469 126.558594 C 232.925781 120.007812 233.582031 114.757812 232.960938 109.578125 C 232.21875 103.050781 228.429688 97.097656 222.882812 93.605469 C 219.710938 91.617188 216.160156 90.578125 212.597656 90.578125 C 212.296875 90.578125 212.035156 90.578125 211.734375 90.613281 C 208.304688 90.757812 206.222656 92.707031 205.902344 96.089844 C 205.457031 100.480469 204.980469 104.449219 204.417969 108.179688 C 203.355469 114.828125 201.570312 120.34375 198.882812 125.078125 C 197.363281 127.769531 195.617188 130.171875 193.476562 132.429688 C 190.667969 135.421875 187.617188 138.710938 184.292969 142.476562 L 176.734375 151.121094 C 174.953125 153.140625 173.148438 155.128906 171.199219 156.992188 C 170.839844 157.375 170.339844 157.828125 169.738281 158.367188 C 168.4375 159.492188 166.988281 160.4375 165.351562 161.179688 C 164.429688 161.585938 163.246094 161.945312 161.5625 162.421875 C 155.164062 164.203125 151.457031 166.007812 151.21875 169.882812 C 151.074219 172.023438 150.976562 173.867188 150.917969 175.585938 L 150.917969 176.796875 C 150.859375 178.457031 150.835938 180.058594 150.835938 181.648438 L 150.835938 241.378906 L 160.820312 241.34375 L 161.320312 241.441406 C 164.789062 241.964844 168.375 242.5625 172.945312 243.363281 L 174.953125 243.6875 C 183.96875 245.195312 192.269531 246.59375 200.566406 247.539062 C 220.957031 249.941406 245.671875 255.898438 260.523438 237.375 C 266.597656 229.816406 267.183594 219.089844 268.585938 209.871094 C 270.867188 194.757812 273.414062 179.675781 275.519531 164.527344 C 276.285156 159.191406 273.859375 153.359375 269.46875 149.996094 " fill-opacity="1" fill-rule="nonzero"/><path fill="#ffffff" d="M 133.195312 154.542969 L 106.0625 154.542969 C 102.511719 154.542969 99.644531 157.410156 99.644531 160.964844 L 99.644531 241.546875 C 99.644531 245.085938 102.511719 247.957031 106.0625 247.957031 L 133.195312 247.957031 C 136.734375 247.957031 139.605469 245.085938 139.605469 241.546875 L 139.605469 160.964844 C 139.605469 157.410156 136.734375 154.542969 133.195312 154.542969 " fill-opacity="1" fill-rule="nonzero"/></svg>