<svg xmlns="http://www.w3.org/2000/svg" xmlns:xlink="http://www.w3.org/1999/xlink" width="500" zoomAndPan="magnify" viewBox="0 0 375 374.999991" height="500" preserveAspectRatio="xMidYMid meet" version="1.0"><defs><clipPath id="5e341da72e"><path d="M 2 18.75 L 373 18.75 L 373 356.25 L 2 356.25 Z M 2 18.75 " clip-rule="nonzero"/></clipPath></defs><g clip-path="url(#5e341da72e)"><path fill="#0145E8" d="M 40.3125 18.75 C 19.632812 18.75 2.8125 35.570312 2.8125 56.25 L 2.8125 318.75 C 2.8125 339.429688 19.632812 356.25 40.3125 356.25 L 302.8125 356.25 C 323.492188 356.25 340.3125 339.429688 340.3125 318.75 L 340.3125 135.789062 L 302.8125 173.292969 L 302.847656 318.75 L 40.3125 318.75 L 40.3125 56.25 L 260.769531 56.25 L 298.269531 18.75 Z M 345.804688 24.242188 L 152.8125 217.234375 L 91.070312 155.492188 L 64.554688 182.007812 L 152.8125 270.261719 L 372.320312 50.757812 Z M 345.804688 24.242188 " fill-opacity="1" fill-rule="nonzero"/></g></svg>