<svg xmlns="http://www.w3.org/2000/svg" version="1.1" viewBox="0 0 282 353">
<path fill="#32B2FF" d="   M 202.25 53.21   Q 202.02 51.99 202.41 50.88   Q 202.93 49.37 201.86 50.55   Q 200.92 51.59 201.75 53.29   Q 200.54 55.55 198.00 55.96   C 197.88 55.63 197.79 52.34 197.07 52.83   C 196.04 53.53 196.49 55.64 197.04 56.50   L 196.83 57.15   A 0.99 0.96 -5.4 0 1 196.33 57.74   L 191.65 60.11   Q 189.90 61.00 191.65 61.89   Q 193.96 63.08 198.03 64.96   Q 206.40 68.82 213.46 75.98   A 1.02 0.99 -67.5 0 1 213.74 76.68   C 213.75 77.44 212.60 83.68 212.70 83.70   A 0.34 0.33 15.8 0 0 213.06 83.51   L 214.74 79.62   A 1.00 1.00 0.0 0 1 216.37 79.31   Q 217.32 80.28 218.07 81.34   C 219.60 83.51 219.04 86.92 218.77 89.43   C 218.61 90.97 219.72 90.63 219.71 89.37   Q 219.69 87.52 219.92 85.64   Q 220.16 83.71 221.59 85.03   Q 223.92 87.17 225.90 90.08   Q 226.61 91.10 226.15 93.21   A 1.05 1.02 36.1 0 0 226.28 93.95   Q 227.14 95.33 227.04 92.25   Q 229.50 92.33 230.87 94.27   A 0.40 0.15 52.5 0 0 231.26 94.51   L 231.48 94.30   A 0.21 0.21 0.0 0 0 231.46 93.99   Q 229.57 92.43 229.25 90.04   Q 224.76 88.77 222.70 84.82   Q 221.87 83.23 223.66 83.36   Q 224.95 83.45 225.31 83.29   Q 226.29 82.86 224.07 82.51   Q 219.70 81.83 217.25 78.03   A 1.00 0.98 36.3 0 1 217.12 77.24   C 217.42 76.10 221.07 75.89 219.08 75.29   A 1.00 0.99 -45.5 0 0 218.48 75.30   Q 215.95 76.14 214.33 74.67   Q 211.57 72.20 208.64 69.94   Q 206.92 68.61 209.04 68.17   Q 216.21 66.66 222.43 70.57   C 226.08 72.85 229.07 78.04 231.30 82.76   Q 235.50 91.65 241.13 99.72   Q 242.26 101.34 240.29 101.29   Q 223.85 100.88 212.54 89.83   C 207.52 84.93 205.26 78.34 205.35 71.56   A 1.01 1.00 -75.3 0 0 204.83 70.66   Q 194.50 65.10 183.39 61.44   C 182.76 61.24 181.28 60.96 182.22 62.35   A 0.99 0.97 -6.6 0 0 182.71 62.73   C 184.51 63.38 186.37 63.04 187.97 63.68   Q 192.99 65.68 195.84 70.43   Q 198.38 74.67 199.68 79.42   Q 200.29 81.67 198.24 80.57   Q 195.36 79.02 192.38 77.73   C 185.73 74.87 182.23 72.83 181.95 65.55   Q 181.93 65.05 182.46 64.75   Q 184.47 68.26 188.66 70.65   Q 190.92 71.95 193.80 74.42   Q 196.37 76.63 194.40 73.87   Q 193.53 72.66 192.06 71.96   C 190.90 71.41 190.02 70.04 192.35 69.95   A 0.20 0.19 7.7 0 0 192.54 69.81   Q 192.77 69.18 191.56 69.65   Q 188.46 70.86 187.00 68.00   Q 187.97 67.97 188.39 67.36   Q 189.33 66.03 187.87 66.76   Q 187.20 67.10 187.00 68.00   L 182.50 64.29   C 181.28 61.87 180.04 60.45 177.22 59.77   C 151.77 53.63 124.02 54.91 99.90 65.33   C 49.93 86.90 18.50 139.06 26.78 193.76   C 33.74 239.68 68.35 276.59 113.25 287.24   C 163.98 299.27 214.58 275.59 239.73 230.47   Q 243.26 224.14 241.24 217.59   A 1.00 1.00 0.0 0 0 240.12 216.90   L 216.36 220.73   A 1.00 0.99 60.8 0 1 215.53 220.49   C 213.58 218.74 215.24 216.81 217.32 216.54   C 224.37 215.64 243.05 213.40 243.32 212.26   A 0.64 0.64 0.0 0 0 242.61 211.48   L 216.04 215.16   A 1.03 0.99 -26.7 0 1 215.23 214.91   C 212.97 212.86 214.78 211.27 216.98 211.02   Q 230.45 209.52 243.92 207.84   A 1.01 0.98 -74.7 0 0 244.61 207.43   Q 245.70 205.88 242.24 206.48   Q 237.94 207.23 215.26 209.60   A 1.01 1.00 68.0 0 1 214.38 209.22   C 212.67 207.07 214.33 205.77 216.46 205.60   Q 238.79 203.75 244.99 203.02   Q 246.73 202.82 246.09 201.68   A 0.81 0.81 0.0 0 0 245.31 201.28   Q 231.02 202.80 216.75 203.93   C 214.66 204.10 211.98 203.79 214.04 200.79   A 0.97 0.96 10.9 0 1 214.65 200.38   C 218.02 199.66 222.16 199.78 224.61 199.61   Q 235.27 198.85 245.93 198.03   C 249.94 197.72 246.94 196.34 245.13 196.48   Q 229.92 197.60 214.69 198.53   A 1.00 0.99 65.5 0 1 213.92 198.24   Q 212.59 196.90 213.63 195.19   A 1.00 1.00 0.0 0 1 214.39 194.71   C 221.10 194.07 228.06 194.33 234.47 193.91   Q 239.21 193.60 247.42 193.19   Q 248.56 193.13 248.43 192.18   A 0.65 0.64 84.5 0 0 247.77 191.63   Q 232.49 192.22 217.25 192.76   C 215.10 192.84 212.57 193.38 213.16 190.22   A 1.00 0.98 89.6 0 1 213.94 189.42   Q 217.29 188.75 218.56 188.76   Q 233.25 188.87 247.93 188.56   A 1.03 1.00 23.4 0 0 248.56 188.32   Q 249.94 187.14 247.43 187.09   Q 231.90 186.76 216.37 187.41   C 214.33 187.50 211.26 186.52 213.92 183.97   A 1.00 0.99 -66.8 0 1 214.61 183.69   Q 231.00 183.65 247.32 183.96   C 250.33 184.02 249.94 181.96 247.56 181.98   Q 230.92 182.13 214.29 181.71   A 0.99 0.99 0.0 0 1 213.32 180.75   L 213.27 179.29   A 1.00 1.00 0.0 0 1 214.27 178.25   Q 230.97 178.25 247.60 179.22   C 248.53 179.27 250.67 179.21 249.14 177.62   A 0.98 0.98 0.0 0 0 248.45 177.31   L 214.47 176.42   A 1.00 0.98 73.2 0 1 213.67 175.98   C 211.50 172.76 214.95 172.40 217.06 172.52   Q 232.76 173.47 248.51 174.04   Q 250.19 174.10 249.32 173.16   A 1.03 1.02 -19.6 0 0 248.66 172.85   Q 234.40 171.70 215.74 170.98   Q 212.90 170.87 213.18 168.17   A 0.99 0.99 0.0 0 1 214.14 167.28   Q 218.98 167.14 223.81 167.57   C 232.95 168.37 240.22 168.83 248.41 169.56   C 249.57 169.67 250.46 169.22 249.05 168.09   A 0.99 0.96 65.3 0 0 248.51 167.88   L 214.62 165.25   A 0.99 0.98 -9.0 0 1 213.77 164.64   Q 212.41 161.33 215.74 161.63   C 226.68 162.61 237.78 164.29 248.73 164.73   A 0.64 0.64 0.0 0 0 249.38 164.21   Q 249.56 163.29 248.31 163.16   Q 232.38 161.41 216.43 159.88   Q 212.42 159.50 214.48 156.15   A 1.02 0.99 -69.7 0 1 215.47 155.68   Q 232.24 158.03 247.51 159.89   Q 248.93 160.06 248.76 159.18   A 1.00 0.99 88.4 0 0 247.91 158.37   Q 231.42 156.19 217.39 154.37   C 215.37 154.11 212.70 153.10 214.94 150.52   A 1.01 0.98 -64.2 0 1 215.85 150.19   L 247.08 155.08   Q 248.47 155.30 247.72 154.11   L 247.58 153.89   A 1.00 0.99 -11.4 0 0 246.89 153.44   L 216.10 148.69   A 0.99 0.99 0.0 0 1 215.33 148.10   Q 213.58 144.12 218.25 145.00   Q 235.36 148.22 245.85 149.87   Q 247.34 150.10 246.48 148.87   Q 246.15 148.40 245.36 148.33   Q 244.18 148.22 244.11 148.21   Q 231.27 145.68 218.35 143.45   C 216.23 143.09 214.62 142.11 215.94 139.64   A 0.99 0.98 -69.9 0 1 217.02 139.13   L 244.84 144.89   A 0.78 0.78 0.0 0 0 245.64 144.58   Q 246.34 143.65 244.68 143.30   Q 230.91 140.41 217.12 137.55   A 1.01 1.00 10.7 0 1 216.33 136.40   L 216.66 134.55   A 1.01 1.00 -79.0 0 1 217.86 133.74   L 243.71 139.43   A 1.01 0.99 23.2 0 0 244.76 139.02   Q 248.80 133.04 256.09 132.27   A 1.01 1.00 -19.1 0 1 257.03 132.72   Q 258.30 134.64 259.46 138.25   C 277.82 195.85 253.36 256.88 201.38 286.41   C 168.79 304.92 127.63 307.80 92.82 293.63   Q 42.58 273.17 21.71 221.50   C 18.22 212.13 16.33 202.74 14.29 193.00   Q 13.65 189.89 13.46 187.45   Q 10.82 154.03 24.77 123.56   C 53.00 62.28 123.16 34.38 185.59 59.13   C 187.09 59.73 188.73 59.57 190.12 59.02   A 1.01 1.00 88.8 0 0 190.70 58.41   Q 193.10 51.34 198.82 48.30   Q 206.92 43.98 216.64 46.00   Q 218.52 46.39 217.12 47.71   Q 213.23 51.36 209.68 55.28   Q 204.84 60.62 202.85 61.64   Q 198.65 63.77 193.55 62.22   Q 191.39 61.57 193.32 60.41   Q 194.81 59.52 196.45 58.75   Q 198.53 57.79 200.07 56.54   Q 205.24 52.34 210.98 48.94   Q 211.39 48.69 210.85 48.70   C 210.38 48.71 209.52 49.37 209.12 49.65   A 0.81 0.80 -46.6 0 1 208.27 49.68   C 207.45 49.20 207.28 50.34 206.72 50.83   Q 204.73 52.58 202.25 53.21   Z"/>
<path fill="#32B2FF" d="   M 129.15 134.99   C 139.81 136.68 145.41 133.98 154.97 129.03   C 165.61 123.52 192.71 118.93 196.41 136.45   Q 201.03 158.34 192.09 178.23   C 189.04 185.00 187.34 190.14 187.28 196.56   C 187.18 208.35 187.29 219.04 185.13 229.70   Q 181.14 249.46 171.17 267.17   C 165.89 276.55 166.44 255.32 166.44 254.52   C 166.42 244.37 165.09 217.27 157.30 210.00   C 146.06 199.52 141.14 224.92 140.53 230.81   Q 138.90 246.61 139.30 262.50   Q 139.39 265.99 137.98 269.20   A 1.01 1.00 36.9 0 1 136.29 269.44   C 128.77 260.40 123.99 244.43 121.31 233.14   C 116.74 213.96 119.87 194.69 112.70 175.73   C 107.69 162.47 106.40 152.14 109.31 137.74   C 111.41 127.32 118.29 124.98 128.20 124.00   Q 138.19 123.02 147.57 127.18   Q 149.33 127.96 147.68 128.95   Q 139.49 133.87 129.52 134.20   Q 129.08 134.22 128.92 134.50   A 0.33 0.32 -70.4 0 0 129.15 134.99   Z"/>
<path fill="#32B2FF" d="   M 154.55 211.68   C 157.83 214.77 158.95 218.05 158.65 222.80   Q 157.95 233.73 156.52 244.59   Q 155.96 248.82 154.21 252.70   Q 152.71 256.04 151.02 252.94   Q 149.31 249.80 148.66 246.22   Q 145.48 228.83 145.81 221.75   Q 146.10 215.36 150.01 211.68   Q 152.28 209.53 154.55 211.68   Z"/>
</svg>