<svg xmlns="http://www.w3.org/2000/svg" xmlns:xlink="http://www.w3.org/1999/xlink" width="500" zoomAndPan="magnify" viewBox="0 0 375 374.999991" height="500" preserveAspectRatio="xMidYMid meet" version="1.0"><path fill="#32B2FF" d="M 242.5625 226.003906 L 219.523438 227.695312 C 219.351562 227.710938 219.203125 227.578125 219.1875 227.410156 L 217.023438 197.90625 C 217.011719 197.734375 217.140625 197.585938 217.3125 197.574219 L 240.351562 195.878906 C 240.523438 195.867188 240.671875 195.996094 240.6875 196.167969 L 242.851562 225.667969 C 242.863281 225.839844 242.734375 225.992188 242.5625 226.003906 " fill-opacity="1" fill-rule="nonzero"/><path fill="#32B2FF" d="M 296.988281 205.546875 L 284.15625 208.828125 C 282.617188 209.222656 281.058594 208.222656 280.671875 206.597656 L 276.503906 189.015625 C 276.117188 187.394531 277.054688 185.757812 278.59375 185.363281 L 291.425781 182.085938 C 292.964844 181.695312 294.523438 182.691406 294.90625 184.316406 L 299.078125 201.898438 C 299.460938 203.519531 298.527344 205.15625 296.988281 205.546875 " fill-opacity="1" fill-rule="nonzero"/><path fill="#32B2FF" d="M 140.613281 231.132812 L 163.707031 231.519531 C 163.878906 231.523438 164.023438 231.382812 164.027344 231.210938 L 164.515625 201.636719 C 164.519531 201.464844 164.382812 201.320312 164.210938 201.316406 L 141.113281 200.933594 C 140.941406 200.929688 140.796875 201.066406 140.796875 201.242188 L 140.304688 230.816406 C 140.300781 230.988281 140.4375 231.132812 140.613281 231.132812 " fill-opacity="1" fill-rule="nonzero"/><path fill="#32B2FF" d="M 85.167969 215.382812 L 98.34375 216.75 C 99.921875 216.914062 101.320312 215.699219 101.464844 214.035156 L 103.019531 196.03125 C 103.164062 194.367188 102 192.886719 100.417969 192.722656 L 87.246094 191.359375 C 85.664062 191.195312 84.269531 192.410156 84.125 194.070312 L 82.570312 212.074219 C 82.425781 213.738281 83.589844 215.21875 85.167969 215.382812 " fill-opacity="1" fill-rule="nonzero"/><path fill="#32B2FF" d="M 236.242188 162.226562 L 225.0625 163.046875 C 219.605469 163.445312 214.648438 165.035156 210.324219 167.757812 C 202.8125 172.5 198.160156 179.507812 196.492188 188.585938 C 191.761719 214.398438 194.445312 242.757812 201.917969 245.839844 C 211.691406 249.871094 254.734375 243.992188 258.769531 238.078125 C 261.859375 233.554688 265.820312 194.898438 255.019531 174.222656 C 250.5625 165.699219 244.421875 161.773438 236.242188 162.226562 Z M 223.359375 252.097656 C 213.109375 252.851562 203.902344 252.558594 200.042969 250.964844 C 187.15625 245.648438 187.246094 209.953125 191.363281 187.503906 C 193.796875 174.214844 201.542969 166.859375 207.613281 163.03125 C 212.644531 159.859375 218.375 158.015625 224.660156 157.554688 L 235.882812 156.726562 C 246.035156 156.167969 254.21875 161.3125 259.59375 171.59375 C 271.257812 193.921875 267.335938 235 263.027344 241.3125 C 259.191406 246.929688 239.914062 250.878906 223.359375 252.097656 " fill-opacity="1" fill-rule="nonzero"/><path fill="#32B2FF" d="M 280.675781 149.855469 C 276.296875 151.90625 272.933594 156.007812 271.441406 161.101562 C 267.933594 173.089844 263.167969 196.558594 270.652344 219.078125 C 271.039062 220.347656 273.257812 226.074219 281.820312 223.425781 C 292.367188 220.175781 307.65625 209.925781 308.921875 199.140625 C 310.625 184.644531 303.386719 146.605469 298.734375 145.582031 C 294.679688 145.011719 287.253906 146.769531 280.675781 149.855469 Z M 278.917969 229.574219 C 274.289062 229.914062 271.207031 228.179688 269.300781 226.429688 C 266.660156 224 265.773438 221.070312 265.679688 220.742188 C 257.742188 196.855469 262.746094 172.074219 266.441406 159.445312 C 268.375 152.84375 272.777344 147.515625 278.519531 144.820312 C 284.289062 142.117188 293.222656 139.261719 299.382812 140.121094 C 310.640625 141.6875 315.339844 189.40625 314.109375 199.855469 C 312.488281 213.71875 295.125 225.074219 283.320312 228.710938 C 281.71875 229.203125 280.253906 229.472656 278.917969 229.574219 " fill-opacity="1" fill-rule="nonzero"/><path fill="#32B2FF" d="M 344.714844 184.996094 L 331.882812 188.277344 C 330.34375 188.671875 328.785156 187.671875 328.398438 186.050781 L 324.230469 168.46875 C 323.847656 166.84375 324.78125 165.207031 326.320312 164.8125 L 339.152344 161.535156 C 340.691406 161.140625 342.25 162.136719 342.636719 163.765625 L 346.804688 181.347656 C 347.191406 182.96875 346.253906 184.601562 344.714844 184.996094 " fill-opacity="1" fill-rule="nonzero"/><path fill="#32B2FF" d="M 328.402344 128.042969 C 324.027344 130.097656 320.65625 134.195312 319.164062 139.285156 C 315.660156 151.277344 310.898438 174.746094 318.378906 197.269531 C 318.769531 198.535156 320.984375 204.261719 329.546875 201.613281 C 340.097656 198.359375 355.386719 188.113281 356.652344 177.328125 C 358.351562 162.835938 351.117188 124.789062 346.460938 123.765625 C 342.410156 123.199219 334.980469 124.960938 328.402344 128.042969 Z M 326.648438 207.757812 C 322.019531 208.101562 318.933594 206.367188 317.027344 204.617188 C 314.390625 202.1875 313.5 199.257812 313.410156 198.929688 C 305.46875 175.039062 310.476562 150.265625 314.171875 137.628906 C 316.101562 131.03125 320.503906 125.703125 326.246094 123.007812 C 332.019531 120.304688 340.953125 117.449219 347.113281 118.308594 C 358.367188 119.875 363.066406 167.59375 361.839844 178.042969 C 360.214844 191.90625 342.855469 203.257812 331.050781 206.898438 C 329.449219 207.390625 327.980469 207.660156 326.648438 207.757812 " fill-opacity="1" fill-rule="nonzero"/><path fill="#32B2FF" d="M 34.277344 200.496094 L 47.105469 203.773438 C 48.648438 204.167969 50.207031 203.171875 50.589844 201.546875 L 54.761719 183.964844 C 55.144531 182.34375 54.210938 180.707031 52.671875 180.3125 L 39.839844 177.03125 C 38.300781 176.640625 36.738281 177.636719 36.355469 179.261719 L 32.1875 196.847656 C 31.800781 198.46875 32.734375 200.105469 34.277344 200.496094 " fill-opacity="1" fill-rule="nonzero"/><path fill="#32B2FF" d="M 50.589844 149.855469 C 44.011719 146.769531 36.585938 145.011719 32.527344 145.582031 C 27.875 146.605469 20.636719 184.644531 22.339844 199.140625 C 23.605469 209.925781 38.894531 220.175781 49.445312 223.425781 C 58.003906 226.074219 60.222656 220.347656 60.613281 219.078125 C 68.09375 196.558594 63.328125 173.089844 59.824219 161.101562 C 58.332031 156.007812 54.964844 151.90625 50.589844 149.855469 Z M 47.941406 228.710938 C 36.136719 225.074219 18.777344 213.71875 17.152344 199.855469 C 15.921875 189.40625 20.621094 141.6875 31.878906 140.121094 C 38.039062 139.261719 46.972656 142.117188 52.742188 144.820312 L 52.746094 144.820312 C 58.488281 147.515625 62.890625 152.84375 64.820312 159.445312 C 68.515625 172.074219 73.519531 196.855469 65.582031 220.742188 C 65.492188 221.070312 64.601562 224 61.960938 226.429688 C 60.058594 228.179688 56.972656 229.914062 52.347656 229.574219 C 51.007812 229.472656 49.542969 229.203125 47.941406 228.710938 " fill-opacity="1" fill-rule="nonzero"/><path fill="#32B2FF" d="M 138.890625 169.382812 C 130.777344 170.128906 125.273438 174.90625 122.113281 183.992188 C 114.449219 206.027344 124.007812 243.6875 127.726562 247.714844 C 132.589844 252.976562 176.027344 252.492188 185.105469 247.074219 C 192.039062 242.933594 190.558594 214.488281 182.105469 189.648438 C 179.132812 180.90625 173.503906 174.65625 165.382812 171.066406 C 160.707031 169 155.570312 168.15625 150.113281 168.554688 Z M 164.804688 256.402344 C 148.246094 257.621094 128.605469 256.53125 123.988281 251.535156 C 118.804688 245.917969 108.925781 205.859375 117.203125 182.066406 C 121.015625 171.105469 128.359375 164.820312 138.441406 163.890625 L 149.707031 163.0625 C 155.992188 162.601562 161.933594 163.585938 167.375 165.988281 C 173.9375 168.890625 182.675781 175.03125 187.023438 187.824219 C 194.375 209.429688 199.675781 244.726562 187.707031 251.871094 C 184.121094 254.011719 175.050781 255.648438 164.804688 256.402344 " fill-opacity="1" fill-rule="nonzero"/><path fill="#32B2FF" d="M 77.695312 161.558594 C 76.546875 161.640625 75.527344 161.804688 74.679688 162.054688 C 70.226562 163.746094 68.625 202.4375 72.425781 216.53125 C 75.253906 227.015625 91.875 234.914062 102.785156 236.585938 C 111.625 237.945312 113 231.96875 113.183594 230.757812 C 117.3125 207.285156 109.167969 184.761719 103.949219 173.414062 C 101.730469 168.59375 97.800781 165.03125 93.171875 163.640625 C 87.71875 162.003906 81.863281 161.25 77.695312 161.558594 Z M 106.554688 242.246094 C 105.21875 242.34375 103.726562 242.289062 102.070312 242.035156 C 89.859375 240.164062 71.03125 231.46875 67.398438 217.996094 C 64.65625 207.839844 62.335938 159.945312 73.242188 156.75 C 79.214844 155 88.464844 156.511719 94.570312 158.347656 C 100.644531 160.167969 105.777344 164.800781 108.652344 171.046875 C 114.152344 183.003906 122.722656 206.78125 118.339844 231.699219 C 118.316406 231.910156 117.863281 234.941406 115.605469 237.730469 C 113.984375 239.742188 111.179688 241.90625 106.554688 242.246094 " fill-opacity="1" fill-rule="nonzero"/><path fill="#32B2FF" d="M 176.90625 219.609375 C 169.296875 219.609375 161.554688 219.355469 153.898438 218.863281 C 130.273438 217.332031 106.175781 213.410156 82.28125 207.195312 C 56.03125 200.375 29.378906 190.621094 3.0625 178.210938 C 1.84375 177.632812 0.921875 176.617188 0.464844 175.347656 C 0.0117188 174.078125 0.0742188 172.707031 0.652344 171.484375 C 1.480469 169.722656 3.273438 168.585938 5.21875 168.585938 C 5.964844 168.585938 6.6875 168.75 7.367188 169.070312 C 64.035156 195.796875 121.195312 209.347656 177.257812 209.347656 C 208.15625 209.347656 238.433594 205.230469 267.25 197.105469 C 299.6875 187.957031 324.816406 175.347656 340.1875 166.386719 C 356.898438 156.640625 366.019531 148.96875 366.105469 148.890625 C 367.015625 148.117188 368.171875 147.695312 369.367188 147.695312 C 370.855469 147.695312 372.261719 148.347656 373.21875 149.480469 C 375.019531 151.605469 374.757812 154.792969 372.636719 156.597656 C 372.253906 156.925781 362.988281 164.742188 345.726562 174.851562 C 335.640625 180.757812 324.882812 186.234375 313.753906 191.136719 C 299.847656 197.25 285.308594 202.476562 270.546875 206.671875 C 240.308594 215.257812 208.804688 219.609375 176.90625 219.609375 " fill-opacity="1" fill-rule="nonzero"/></svg>