<svg xmlns="http://www.w3.org/2000/svg" xmlns:xlink="http://www.w3.org/1999/xlink" width="500" zoomAndPan="magnify" viewBox="0 0 375 374.999991" height="500" preserveAspectRatio="xMidYMid meet" version="1.0"><path fill="#0145E8" d="M 258.582031 4.785156 C 252.148438 2.453125 245.132812 0.992188 237.824219 0.992188 C 227.007812 0.992188 216.191406 3.910156 206.835938 9.457031 C 201.28125 12.667969 195.726562 14.125 189.296875 14.125 C 181.988281 14.125 173.800781 11.792969 165.03125 7.707031 C 156.261719 3.035156 146.613281 0.699219 136.964844 0.699219 C 116.503906 0.699219 98.960938 10.625 89.023438 28.136719 C 70.3125 59.949219 82.296875 101.6875 99.546875 130 C 100.714844 132.335938 102.761719 142.84375 103.054688 161.523438 C 103.054688 168.527344 108.316406 174.367188 114.75 175.53125 L 114.75 196.257812 C 114.75 204.429688 121.179688 210.851562 129.367188 210.851562 L 246.300781 210.851562 C 254.488281 210.851562 260.917969 204.429688 260.917969 196.257812 L 260.917969 175.53125 C 267.644531 174.074219 272.613281 168.234375 272.613281 161.523438 C 272.90625 142.84375 274.953125 132.335938 276.121094 130 C 293.367188 101.6875 305.0625 60.242188 286.351562 28.136719 C 279.921875 17.335938 270.273438 9.164062 258.582031 4.785156 Z M 248.933594 196.257812 C 248.933594 198.007812 247.761719 199.175781 246.007812 199.175781 L 129.074219 199.175781 C 127.320312 199.175781 126.148438 198.007812 126.148438 196.257812 L 126.148438 175.824219 L 248.933594 175.824219 Z M 265.890625 123.871094 C 261.796875 130.875 260.917969 152.765625 260.625 161.230469 C 260.625 162.691406 259.164062 164.148438 257.703125 164.148438 L 117.378906 164.148438 C 115.917969 164.148438 114.457031 162.984375 114.457031 161.230469 C 114.457031 152.476562 113.578125 130.875 109.195312 123.871094 C 93.992188 98.769531 82.589844 61.703125 98.960938 33.972656 C 107.441406 19.378906 122.058594 12.375 136.964844 12.375 C 144.859375 12.375 152.460938 14.125 159.769531 17.921875 C 160.644531 18.503906 161.816406 18.796875 162.984375 19.378906 C 162.984375 19.378906 163.277344 19.671875 163.277344 19.671875 C 164.738281 21.132812 193.972656 44.773438 225.546875 44.773438 C 231.976562 44.773438 238.699219 43.605469 245.425781 41.269531 C 248.347656 40.105469 250.101562 36.894531 248.933594 33.683594 C 247.761719 30.761719 244.253906 29.011719 241.332031 30.179688 C 225.839844 36.015625 208.589844 31.640625 195.140625 25.21875 C 201.28125 24.632812 207.128906 22.589844 212.976562 19.378906 C 220.867188 15.003906 229.636719 12.667969 238.117188 12.667969 C 243.671875 12.667969 249.226562 13.542969 254.488281 15.585938 C 263.257812 18.796875 270.859375 24.925781 276.121094 33.972656 C 292.492188 61.703125 281.089844 98.769531 265.890625 123.871094 Z M 265.890625 123.871094 " fill-opacity="1" fill-rule="nonzero"/><path fill="#0145E8" d="M 205.375 348.03125 C 203.328125 356.496094 196.019531 362.625 187.542969 362.625 C 179.0625 362.625 171.753906 356.785156 169.707031 348.03125 L 169.125 345.113281 L 157.136719 345.113281 L 158.597656 350.65625 C 161.816406 364.375 173.800781 374.300781 187.832031 374.300781 C 201.867188 374.300781 213.851562 364.667969 217.066406 350.65625 L 218.53125 345.113281 L 206.542969 345.113281 Z M 205.375 348.03125 " fill-opacity="1" fill-rule="nonzero"/><path fill="#0145E8" d="M 231.390625 313.007812 L 225.546875 313.007812 L 227.59375 304.25 L 215.605469 304.25 L 211.511719 321.761719 L 163.570312 321.761719 L 159.476562 304.25 L 147.492188 304.25 L 149.535156 313.007812 L 143.691406 313.007812 C 140.472656 313.007812 137.84375 315.632812 137.84375 318.84375 C 137.84375 322.054688 140.472656 324.679688 143.691406 324.679688 L 152.460938 324.679688 L 153.335938 328.765625 L 154.507812 333.4375 C 154.800781 333.4375 155.382812 333.4375 155.675781 333.4375 L 219.699219 333.4375 C 219.992188 333.4375 220.574219 333.4375 220.867188 333.4375 L 222.039062 328.765625 L 222.621094 324.679688 L 231.390625 324.679688 C 234.609375 324.679688 237.238281 322.054688 237.238281 318.84375 C 237.238281 315.632812 234.609375 313.007812 231.390625 313.007812 Z M 231.390625 313.007812 " fill-opacity="1" fill-rule="nonzero"/><path fill="#0145E8" d="M 243.085938 269.226562 L 235.484375 269.226562 L 236.945312 263.386719 L 224.960938 263.386719 L 220.867188 280.898438 L 154.214844 280.898438 L 150.121094 263.386719 L 138.136719 263.386719 L 139.597656 269.226562 L 131.996094 269.226562 C 128.78125 269.226562 126.148438 271.851562 126.148438 275.0625 C 126.148438 278.273438 128.78125 280.898438 131.996094 280.898438 L 142.226562 280.898438 L 144.859375 292.574219 L 230.222656 292.574219 L 232.855469 280.898438 L 243.085938 280.898438 C 246.300781 280.898438 248.933594 278.273438 248.933594 275.0625 C 248.933594 271.851562 246.300781 269.226562 243.085938 269.226562 Z M 243.085938 269.226562 " fill-opacity="1" fill-rule="nonzero"/><path fill="#0145E8" d="M 251.855469 228.363281 L 245.132812 228.363281 L 246.59375 222.523438 L 234.609375 222.523438 L 230.515625 240.039062 L 144.566406 240.039062 L 140.472656 222.523438 L 128.488281 222.523438 L 129.949219 228.363281 L 123.226562 228.363281 C 120.011719 228.363281 117.378906 230.988281 117.378906 234.199219 C 117.378906 237.410156 120.011719 240.039062 123.226562 240.039062 L 132.582031 240.039062 L 135.210938 251.710938 L 239.578125 251.710938 L 242.210938 240.039062 L 251.855469 240.039062 C 255.070312 240.039062 257.703125 237.410156 257.703125 234.199219 C 257.703125 230.988281 255.070312 228.363281 251.855469 228.363281 Z M 251.855469 228.363281 " fill-opacity="1" fill-rule="nonzero"/></svg>