<svg xmlns="http://www.w3.org/2000/svg" xmlns:xlink="http://www.w3.org/1999/xlink" width="500" zoomAndPan="magnify" viewBox="0 0 375 374.999991" height="500" preserveAspectRatio="xMidYMid meet" version="1.0"><defs><clipPath id="3e562f45f9"><path d="M 238 173 L 348 173 L 348 350.90625 L 238 350.90625 Z M 238 173 " clip-rule="nonzero"/></clipPath></defs><path fill="#32B2FF" d="M 167.421875 214.613281 C 166.546875 214.613281 165.667969 214.296875 165.03125 213.605469 L 151.417969 200 C 150.089844 198.671875 150.089844 196.546875 151.417969 195.21875 C 152.746094 193.890625 154.875 193.890625 156.203125 195.21875 L 167.421875 206.402344 L 178.640625 195.21875 C 179.972656 193.890625 182.097656 193.890625 183.425781 195.21875 C 184.757812 196.546875 184.757812 198.671875 183.425781 200 L 169.816406 213.605469 C 169.175781 214.296875 168.300781 214.613281 167.421875 214.613281 " fill-opacity="1" fill-rule="nonzero"/><path fill="#32B2FF" d="M 167.421875 214.613281 C 165.535156 214.613281 164.019531 213.097656 164.019531 211.214844 L 164.019531 156.796875 C 164.019531 154.910156 165.535156 153.398438 167.421875 153.398438 C 169.308594 153.398438 170.824219 154.910156 170.824219 156.796875 L 170.824219 211.214844 C 170.824219 213.097656 169.308594 214.613281 167.421875 214.613281 " fill-opacity="1" fill-rule="nonzero"/><path fill="#32B2FF" d="M 94.792969 122.789062 L 94.871094 122.789062 Z M 33.9375 120.316406 C 37.875 122.441406 59.167969 132.433594 92.265625 120.105469 C 98.914062 105.144531 98.832031 94.570312 98.726562 82.375 L 98.699219 77.832031 C 98.699219 62.101562 60.390625 37.765625 48.71875 37.765625 C 39.175781 37.765625 31.597656 42.203125 26.761719 50.570312 C 17.136719 67.175781 20.085938 95.765625 33.9375 120.316406 Z M 60.65625 133.042969 C 41.355469 133.042969 30.269531 126.082031 29.578125 125.632812 C 29.125 125.367188 28.753906 124.96875 28.488281 124.488281 C 12.855469 97.335938 9.800781 66.246094 20.859375 47.144531 C 26.894531 36.703125 36.785156 30.960938 48.695312 30.960938 C 61.828125 30.960938 105.507812 57 105.507812 77.832031 L 105.53125 82.320312 C 105.640625 95.101562 105.71875 107.191406 97.875 124.222656 C 97.503906 125.019531 96.839844 125.632812 96.015625 125.976562 C 82.296875 131.238281 70.441406 133.042969 60.65625 133.042969 " fill-opacity="1" fill-rule="nonzero"/><path fill="#32B2FF" d="M 65.335938 337.046875 C 46.753906 337.046875 34.097656 257.605469 30.667969 233.238281 C 30.402344 231.378906 31.707031 229.679688 33.566406 229.414062 C 35.453125 229.175781 37.128906 230.449219 37.394531 232.308594 C 44.066406 279.605469 56.882812 330.246094 65.335938 330.246094 C 71.582031 330.246094 74.320312 303.25 76.101562 285.394531 C 78.257812 263.953125 80.304688 243.707031 87.003906 234.914062 C 88.144531 233.425781 90.273438 233.132812 91.789062 234.277344 C 93.277344 235.417969 93.570312 237.542969 92.425781 239.058594 C 86.871094 246.3125 84.742188 267.433594 82.882812 286.085938 C 80.011719 314.542969 77.75 337.046875 65.335938 337.046875 " fill-opacity="1" fill-rule="nonzero"/><path fill="#32B2FF" d="M 62.542969 249.5 C 42.765625 249.5 31.464844 235.046875 31.308594 234.832031 C 30.882812 234.195312 23.542969 223.648438 4.882812 228.113281 C 3.074219 228.589844 1.210938 227.445312 0.761719 225.613281 C 0.335938 223.78125 1.453125 221.945312 3.285156 221.523438 C 26.839844 215.863281 36.492188 230.316406 36.890625 230.929688 C 37.5 231.699219 55.871094 254.894531 87.851562 234.117188 C 95.164062 229.414062 98.40625 228.21875 109.015625 228.21875 C 113.429688 228.21875 120.179688 229.332031 128.769531 230.714844 C 140.4375 232.65625 154.980469 235.019531 167.421875 235.019531 C 184.890625 235.019531 200.253906 229.730469 211.472656 225.851562 C 218.652344 223.382812 224.339844 221.414062 228.675781 221.414062 C 238.300781 221.414062 245.929688 227.046875 247.921875 228.667969 C 252.148438 230.261719 286.496094 242.246094 336.132812 228.484375 C 338.871094 226.730469 351.578125 219.503906 371.917969 221.441406 C 373.804688 221.601562 375.160156 223.277344 374.972656 225.136719 C 374.8125 227.023438 373.140625 228.351562 371.277344 228.191406 C 351.285156 226.25 339.640625 234.300781 339.535156 234.382812 C 339.214844 234.621094 338.871094 234.78125 338.5 234.886719 C 282.960938 250.484375 246.355469 235.390625 244.839844 234.753906 C 244.492188 234.621094 244.175781 234.410156 243.910156 234.167969 C 243.828125 234.089844 237.050781 228.21875 228.675781 228.21875 C 225.484375 228.21875 220.007812 230.105469 213.679688 232.28125 C 202.011719 236.320312 186.03125 241.820312 167.421875 241.820312 C 154.421875 241.820312 139.589844 239.402344 127.652344 237.4375 C 119.730469 236.136719 112.871094 235.019531 109.015625 235.019531 C 99.363281 235.019531 97.582031 235.949219 91.546875 239.855469 C 80.542969 246.976562 70.8125 249.5 62.542969 249.5 " fill-opacity="1" fill-rule="nonzero"/><g clip-path="url(#3e562f45f9)"><path fill="#32B2FF" d="M 293.304688 253.777344 C 300.722656 253.777344 306.410156 256.089844 310.265625 260.660156 C 319.597656 271.710938 315.902344 293.527344 312.65625 312.789062 C 310.558594 325.199219 308.164062 339.253906 311.328125 343 C 311.699219 343.425781 312.230469 343.851562 313.613281 343.851562 C 317.816406 343.851562 321.804688 341.484375 325.445312 336.835938 C 340.4375 317.625 344.640625 266.691406 337.566406 238.472656 C 336.957031 236.082031 337.167969 233.292969 338.207031 229.757812 C 337.222656 225.667969 332.914062 207.839844 326.640625 186.078125 C 325.578125 182.492188 320.445312 180.605469 315.925781 180.605469 L 269.003906 180.605469 C 264.484375 180.605469 259.355469 182.492188 258.292969 186.078125 C 252.015625 207.890625 249.011719 225.480469 248.402344 229.28125 C 249.304688 232.148438 249.785156 234.382812 249.09375 237.117188 C 241.914062 265.761719 246.195312 317.441406 261.375 336.914062 C 264.992188 341.511719 268.898438 343.851562 273.046875 343.851562 C 274.429688 343.851562 274.960938 343.425781 275.332031 343 C 278.496094 339.253906 276.101562 325.199219 274.003906 312.789062 C 270.734375 293.527344 267.0625 271.710938 276.394531 260.660156 C 280.25 256.089844 285.941406 253.777344 293.304688 253.777344 Z M 313.613281 350.652344 C 309.707031 350.652344 307.394531 348.871094 306.144531 347.382812 C 300.933594 341.246094 303.140625 328.199219 305.933594 311.675781 C 308.960938 293.871094 312.367188 273.679688 305.082031 265.042969 C 302.527344 262.042969 298.699219 260.578125 293.355469 260.578125 C 287.960938 260.578125 284.132812 262.042969 281.578125 265.042969 C 274.296875 273.679688 277.699219 293.871094 280.730469 311.675781 C 283.519531 328.199219 285.726562 341.246094 280.515625 347.382812 C 279.265625 348.871094 276.953125 350.652344 273.046875 350.652344 C 266.71875 350.652344 260.976562 347.4375 256.03125 341.085938 C 239.257812 319.617188 234.894531 265.761719 242.5 235.496094 C 242.765625 234.382812 242.632812 233.53125 241.675781 230.582031 C 241.515625 230.105469 241.488281 229.574219 241.542969 229.042969 C 241.59375 228.855469 244.546875 209.21875 251.777344 184.191406 C 253.851562 177.015625 261.933594 173.800781 269.003906 173.800781 L 315.925781 173.800781 C 323.027344 173.800781 331.082031 177.015625 333.15625 184.191406 C 340.359375 209.085938 345.011719 228.910156 345.039062 229.09375 C 345.199219 229.707031 345.171875 230.316406 344.984375 230.929688 C 344.132812 233.585938 343.84375 235.578125 344.160156 236.851562 C 351.660156 266.691406 347.378906 319.832031 330.816406 341.007812 C 325.816406 347.410156 320.023438 350.652344 313.613281 350.652344 " fill-opacity="1" fill-rule="nonzero"/></g><path fill="#32B2FF" d="M 88.996094 241.820312 C 88.386719 241.820312 87.746094 241.660156 87.214844 241.316406 C 85.804688 240.441406 85.25 238.710938 85.804688 237.226562 C 85.964844 234.832031 84.050781 223.566406 77.992188 199.070312 C 77.273438 196.199219 74.667969 194.207031 71.664062 194.207031 L 53.769531 194.207031 C 50.742188 194.207031 48.109375 196.199219 47.363281 199.097656 L 38.058594 235.230469 C 37.582031 237.039062 35.71875 238.15625 33.910156 237.675781 C 32.078125 237.199219 30.988281 235.339844 31.464844 233.53125 L 40.769531 197.398438 C 42.285156 191.496094 47.628906 187.40625 53.769531 187.40625 L 71.664062 187.40625 C 77.804688 187.40625 83.121094 191.523438 84.582031 197.421875 C 94.234375 236.402344 92.878906 238.605469 91.894531 240.199219 C 91.230469 241.238281 90.140625 241.820312 88.996094 241.820312 " fill-opacity="1" fill-rule="nonzero"/><path fill="#32B2FF" d="M 117.839844 119.945312 C 151.179688 128.15625 182.257812 128.183594 212.722656 120 C 213.363281 118.03125 214.105469 115.800781 214.929688 113.410156 C 219.371094 100.152344 226.097656 80.144531 226.097656 68.824219 C 226.097656 53.601562 219.554688 30.960938 201.476562 30.960938 C 191.324219 30.960938 185.714844 34.734375 180.316406 38.375 C 176.25 41.113281 172.046875 43.953125 166.519531 44.328125 C 166.148438 44.488281 165.722656 44.566406 165.269531 44.566406 C 159.101562 44.566406 154.609375 41.484375 150.25 38.480469 C 144.824219 34.789062 139.242188 30.960938 129.085938 30.960938 C 111.035156 30.960938 104.46875 53.601562 104.46875 68.824219 C 104.46875 70.152344 104.574219 71.507812 104.734375 72.917969 C 104.894531 74.269531 105.132812 75.652344 105.425781 77.035156 C 107.710938 88.246094 113.5625 106.527344 117.042969 117.472656 Z M 166.4375 132.9375 C 149.53125 132.9375 132.25 130.652344 114.332031 126.082031 C 113.1875 125.789062 112.285156 124.941406 111.914062 123.824219 L 110.558594 119.546875 C 107.019531 108.492188 101.121094 89.949219 98.753906 78.417969 C 98.433594 76.847656 98.140625 75.253906 97.980469 73.714844 C 97.769531 72.039062 97.664062 70.417969 97.664062 68.824219 C 97.664062 46.613281 108.457031 24.160156 129.085938 24.160156 C 141.371094 24.160156 148.414062 28.996094 154.078125 32.875 C 157.746094 35.398438 160.695312 37.417969 164.3125 37.710938 C 164.632812 37.605469 164.949219 37.550781 165.296875 37.550781 C 169.363281 37.550781 172.527344 35.425781 176.515625 32.742188 C 182.175781 28.917969 189.222656 24.160156 201.476562 24.160156 C 222.109375 24.160156 232.902344 46.613281 232.902344 68.824219 C 232.902344 81.285156 226.257812 101.082031 221.363281 115.5625 C 220.328125 118.667969 219.398438 121.484375 218.652344 123.824219 C 218.308594 124.914062 217.429688 125.765625 216.3125 126.054688 C 199.9375 130.652344 183.375 132.9375 166.4375 132.9375 " fill-opacity="1" fill-rule="nonzero"/><path fill="#32B2FF" d="M 244.945312 119.972656 C 254.25 122.152344 296.707031 130.972656 335.8125 120.023438 C 339.828125 107.695312 347.777344 81.605469 347.777344 68.824219 C 347.777344 53.601562 341.609375 30.960938 324.621094 30.960938 C 315.105469 30.960938 309.839844 34.761719 304.761719 38.429688 C 300.613281 41.457031 296.308594 44.566406 290.378906 44.566406 C 289.925781 44.566406 289.527344 44.488281 289.15625 44.328125 C 283.8125 43.953125 279.824219 41.085938 275.945312 38.347656 C 270.867188 34.707031 265.601562 30.960938 256.058594 30.960938 C 239.070312 30.960938 232.902344 53.601562 232.902344 68.824219 C 232.902344 81.101562 240.1875 105.410156 244.945312 119.972656 Z M 292.929688 132.273438 C 264.75 132.273438 242.683594 126.429688 241.304688 126.054688 C 240.347656 125.816406 239.546875 125.152344 239.125 124.277344 C 238.9375 123.902344 238.832031 123.480469 238.777344 123.054688 C 232.957031 105.226562 226.097656 81.683594 226.097656 68.824219 C 226.097656 46.613281 236.410156 24.160156 256.058594 24.160156 C 267.78125 24.160156 274.480469 28.941406 279.90625 32.796875 C 283.625 35.453125 286.578125 37.550781 290.328125 37.550781 C 290.644531 37.550781 290.992188 37.605469 291.308594 37.710938 C 294.605469 37.390625 297.371094 35.398438 300.773438 32.929688 C 306.171875 29.023438 312.898438 24.160156 324.621094 24.160156 C 344.292969 24.160156 354.582031 46.613281 354.582031 68.824219 C 354.582031 82.695312 346.527344 109.265625 341.714844 123.851562 C 341.371094 124.914062 340.519531 125.738281 339.457031 126.054688 C 323.664062 130.734375 307.5 132.273438 292.929688 132.273438 " fill-opacity="1" fill-rule="nonzero"/></svg>