<svg xmlns="http://www.w3.org/2000/svg" xmlns:xlink="http://www.w3.org/1999/xlink" width="500" zoomAndPan="magnify" viewBox="0 0 375 374.999991" height="500" preserveAspectRatio="xMidYMid meet" version="1.0"><defs><clipPath id="1c0492d655"><path d="M 46.269531 222.890625 L 349.835938 222.890625 L 349.835938 374.988281 L 46.269531 374.988281 Z M 46.269531 222.890625 " clip-rule="nonzero"/></clipPath><clipPath id="bc2fec66d4"><path d="M 14.296875 108 L 25 108 L 25 119 L 14.296875 119 Z M 14.296875 108 " clip-rule="nonzero"/></clipPath><clipPath id="57a7ac59e2"><path d="M 318.566406 154.042969 L 360.796875 154.042969 L 360.796875 174.414062 L 318.566406 174.414062 Z M 318.566406 154.042969 " clip-rule="nonzero"/></clipPath></defs><path fill="#0145E8" d="M 154.136719 15.992188 C 157.527344 12.285156 162.050781 10.554688 168.371094 10.554688 C 180.804688 10.554688 198.605469 17.328125 220.582031 26.183594 L 220.683594 26.226562 C 221.84375 26.703125 223.398438 27.285156 225.179688 27.535156 C 225.902344 27.636719 226.683594 27.6875 227.496094 27.6875 C 228.59375 27.6875 229.519531 27.59375 230.015625 27.546875 L 230.171875 27.53125 C 242.570312 26.414062 254.53125 25.414062 264.527344 25.414062 C 283.027344 25.414062 292.574219 28.847656 296.449219 36.898438 C 301 46.355469 301.152344 58.289062 296.894531 71.40625 C 292.761719 84.148438 284.550781 97.386719 273.152344 109.695312 C 271.953125 110.988281 271.480469 112.796875 271.898438 114.511719 C 274.5625 125.5625 271.632812 152.96875 266.195312 167.832031 C 261.617188 180.34375 254.101562 193.1875 245.574219 203.066406 C 238.707031 211.027344 232.269531 215.777344 228.347656 215.777344 C 228.148438 215.777344 227.957031 215.761719 227.773438 215.738281 C 227.589844 215.710938 227.320312 215.671875 226.902344 214.71875 C 226.316406 213.390625 226.074219 211.527344 225.898438 210.167969 C 225.441406 206.625 225.1875 201.800781 224.898438 196.214844 C 224.820312 194.765625 224.789062 192.296875 224.746094 189.175781 C 224.628906 180.449219 224.453125 167.257812 223.089844 155.8125 C 222.296875 149.167969 221.222656 144.046875 219.804688 140.15625 C 217.609375 134.136719 214.332031 130.761719 210.066406 130.125 C 209.621094 130.058594 209.167969 130.023438 208.714844 130.023438 C 204.691406 130.023438 200.996094 132.492188 197.410156 137.558594 C 195.042969 140.90625 192.65625 145.441406 190.113281 151.417969 C 185.710938 161.761719 181.898438 174.03125 179.375 182.152344 C 178.398438 185.296875 177.625 187.78125 177.117188 189.199219 C 175.230469 194.46875 173.601562 199.015625 172.144531 202.273438 C 170.273438 206.457031 169.3125 207.082031 168.902344 207.082031 C 168.855469 207.082031 168.804688 207.078125 168.746094 207.070312 C 165.796875 206.632812 160.730469 201.875 155.339844 189.816406 C 150.019531 177.902344 146.515625 163.441406 145.730469 150.140625 C 144.785156 134.105469 149.714844 106.988281 155.320312 97.390625 C 156.210938 95.867188 156.28125 94 155.503906 92.414062 C 148.128906 77.351562 144.074219 62.308594 143.78125 48.917969 C 143.476562 35.128906 147.058594 23.742188 154.136719 15.992188 Z M 144.875 94.621094 C 141.128906 102.425781 138.773438 113.425781 137.648438 119.683594 C 135.601562 131.0625 134.714844 142.386719 135.207031 150.761719 C 136.066406 165.285156 139.894531 181.085938 145.71875 194.113281 C 148.253906 199.792969 150.957031 204.523438 153.742188 208.167969 C 157.945312 213.660156 162.480469 216.796875 167.214844 217.492188 C 167.777344 217.574219 168.347656 217.617188 168.902344 217.617188 C 176.828125 217.617188 180.289062 209.875 181.765625 206.570312 C 183.386719 202.949219 185.078125 198.222656 187.039062 192.75 C 187.625 191.121094 188.425781 188.542969 189.441406 185.277344 C 191.746094 177.859375 195.230469 166.648438 199.152344 157.117188 C 204.105469 145.085938 207.304688 141.734375 208.484375 140.835938 C 209.371094 142.039062 211.523438 146.203125 212.878906 159.371094 C 213.945312 169.746094 214.101562 181.523438 214.207031 189.316406 C 214.25 192.550781 214.285156 195.109375 214.371094 196.765625 C 214.675781 202.566406 214.9375 207.578125 215.445312 211.515625 C 215.6875 213.398438 216.054688 216.242188 217.25 218.960938 C 219.035156 223.015625 222.226562 225.574219 226.242188 226.164062 C 226.929688 226.265625 227.636719 226.316406 228.347656 226.316406 C 228.347656 226.316406 228.347656 226.316406 228.351562 226.316406 C 235.707031 226.316406 244.1875 220.808594 253.554688 209.953125 C 262.882812 199.144531 271.09375 185.113281 276.09375 171.453125 C 278.957031 163.628906 281.3125 152.503906 282.558594 140.929688 C 283.234375 134.628906 284.070312 123.4375 282.699219 114.859375 C 294.191406 101.996094 302.542969 88.144531 306.921875 74.65625 C 312.03125 58.914062 311.695312 44.273438 305.945312 32.328125 C 302.773438 25.730469 297.257812 20.984375 289.5625 18.21875 C 283.199219 15.9375 275.246094 14.875 264.527344 14.875 C 254.09375 14.875 241.875 15.898438 229.222656 17.035156 C 229.152344 17.042969 229.066406 17.050781 228.964844 17.0625 C 228.609375 17.097656 228.070312 17.152344 227.496094 17.152344 C 227.171875 17.152344 226.890625 17.132812 226.652344 17.101562 C 225.960938 17.003906 225.046875 16.625 224.703125 16.484375 L 224.519531 16.410156 C 200.699219 6.8125 182.726562 0.0195312 168.371094 0.0195312 C 159.007812 0.0195312 151.804688 2.917969 146.355469 8.886719 C 137.410156 18.675781 132.878906 32.597656 133.242188 49.148438 C 133.554688 63.324219 137.570312 78.996094 144.875 94.621094 " fill-opacity="1" fill-rule="nonzero"/><g clip-path="url(#1c0492d655)"><path fill="#0145E8" d="M 345.753906 231.230469 C 345.148438 231.089844 330.816406 227.757812 315.144531 225.515625 C 285.050781 221.207031 277.273438 224.808594 273.859375 228.429688 C 271.496094 230.9375 270.757812 234.253906 271.777344 237.78125 C 271.785156 237.800781 271.789062 237.820312 271.792969 237.839844 C 271.796875 237.847656 271.796875 237.855469 271.800781 237.859375 C 271.804688 237.871094 271.808594 237.878906 271.8125 237.886719 C 271.84375 238 271.886719 238.117188 271.925781 238.230469 C 271.9375 238.253906 271.945312 238.277344 271.953125 238.304688 C 271.957031 238.3125 271.960938 238.320312 271.964844 238.328125 C 276.988281 250.808594 278.285156 283.355469 274.484375 301.644531 C 271.285156 317.035156 264.71875 333.3125 256.460938 346.308594 C 249.242188 357.667969 242.046875 364.449219 237.214844 364.449219 C 235.386719 364.449219 234.214844 361.183594 233.21875 357.652344 C 232.078125 353.59375 230.960938 348.027344 229.664062 341.578125 C 227.667969 331.632812 225.199219 323.191406 222.328125 316.484375 C 217.019531 304.082031 210.246094 297.785156 202.207031 297.769531 C 202.195312 297.769531 202.1875 297.769531 202.175781 297.769531 C 194.132812 297.769531 187.382812 304.066406 182.117188 316.480469 C 179.3125 323.101562 176.867188 331.542969 174.847656 341.585938 C 173.554688 348.03125 172.4375 353.59375 171.292969 357.652344 C 170.300781 361.183594 169.128906 364.449219 167.300781 364.449219 C 162.46875 364.449219 155.273438 357.667969 148.054688 346.308594 C 139.796875 333.3125 133.226562 317.035156 130.027344 301.644531 C 128.230469 292.996094 127.398438 280.378906 127.796875 267.890625 C 128.199219 255.238281 129.847656 244.1875 132.207031 238.332031 C 132.210938 238.320312 132.214844 238.3125 132.21875 238.304688 C 132.238281 238.246094 132.261719 238.1875 132.285156 238.125 C 132.296875 238.09375 132.304688 238.066406 132.316406 238.035156 C 132.332031 237.992188 132.34375 237.941406 132.359375 237.898438 C 132.375 237.851562 132.386719 237.804688 132.398438 237.757812 C 132.410156 237.726562 132.414062 237.699219 132.425781 237.667969 C 132.441406 237.605469 132.453125 237.542969 132.46875 237.480469 C 132.46875 237.472656 132.472656 237.464844 132.472656 237.457031 C 132.480469 237.433594 132.484375 237.414062 132.488281 237.390625 C 132.492188 237.351562 132.503906 237.316406 132.507812 237.28125 C 133.203125 233.746094 132.222656 230.464844 129.730469 228.015625 C 126.25 224.597656 119.992188 222.976562 110.042969 222.910156 C 103.175781 222.863281 94.472656 223.574219 84.164062 225.019531 C 66.816406 227.445312 51.039062 231.074219 50.375 231.226562 C 47.539062 231.882812 45.769531 234.714844 46.425781 237.546875 C 46.988281 239.984375 49.160156 241.632812 51.558594 241.632812 C 51.949219 241.632812 52.347656 241.585938 52.75 241.496094 C 52.910156 241.457031 69.082031 237.738281 86.148438 235.382812 C 113.789062 231.558594 120.710938 234.480469 122.066406 235.332031 C 118.480469 245.003906 117.515625 259.574219 117.261719 267.554688 C 116.832031 281.023438 117.722656 294.230469 119.707031 303.789062 C 123.15625 320.375 130.242188 337.933594 139.15625 351.960938 C 148.867188 367.238281 158.335938 374.988281 167.300781 374.988281 C 170.433594 374.988281 174.867188 373.878906 178.183594 368.59375 C 179.960938 365.753906 180.851562 362.597656 181.441406 360.507812 C 182.691406 356.0625 183.84375 350.316406 185.183594 343.652344 C 187.058594 334.316406 189.292969 326.558594 191.824219 320.59375 C 195.132812 312.785156 198.90625 308.308594 202.179688 308.308594 C 202.179688 308.308594 202.183594 308.308594 202.1875 308.308594 C 205.476562 308.316406 209.289062 312.804688 212.636719 320.628906 C 215.1875 326.585938 217.5 334.546875 219.332031 343.660156 C 220.667969 350.316406 221.824219 356.0625 223.074219 360.507812 C 223.664062 362.597656 224.554688 365.753906 226.332031 368.59375 C 229.648438 373.878906 234.078125 374.988281 237.214844 374.988281 C 246.179688 374.988281 255.648438 367.238281 265.359375 351.960938 C 274.269531 337.933594 281.359375 320.375 284.804688 303.789062 C 286.777344 294.300781 287.609375 281.078125 287.082031 267.519531 C 286.773438 259.570312 285.71875 245.046875 282.105469 235.332031 C 283.964844 234.492188 290.992188 232.667969 314.066406 236.007812 C 329.109375 238.183594 343.214844 241.460938 343.355469 241.492188 C 346.191406 242.152344 349.023438 240.394531 349.683594 237.558594 C 350.347656 234.726562 348.585938 231.894531 345.753906 231.230469 " fill-opacity="1" fill-rule="nonzero"/></g><path fill="#0145E8" d="M 100.613281 149.382812 C 101.542969 151.207031 103.390625 152.257812 105.308594 152.257812 C 106.117188 152.257812 106.933594 152.074219 107.703125 151.679688 C 110.292969 150.355469 111.324219 147.183594 110 144.589844 L 86.992188 99.542969 C 85.667969 96.953125 82.492188 95.925781 79.898438 97.246094 C 77.308594 98.570312 76.277344 101.746094 77.601562 104.335938 L 100.613281 149.382812 " fill-opacity="1" fill-rule="nonzero"/><g clip-path="url(#bc2fec66d4)"><path fill="#0145E8" d="M 19.566406 108.324219 C 18.179688 108.324219 16.820312 108.890625 15.839844 109.871094 C 14.859375 110.847656 14.296875 112.207031 14.296875 113.597656 C 14.296875 114.980469 14.859375 116.339844 15.839844 117.320312 C 16.820312 118.300781 18.179688 118.863281 19.566406 118.863281 C 20.953125 118.863281 22.3125 118.300781 23.292969 117.320312 C 24.273438 116.339844 24.835938 114.980469 24.835938 113.597656 C 24.835938 112.207031 24.273438 110.847656 23.292969 109.871094 C 22.3125 108.890625 20.957031 108.324219 19.566406 108.324219 " fill-opacity="1" fill-rule="nonzero"/></g><path fill="#0145E8" d="M 68.871094 152.257812 C 70.558594 152.257812 72.21875 151.445312 73.238281 149.941406 C 74.871094 147.535156 74.242188 144.257812 71.832031 142.625 L 43.65625 123.546875 C 41.246094 121.914062 37.972656 122.542969 36.339844 124.953125 C 34.707031 127.363281 35.335938 130.640625 37.746094 132.269531 L 65.917969 151.347656 C 66.824219 151.964844 67.851562 152.257812 68.871094 152.257812 " fill-opacity="1" fill-rule="nonzero"/><g clip-path="url(#57a7ac59e2)"><path fill="#0145E8" d="M 360.574219 157.917969 C 359.730469 155.136719 356.789062 153.558594 354.003906 154.40625 L 322.363281 163.992188 C 319.578125 164.832031 318.007812 167.777344 318.847656 170.5625 C 319.539062 172.835938 321.628906 174.304688 323.890625 174.304688 C 324.398438 174.304688 324.910156 174.230469 325.421875 174.074219 L 357.058594 164.488281 C 359.84375 163.644531 361.417969 160.703125 360.574219 157.917969 " fill-opacity="1" fill-rule="nonzero"/></g><path fill="#0145E8" d="M 339.710938 118.4375 C 341.101562 118.4375 342.457031 117.875 343.4375 116.890625 C 344.417969 115.914062 344.984375 114.554688 344.984375 113.167969 C 344.984375 111.78125 344.417969 110.421875 343.4375 109.441406 C 342.457031 108.460938 341.101562 107.898438 339.710938 107.898438 C 338.324219 107.898438 336.964844 108.460938 335.984375 109.441406 C 335.003906 110.421875 334.441406 111.78125 334.441406 113.167969 C 334.441406 114.554688 335.003906 115.914062 335.984375 116.890625 C 336.964844 117.875 338.324219 118.4375 339.710938 118.4375 " fill-opacity="1" fill-rule="nonzero"/><path fill="#0145E8" d="M 306.003906 150.917969 C 307.007812 151.8125 308.261719 152.257812 309.511719 152.257812 C 310.960938 152.257812 312.402344 151.664062 313.445312 150.496094 L 330.199219 131.734375 C 332.136719 129.5625 331.949219 126.230469 329.777344 124.292969 C 327.605469 122.355469 324.273438 122.546875 322.335938 124.71875 L 305.582031 143.480469 C 303.644531 145.648438 303.832031 148.980469 306.003906 150.917969 " fill-opacity="1" fill-rule="nonzero"/></svg>