<svg xmlns="http://www.w3.org/2000/svg" xmlns:xlink="http://www.w3.org/1999/xlink" width="500" zoomAndPan="magnify" viewBox="0 0 375 374.999991" height="500" preserveAspectRatio="xMidYMid meet" version="1.0"><defs><clipPath id="eed7f29d9f"><path d="M 0 93.046875 L 375 93.046875 L 375 282 L 0 282 Z M 0 93.046875 " clip-rule="nonzero"/></clipPath></defs><g clip-path="url(#eed7f29d9f)"><path fill="#0145E8" d="M 7.417969 161.097656 C 28.804688 206.433594 67.613281 242.9375 114.195312 261.464844 C 161.46875 280.253906 215.613281 280.085938 262.757812 260.980469 C 309.839844 241.914062 348.03125 204.800781 367.84375 158.953125 C 327.933594 123.714844 276.746094 102.789062 223.457031 99.957031 C 221.65625 99.867188 219.855469 100.425781 218.4375 101.558594 C 209.484375 108.714844 198.917969 112.445312 187.832031 112.277344 C 177.71875 112.148438 167.191406 108.65625 158.9375 102.691406 C 157.464844 101.628906 155.742188 101.117188 153.929688 101.097656 C 98.832031 102.25 45.570312 124.089844 7.417969 161.097656 Z M 187.863281 281.730469 C 161.949219 281.730469 136.046875 276.925781 111.875 267.320312 C 63.109375 247.929688 22.617188 209.445312 0.757812 161.71875 C 0.207031 160.515625 0.472656 159.101562 1.40625 158.164062 C 40.789062 119.097656 96.339844 96.007812 153.804688 94.796875 C 156.921875 94.71875 160.050781 95.722656 162.628906 97.582031 C 169.847656 102.808594 179.066406 105.871094 187.910156 105.980469 C 197.523438 106.066406 206.710938 102.878906 214.511719 96.636719 C 217.128906 94.542969 220.414062 93.46875 223.789062 93.664062 C 279.265625 96.609375 332.507812 118.667969 373.738281 155.761719 C 374.730469 156.660156 375.054688 158.085938 374.535156 159.324219 C 354.328125 207.652344 314.453125 246.835938 265.117188 266.828125 C 240.59375 276.757812 214.226562 281.730469 187.863281 281.730469 " fill-opacity="1" fill-rule="nonzero"/></g><path fill="#0145E8" d="M 355.183594 168.117188 C 350.972656 168.117188 345.828125 167.445312 339.382812 165.863281 C 335.605469 164.925781 330.960938 163.667969 326.054688 162.328125 C 312.871094 158.734375 296.472656 154.257812 286.269531 153.410156 C 260.847656 151.3125 247.578125 153.894531 233.527344 156.609375 C 222.066406 158.832031 210.214844 161.128906 191.277344 161.128906 C 189.542969 161.128906 188.128906 159.71875 188.128906 157.976562 C 188.128906 156.246094 189.542969 154.828125 191.277344 154.828125 C 209.613281 154.828125 221.164062 152.59375 232.328125 150.429688 C 246.820312 147.613281 260.503906 144.957031 286.78125 147.132812 C 297.574219 148.027344 314.277344 152.582031 327.707031 156.246094 C 332.625 157.582031 337.167969 158.824219 340.886719 159.738281 C 360.671875 164.621094 365.304688 159.976562 369.410156 155.882812 C 370.628906 154.652344 372.625 154.652344 373.855469 155.882812 C 375.085938 157.113281 375.085938 159.109375 373.855469 160.339844 C 369.714844 164.484375 364.992188 168.117188 355.183594 168.117188 " fill-opacity="1" fill-rule="nonzero"/><path fill="#0145E8" d="M 21.996094 168.84375 C 10.714844 168.84375 5.46875 165.390625 2.144531 163.203125 L 1.898438 163.035156 C 0.441406 162.082031 0.0390625 160.132812 0.992188 158.675781 C 1.949219 157.21875 3.894531 156.816406 5.351562 157.769531 L 5.609375 157.9375 C 9.738281 160.664062 17.433594 165.722656 41.671875 159.738281 C 45.390625 158.824219 49.925781 157.582031 54.84375 156.246094 C 68.273438 152.582031 84.988281 148.027344 95.769531 147.132812 C 122.046875 144.964844 135.742188 147.613281 150.234375 150.429688 C 161.398438 152.59375 172.949219 154.828125 191.277344 154.828125 C 193.015625 154.828125 194.425781 156.246094 194.425781 157.976562 C 194.425781 159.71875 193.015625 161.128906 191.277344 161.128906 C 172.339844 161.128906 160.492188 158.832031 149.03125 156.609375 C 134.972656 153.894531 121.703125 151.3125 96.292969 153.410156 C 86.089844 154.257812 69.679688 158.734375 56.507812 162.328125 C 51.597656 163.667969 46.957031 164.925781 43.179688 165.863281 C 34.382812 168.027344 27.476562 168.84375 21.996094 168.84375 " fill-opacity="1" fill-rule="nonzero"/><path fill="#0145E8" d="M 210.359375 197.839844 C 210.214844 197.839844 210.074219 197.839844 209.929688 197.832031 C 202.214844 197.722656 194.976562 195.390625 188.234375 192.996094 C 186.976562 192.554688 186.128906 191.363281 186.128906 190.035156 C 186.128906 189.082031 186.21875 186.5 186.328125 183.085938 C 186.5625 175.742188 186.925781 164.640625 186.839844 158.027344 C 186.820312 156.285156 188.207031 154.859375 189.949219 154.828125 C 191.628906 154.816406 193.105469 156.195312 193.136719 157.9375 C 193.222656 164.699219 192.859375 175.890625 192.625 183.292969 C 192.566406 185.074219 192.515625 186.621094 192.476562 187.8125 C 198.101562 189.738281 204.027344 191.453125 210.007812 191.53125 C 211.570312 191.542969 213.015625 191.460938 214.34375 191.265625 C 219.136719 190.605469 223.289062 188.753906 226.171875 186.027344 C 226.769531 175.390625 227.007812 164.660156 226.878906 154.121094 C 226.859375 152.386719 228.257812 150.960938 229.996094 150.929688 C 231.738281 150.96875 233.15625 152.308594 233.175781 154.050781 C 233.3125 165.132812 233.046875 176.414062 232.386719 187.59375 C 232.347656 188.28125 232.082031 188.933594 231.628906 189.453125 C 231.492188 189.632812 231.335938 189.777344 231.179688 189.925781 C 227.273438 193.972656 221.753906 196.601562 215.230469 197.503906 C 213.734375 197.722656 212.09375 197.839844 210.359375 197.839844 " fill-opacity="1" fill-rule="nonzero"/><path fill="#0145E8" d="M 267.773438 182.722656 L 267.804688 182.722656 Z M 245.375 193.675781 C 244.851562 193.675781 244.339844 193.667969 243.820312 193.648438 C 238.378906 193.527344 233.007812 192.535156 227.863281 190.695312 C 227.773438 190.664062 227.683594 190.625 227.597656 190.585938 C 227.558594 190.566406 227.398438 190.496094 227.359375 190.476562 C 225.804688 189.671875 225.207031 187.769531 226.011719 186.226562 C 226.78125 184.75 228.5625 184.140625 230.066406 184.796875 C 234.550781 186.382812 239.234375 187.25 243.988281 187.359375 C 249.378906 187.515625 254.679688 186.726562 259.726562 185.015625 C 262.421875 184.109375 264.054688 183.078125 264.703125 181.886719 C 265.894531 171.207031 266.132812 160.378906 265.421875 149.710938 C 265.304688 147.96875 266.613281 146.472656 268.355469 146.351562 C 270.078125 146.246094 271.589844 147.554688 271.699219 149.285156 C 272.457031 160.507812 272.179688 171.875 270.902344 183.085938 C 270.875 183.351562 270.804688 183.628906 270.707031 183.875 C 269.042969 188.097656 264.792969 189.957031 261.742188 190.988281 C 256.46875 192.769531 250.972656 193.675781 245.375 193.675781 " fill-opacity="1" fill-rule="nonzero"/><path fill="#0145E8" d="M 280.316406 186.777344 C 277.40625 186.777344 274.679688 186.519531 272.417969 186.253906 C 270.863281 186.089844 269.269531 185.871094 267.675781 185.664062 C 265.953125 185.429688 264.695312 183.824219 264.929688 182.101562 C 265.167969 180.378906 266.703125 179.179688 268.414062 179.40625 C 270.054688 179.621094 271.582031 179.839844 273.105469 179.996094 C 276.351562 180.371094 280.574219 180.734375 284.675781 180.222656 C 287.519531 179.878906 291.570312 178.914062 294.789062 176.3125 C 295.507812 175.734375 296.144531 175.09375 296.6875 174.40625 C 297.699219 167.25 298.398438 159.957031 298.761719 152.710938 C 298.851562 150.980469 300.328125 149.679688 302.070312 149.730469 C 303.800781 149.816406 305.136719 151.292969 305.050781 153.035156 C 304.664062 160.722656 303.910156 168.480469 302.804688 176.089844 C 302.738281 176.570312 302.5625 177.023438 302.285156 177.425781 C 301.3125 178.835938 300.121094 180.105469 298.742188 181.214844 C 294.375 184.75 289.101562 186.019531 285.453125 186.472656 C 283.710938 186.6875 281.980469 186.777344 280.316406 186.777344 " fill-opacity="1" fill-rule="nonzero"/><path fill="#0145E8" d="M 308.601562 180.535156 C 305.128906 180.535156 301.871094 179.945312 299.175781 179.347656 C 297.472656 178.972656 296.410156 177.289062 296.785156 175.597656 C 297.160156 173.894531 298.84375 172.808594 300.542969 173.203125 C 305.757812 174.367188 309.59375 174.542969 313 173.785156 C 314.925781 173.351562 316.738281 172.523438 318.222656 171.421875 C 319.726562 170.308594 320.800781 168.992188 321.410156 167.496094 C 322.234375 165.535156 322.375 163.164062 322.5 160.871094 L 322.621094 158.832031 C 322.707031 157.101562 324.144531 155.78125 325.914062 155.839844 C 327.65625 155.929688 328.996094 157.40625 328.90625 159.140625 L 328.796875 161.207031 C 328.628906 163.933594 328.464844 166.972656 327.222656 169.917969 C 326.179688 172.4375 324.371094 174.710938 321.96875 176.472656 C 319.816406 178.097656 317.179688 179.296875 314.375 179.9375 C 312.417969 180.371094 310.480469 180.535156 308.601562 180.535156 " fill-opacity="1" fill-rule="nonzero"/><path fill="#0145E8" d="M 189.59375 225.332031 C 189.140625 225.332031 188.679688 225.230469 188.234375 225.027344 C 187.085938 224.464844 186.425781 223.3125 186.457031 222.113281 C 186.40625 219.699219 186.355469 216.628906 186.308594 213.351562 C 186.179688 204.523438 186.011719 193.539062 185.699219 190.496094 C 185.6875 190.390625 185.667969 190.269531 185.648438 190.183594 C 185.304688 188.488281 186.386719 186.808594 188.078125 186.453125 C 189.78125 186.097656 191.433594 187.140625 191.796875 188.835938 C 191.847656 189.0625 191.90625 189.375 191.953125 189.789062 C 192.308594 193.164062 192.464844 203.835938 192.605469 213.253906 C 192.652344 216.542969 192.703125 219.613281 192.75 222.023438 L 192.742188 222.023438 C 192.761719 222.546875 192.664062 223.085938 192.4375 223.550781 C 191.894531 224.671875 190.773438 225.332031 189.59375 225.332031 " fill-opacity="1" fill-rule="nonzero"/><path fill="#0145E8" d="M 215.691406 224.140625 C 215.625 224.140625 215.554688 224.140625 215.476562 224.128906 C 213.746094 224.011719 212.4375 222.515625 212.554688 220.773438 C 213.144531 212.074219 212.851562 203.34375 211.679688 194.808594 C 211.441406 193.085938 212.652344 191.5 214.375 191.265625 C 216.085938 191.027344 217.679688 192.230469 217.917969 193.953125 C 219.144531 202.910156 219.449219 212.074219 218.832031 221.207031 C 218.722656 222.871094 217.335938 224.140625 215.691406 224.140625 " fill-opacity="1" fill-rule="nonzero"/><path fill="#0145E8" d="M 242.964844 220.617188 C 242.777344 220.617188 242.589844 220.597656 242.402344 220.566406 C 240.691406 220.253906 239.550781 218.617188 239.855469 216.90625 C 241.398438 208.3125 241.714844 199.542969 240.78125 190.84375 C 240.601562 189.109375 241.851562 187.554688 243.582031 187.367188 C 245.324219 187.199219 246.859375 188.441406 247.046875 190.164062 C 248.039062 199.464844 247.707031 208.84375 246.050781 218.019531 C 245.785156 219.542969 244.457031 220.617188 242.964844 220.617188 " fill-opacity="1" fill-rule="nonzero"/><path fill="#0145E8" d="M 273.164062 213.804688 C 273.027344 213.804688 272.878906 213.804688 272.742188 213.785156 C 271.011719 213.550781 269.8125 211.953125 270.046875 210.230469 C 271.257812 201.355469 271.128906 192.40625 269.671875 183.648438 C 269.386719 181.925781 270.546875 180.3125 272.261719 180.023438 C 273.980469 179.738281 275.59375 180.890625 275.878906 182.613281 C 277.445312 192.003906 277.582031 201.582031 276.285156 211.089844 C 276.066406 212.664062 274.71875 213.804688 273.164062 213.804688 " fill-opacity="1" fill-rule="nonzero"/><path fill="#0145E8" d="M 296.617188 206.136719 C 296.472656 206.136719 296.3125 206.128906 296.15625 206.097656 C 294.433594 205.84375 293.246094 204.238281 293.5 202.527344 C 294.652344 194.789062 294.699219 186.933594 293.648438 179.1875 C 293.421875 177.464844 294.621094 175.871094 296.34375 175.636719 C 298.074219 175.417969 299.660156 176.609375 299.882812 178.332031 C 301.027344 186.679688 300.96875 195.125 299.738281 203.449219 C 299.5 205.015625 298.152344 206.136719 296.617188 206.136719 " fill-opacity="1" fill-rule="nonzero"/><path fill="#0145E8" d="M 320.335938 194.925781 C 318.605469 194.925781 317.1875 193.519531 317.1875 191.777344 C 317.1875 191.492188 317.238281 191.207031 317.308594 190.941406 C 318.242188 185.527344 318.152344 179.878906 317.03125 174.59375 C 316.667969 172.890625 317.75 171.214844 319.453125 170.863281 C 321.144531 170.496094 322.828125 171.582031 323.191406 173.28125 C 324.5 179.445312 324.585938 186.027344 323.457031 192.320312 C 323.339844 192.976562 323.023438 193.558594 322.570312 194 C 322 194.574219 321.214844 194.925781 320.335938 194.925781 " fill-opacity="1" fill-rule="nonzero"/><path fill="#0145E8" d="M 187.539062 225.351562 C 185.796875 225.351562 184.390625 223.941406 184.390625 222.199219 C 184.390625 220.4375 185.804688 219.070312 187.617188 219.050781 C 188.246094 219.050781 188.886719 219.050781 189.523438 219.03125 C 198.386719 218.980469 207.074219 218.589844 215.417969 217.851562 C 224.457031 217.09375 233.539062 215.921875 242.414062 214.367188 C 252.417969 212.625 262.480469 210.359375 272.320312 207.625 C 274.570312 207.003906 276.824219 206.355469 279.066406 205.695312 C 284.765625 203.980469 290.292969 202.082031 295.46875 200.054688 C 303.671875 196.828125 311.523438 193.117188 318.824219 189.011719 C 332.003906 181.570312 343.515625 172.742188 353.019531 162.789062 C 354.21875 161.53125 356.214844 161.492188 357.476562 162.691406 C 358.734375 163.894531 358.773438 165.890625 357.574219 167.140625 C 347.636719 177.542969 335.636719 186.746094 321.910156 194.503906 C 314.355469 198.746094 306.238281 202.585938 297.769531 205.910156 C 292.425781 208.019531 286.742188 209.964844 280.867188 211.726562 C 278.566406 212.40625 276.285156 213.066406 273.992188 213.695312 C 263.96875 216.480469 253.695312 218.796875 243.496094 220.566406 C 234.445312 222.152344 225.175781 223.351562 215.957031 224.128906 C 207.457031 224.878906 198.59375 225.28125 189.621094 225.332031 C 188.964844 225.351562 188.246094 225.351562 187.539062 225.351562 " fill-opacity="1" fill-rule="nonzero"/><path fill="#0145E8" d="M 168.441406 197.730469 C 166.71875 197.730469 165.078125 197.625 163.554688 197.398438 C 157.058594 196.5 151.539062 193.882812 147.617188 189.820312 C 147.457031 189.671875 147.300781 189.523438 147.164062 189.355469 C 146.71875 188.835938 146.453125 188.183594 146.414062 187.496094 C 145.746094 176 145.492188 164.503906 145.636719 153.320312 C 145.65625 151.578125 147.035156 150.222656 148.824219 150.210938 C 150.566406 150.242188 151.953125 151.667969 151.933594 153.402344 C 151.785156 164.050781 152.023438 174.984375 152.632812 185.929688 C 155.523438 188.65625 159.6875 190.496094 164.449219 191.167969 C 165.796875 191.363281 167.261719 191.460938 168.796875 191.433594 C 174.847656 191.34375 180.769531 189.679688 187.785156 187.199219 L 188.285156 187.023438 C 189.910156 186.492188 191.777344 187.289062 192.359375 188.894531 C 192.9375 190.496094 192.257812 192.230469 190.675781 192.859375 C 190.625 192.878906 190.449219 192.9375 190.390625 192.957031 L 189.828125 193.15625 C 183.296875 195.457031 176.203125 197.625 168.875 197.730469 C 168.726562 197.730469 168.589844 197.730469 168.441406 197.730469 " fill-opacity="1" fill-rule="nonzero"/><path fill="#0145E8" d="M 133.417969 193.578125 C 127.832031 193.578125 122.332031 192.671875 117.058594 190.882812 C 114.019531 189.859375 109.769531 188.007812 108.105469 183.773438 C 108.007812 183.519531 107.941406 183.253906 107.910156 182.988281 C 106.640625 171.855469 106.355469 160.535156 107.09375 149.324219 C 107.203125 147.59375 108.726562 146.285156 110.4375 146.394531 C 112.171875 146.5 113.488281 148.007812 113.378906 149.738281 C 112.683594 160.410156 112.929688 171.1875 114.109375 181.777344 C 114.765625 182.988281 116.390625 184.011719 119.078125 184.917969 C 124.125 186.628906 129.425781 187.417969 134.789062 187.25 C 139.597656 187.140625 144.308594 186.273438 148.816406 184.660156 C 148.855469 184.652344 149.023438 184.59375 149.0625 184.582031 C 150.714844 184.050781 152.484375 184.964844 153.007812 186.628906 C 153.539062 188.28125 152.613281 190.054688 150.960938 190.585938 C 145.785156 192.4375 140.414062 193.421875 134.953125 193.550781 C 134.441406 193.570312 133.929688 193.578125 133.417969 193.578125 " fill-opacity="1" fill-rule="nonzero"/><path fill="#0145E8" d="M 98.496094 186.667969 C 96.824219 186.667969 95.09375 186.589844 93.339844 186.375 C 89.679688 185.921875 84.398438 184.632812 80.039062 181.089844 C 78.703125 180.015625 77.523438 178.746094 76.539062 177.347656 C 76.253906 176.945312 76.066406 176.472656 75.988281 175.980469 C 74.945312 168.695312 74.207031 161.265625 73.792969 153.902344 C 73.703125 152.171875 75.03125 150.683594 76.765625 150.585938 C 78.554688 150.496094 79.992188 151.824219 80.078125 153.558594 C 80.464844 160.46875 81.140625 167.4375 82.105469 174.296875 C 82.667969 174.996094 83.285156 175.617188 84.003906 176.1875 C 87.210938 178.804688 91.273438 179.769531 94.117188 180.125 C 98.21875 180.625 102.449219 180.269531 105.675781 179.898438 C 107.269531 179.730469 108.835938 179.511719 110.378906 179.304688 C 112.109375 179.070312 113.683594 180.269531 113.921875 181.992188 C 114.167969 183.714844 112.957031 185.300781 111.234375 185.546875 C 109.621094 185.761719 108 185.988281 106.367188 186.15625 C 104.121094 186.421875 101.40625 186.667969 98.496094 186.667969 " fill-opacity="1" fill-rule="nonzero"/><path fill="#0145E8" d="M 70.164062 180.429688 C 68.304688 180.429688 66.375 180.261719 64.457031 179.839844 C 61.652344 179.199219 59.007812 178.007812 56.8125 176.363281 C 54.441406 174.613281 52.632812 172.339844 51.570312 169.816406 C 50.359375 166.925781 50.183594 163.863281 50.023438 161.167969 L 49.976562 160.152344 C 49.886719 158.421875 51.226562 156.933594 52.957031 156.855469 C 54.679688 156.765625 56.171875 158.105469 56.261719 159.835938 L 56.3125 160.78125 C 56.449219 163.203125 56.585938 165.488281 57.375 167.378906 C 58.011719 168.882812 59.085938 170.210938 60.570312 171.3125 C 62.066406 172.425781 63.886719 173.253906 65.835938 173.6875 C 69.207031 174.445312 73.054688 174.257812 78.269531 173.097656 C 79.980469 172.710938 81.652344 173.792969 82.027344 175.488281 C 82.402344 177.191406 81.339844 178.875 79.636719 179.246094 C 77.117188 179.808594 73.761719 180.429688 70.164062 180.429688 " fill-opacity="1" fill-rule="nonzero"/><path fill="#0145E8" d="M 163.121094 224.042969 C 161.476562 224.042969 160.101562 222.773438 159.980469 221.109375 C 159.351562 212.054688 159.65625 202.878906 160.898438 193.855469 C 161.132812 192.132812 162.714844 190.921875 164.4375 191.167969 C 166.160156 191.394531 167.371094 192.988281 167.132812 194.710938 C 165.953125 203.3125 165.65625 212.042969 166.269531 220.664062 C 166.386719 222.40625 165.078125 223.914062 163.347656 224.03125 C 163.269531 224.042969 163.1875 224.042969 163.121094 224.042969 " fill-opacity="1" fill-rule="nonzero"/><path fill="#0145E8" d="M 135.839844 220.507812 C 134.34375 220.507812 133.015625 219.445312 132.742188 217.917969 C 131.089844 208.734375 130.761719 199.367188 131.746094 190.066406 C 131.933594 188.34375 133.488281 187.101562 135.21875 187.269531 C 136.941406 187.457031 138.199219 189.011719 138.015625 190.734375 C 137.078125 199.433594 137.394531 208.214844 138.9375 216.808594 C 139.242188 218.519531 138.113281 220.152344 136.390625 220.46875 C 136.203125 220.5 136.015625 220.507812 135.839844 220.507812 " fill-opacity="1" fill-rule="nonzero"/><path fill="#0145E8" d="M 105.628906 213.707031 C 104.082031 213.707031 102.726562 212.566406 102.519531 210.988281 C 101.222656 201.511719 101.367188 191.933594 102.933594 182.515625 C 103.21875 180.792969 104.839844 179.632812 106.554688 179.917969 C 108.265625 180.203125 109.425781 181.828125 109.140625 183.546875 C 107.683594 192.339844 107.546875 201.285156 108.757812 210.132812 C 108.992188 211.855469 107.78125 213.441406 106.0625 213.675781 C 105.914062 213.695312 105.777344 213.707031 105.628906 213.707031 " fill-opacity="1" fill-rule="nonzero"/><path fill="#0145E8" d="M 82.195312 206.03125 C 80.660156 206.03125 79.3125 204.90625 79.085938 203.34375 C 77.847656 195.035156 77.789062 186.582031 78.910156 178.222656 C 79.136719 176.5 80.710938 175.28125 82.449219 175.515625 C 84.171875 175.753906 85.382812 177.339844 85.144531 179.058594 C 84.113281 186.835938 84.164062 194.691406 85.3125 202.417969 C 85.570312 204.140625 84.378906 205.742188 82.65625 206 C 82.5 206.019531 82.34375 206.03125 82.195312 206.03125 " fill-opacity="1" fill-rule="nonzero"/><path fill="#0145E8" d="M 58.464844 194.808594 C 56.980469 194.808594 55.660156 193.753906 55.375 192.238281 C 54.226562 186.007812 54.304688 179.425781 55.613281 173.195312 C 55.96875 171.492188 57.640625 170.398438 59.339844 170.753906 C 61.035156 171.117188 62.125 172.78125 61.769531 174.484375 C 60.628906 179.925781 60.5625 185.664062 61.566406 191.089844 C 61.890625 192.800781 60.757812 194.445312 59.046875 194.757812 C 58.847656 194.800781 58.664062 194.808594 58.464844 194.808594 " fill-opacity="1" fill-rule="nonzero"/><path fill="#0145E8" d="M 191.277344 225.253906 C 190.695312 225.253906 190.09375 225.253906 189.503906 225.230469 C 180.484375 225.203125 171.492188 224.789062 162.84375 224.03125 C 153.792969 223.265625 144.527344 222.074219 135.300781 220.46875 C 125.066406 218.6875 114.808594 216.375 104.792969 213.597656 C 102.507812 212.96875 100.226562 212.308594 97.953125 211.628906 C 92.070312 209.867188 86.386719 207.910156 81.042969 205.8125 C 72.476562 202.4375 64.359375 198.597656 56.921875 194.40625 C 43.53125 186.855469 31.777344 177.917969 21.976562 167.839844 C 20.765625 166.589844 20.796875 164.59375 22.046875 163.382812 C 23.285156 162.171875 25.28125 162.199219 26.492188 163.449219 C 35.867188 173.097656 47.152344 181.667969 60.019531 188.914062 C 67.203125 192.96875 75.042969 196.679688 83.34375 199.957031 C 88.519531 201.984375 94.039062 203.882812 99.753906 205.597656 C 101.976562 206.253906 104.222656 206.90625 106.464844 207.527344 C 116.292969 210.25 126.347656 212.515625 136.382812 214.257812 C 145.421875 215.832031 154.511719 217.003906 163.386719 217.753906 C 171.867188 218.5 180.691406 218.902344 189.613281 218.933594 C 190.214844 218.953125 190.746094 218.941406 191.277344 218.953125 C 193.015625 218.953125 194.425781 220.359375 194.425781 222.101562 C 194.425781 223.835938 193.015625 225.253906 191.277344 225.253906 " fill-opacity="1" fill-rule="nonzero"/></svg>