<svg xmlns="http://www.w3.org/2000/svg" xmlns:xlink="http://www.w3.org/1999/xlink" width="500" zoomAndPan="magnify" viewBox="0 0 375 374.999991" height="500" preserveAspectRatio="xMidYMid meet" version="1.0"><defs><clipPath id="7af7988b06"><path d="M 48 27.421875 L 375 27.421875 L 375 347.671875 L 48 347.671875 Z M 48 27.421875 " clip-rule="nonzero"/></clipPath><clipPath id="b8ef902204"><path d="M 0 226 L 97 226 L 97 347.671875 L 0 347.671875 Z M 0 226 " clip-rule="nonzero"/></clipPath></defs><rect x="-37.5" width="450" fill="transparent" y="-37.499999" height="449.999989" fill-opacity="1"/><rect x="-37.5" width="450" fill="transparent" y="-37.499999" height="449.999989" fill-opacity="1"/><rect x="-37.5" width="450" fill="transparent" y="-37.499999" height="449.999989" fill-opacity="1"/><path fill="#32B2FF" d="M 84.808594 120.089844 C 84.808594 116.738281 82.09375 114.046875 78.769531 114.046875 C 75.441406 114.046875 72.726562 116.738281 72.726562 120.089844 C 72.726562 158.75 83.769531 196.398438 104.675781 228.921875 C 105.832031 230.71875 107.792969 231.707031 109.773438 231.707031 C 110.90625 231.707031 112.015625 231.402344 113.03125 230.742188 C 115.835938 228.921875 116.664062 225.195312 114.847656 222.386719 C 95.191406 191.820312 84.808594 156.4375 84.808594 120.089844 " fill-opacity="1" fill-rule="nonzero"/><path fill="#32B2FF" d="M 222.894531 58.910156 C 212.441406 65.988281 200.195312 69.71875 187.5 69.71875 C 174.804688 69.71875 162.558594 65.988281 152.105469 58.933594 C 149.320312 57.066406 145.570312 57.800781 143.703125 60.539062 C 141.839844 63.324219 142.574219 67.074219 145.332031 68.941406 C 157.816406 77.367188 172.375 81.804688 187.5 81.804688 C 202.625 81.804688 217.183594 77.367188 229.667969 68.941406 C 232.425781 67.050781 233.160156 63.324219 231.296875 60.539062 C 229.429688 57.777344 225.679688 57.066406 222.894531 58.910156 " fill-opacity="1" fill-rule="nonzero"/><g clip-path="url(#7af7988b06)"><path fill="#32B2FF" d="M 326.4375 149.96875 C 321.433594 138.996094 312.9375 129.882812 302.367188 124.101562 C 312.9375 118.316406 321.433594 109.207031 326.4375 98.230469 C 331.4375 109.207031 339.933594 118.316406 350.503906 124.101562 C 339.933594 129.882812 331.4375 138.996094 326.4375 149.96875 Z M 280.46875 235.460938 C 267.160156 256.183594 257.394531 278.796875 251.421875 302.707031 L 244.816406 329.023438 C 243.871094 332.871094 240.402344 335.585938 236.414062 335.585938 C 232.097656 335.585938 228.464844 332.472656 227.828125 328.199219 L 214.28125 237.820312 C 212.277344 224.4375 201.019531 214.738281 187.5 214.738281 C 173.980469 214.738281 162.722656 224.4375 160.71875 237.820312 L 147.171875 328.199219 C 146.535156 332.472656 142.902344 335.585938 138.585938 335.585938 C 134.597656 335.585938 131.128906 332.871094 130.160156 329.023438 L 123.578125 302.707031 C 117.605469 278.796875 107.839844 256.183594 94.507812 235.460938 C 72.375 200.976562 60.644531 161.085938 60.644531 120.089844 L 60.644531 104.15625 C 60.644531 68.492188 89.621094 39.507812 125.277344 39.507812 C 137.875 39.507812 149.675781 42.859375 159.375 49.230469 C 167.820312 54.800781 177.304688 57.632812 187.5 57.632812 C 197.695312 57.632812 207.179688 54.800781 215.625 49.230469 C 225.324219 42.859375 237.125 39.507812 249.722656 39.507812 C 281.601562 39.507812 309.09375 63.25 313.695312 94.761719 C 313.742188 95.140625 313.929688 95.445312 314.046875 95.800781 C 307.816406 107.34375 296.5625 115.910156 283.160156 118.152344 C 280.234375 118.625 278.109375 121.152344 278.109375 124.101562 C 278.109375 127.050781 280.234375 129.578125 283.160156 130.050781 C 295.359375 132.101562 305.789062 139.371094 312.277344 149.378906 C 308.054688 179.851562 297.105469 209.59375 280.46875 235.460938 Z M 369.710938 118.152344 C 351 115.015625 336.277344 99.671875 333.914062 80.835938 L 332.429688 68.964844 C 332.050781 65.941406 329.480469 63.675781 326.4375 63.675781 C 323.390625 63.675781 320.820312 65.941406 320.441406 68.964844 L 319.898438 73.234375 C 307.867188 46.117188 280.515625 27.421875 249.722656 27.421875 C 234.738281 27.421875 220.652344 31.480469 208.996094 39.152344 C 196.066406 47.648438 178.933594 47.648438 166.003906 39.152344 C 154.347656 31.480469 140.261719 27.421875 125.277344 27.421875 C 82.96875 27.421875 48.5625 61.835938 48.5625 104.15625 L 48.5625 120.089844 C 48.5625 163.402344 60.953125 205.554688 84.359375 242 C 96.960938 261.613281 106.210938 283.023438 111.875 305.632812 L 118.457031 331.929688 C 120.769531 341.203125 129.050781 347.671875 138.585938 347.671875 C 148.945312 347.671875 157.578125 340.238281 159.113281 329.992188 L 172.65625 239.59375 C 173.765625 232.203125 180.019531 226.824219 187.5 226.824219 C 194.980469 226.824219 201.234375 232.203125 202.34375 239.59375 L 215.886719 329.992188 C 217.421875 340.238281 226.054688 347.671875 236.414062 347.671875 C 245.949219 347.671875 254.230469 341.203125 256.542969 331.929688 L 263.125 305.632812 C 268.789062 283 278.039062 261.613281 290.640625 242 C 303.972656 221.253906 313.859375 198.167969 319.804688 174.1875 L 320.441406 179.238281 C 320.820312 182.257812 323.390625 184.527344 326.4375 184.527344 C 329.480469 184.527344 332.050781 182.257812 332.429688 179.238281 L 333.914062 167.367188 C 336.277344 148.53125 351 133.1875 369.710938 130.050781 C 372.636719 129.578125 374.761719 127.050781 374.761719 124.101562 C 374.761719 121.152344 372.636719 118.625 369.710938 118.152344 " fill-opacity="1" fill-rule="nonzero"/></g><g clip-path="url(#b8ef902204)"><path fill="#32B2FF" d="M 48.5625 313.117188 C 43.5625 302.140625 35.042969 293.03125 24.496094 287.246094 C 35.042969 281.464844 43.5625 272.355469 48.5625 261.378906 C 53.566406 272.355469 62.0625 281.464844 72.632812 287.246094 C 62.0625 293.03125 53.566406 302.140625 48.5625 313.117188 Z M 91.839844 281.300781 C 73.128906 278.160156 58.402344 262.816406 56.042969 243.980469 L 54.558594 232.109375 C 54.179688 229.089844 51.609375 226.824219 48.5625 226.824219 C 45.519531 226.824219 42.949219 229.089844 42.570312 232.109375 L 41.085938 243.980469 C 38.722656 262.816406 24 278.160156 5.289062 281.300781 C 2.386719 281.769531 0.238281 284.296875 0.238281 287.246094 C 0.238281 290.199219 2.386719 292.722656 5.289062 293.21875 C 24 296.335938 38.722656 311.675781 41.085938 330.511719 L 42.570312 342.382812 C 42.949219 345.40625 45.519531 347.671875 48.5625 347.671875 C 51.609375 347.671875 54.179688 345.40625 54.558594 342.382812 L 56.042969 330.511719 C 58.402344 311.675781 73.128906 296.335938 91.839844 293.21875 C 94.765625 292.722656 96.890625 290.199219 96.890625 287.246094 C 96.890625 284.296875 94.765625 281.769531 91.839844 281.300781 " fill-opacity="1" fill-rule="nonzero"/></g></svg>