<svg xmlns="http://www.w3.org/2000/svg" xmlns:xlink="http://www.w3.org/1999/xlink" width="500" zoomAndPan="magnify" viewBox="0 0 375 374.999991" height="500" preserveAspectRatio="xMidYMid meet" version="1.0"><path fill="#32B2FF" d="M 300.992188 93.878906 C 289.035156 74.273438 270.304688 62.09375 252.109375 62.09375 C 249.492188 62.09375 247.183594 63.816406 246.441406 66.324219 C 232.96875 111.804688 213.921875 120.941406 187.558594 120.941406 C 161.191406 120.941406 142.144531 111.804688 128.671875 66.324219 C 127.929688 63.816406 125.621094 62.09375 123.003906 62.09375 C 104.808594 62.09375 86.078125 74.273438 74.121094 93.878906 C 64.777344 109.195312 59.921875 128.027344 60.070312 148.339844 C 60.242188 171.710938 66.875 196.238281 79.777344 221.238281 C 101.425781 263.195312 104.359375 299.277344 106.5 325.621094 C 107.671875 340.003906 108.59375 351.367188 112.207031 359.78125 C 116.59375 370.003906 124.683594 374.96875 136.925781 374.96875 C 150.242188 374.96875 160.515625 366.027344 167.460938 348.390625 C 172.949219 334.453125 175.914062 316.699219 178.527344 301.039062 C 180.097656 291.636719 181.578125 282.757812 183.386719 276.039062 C 185.277344 269.019531 186.910156 266.789062 187.558594 266.136719 C 188.203125 266.789062 189.839844 269.019531 191.726562 276.039062 C 193.535156 282.757812 195.015625 291.636719 196.585938 301.039062 C 199.199219 316.699219 202.164062 334.453125 207.652344 348.390625 C 214.597656 366.027344 224.871094 374.96875 238.1875 374.96875 C 250.433594 374.96875 258.519531 370.003906 262.90625 359.78125 C 266.519531 351.367188 267.441406 340.003906 268.613281 325.621094 C 270.753906 299.277344 273.6875 263.195312 295.339844 221.238281 C 308.242188 196.238281 314.871094 171.710938 315.042969 148.339844 C 315.191406 128.027344 310.335938 109.195312 300.992188 93.878906 Z M 284.828125 215.824219 C 262.09375 259.882812 259.050781 297.324219 256.828125 324.664062 C 254.289062 355.859375 252.265625 363.152344 238.1875 363.152344 C 218.945312 363.152344 213.015625 327.632812 208.25 299.09375 C 206.429688 288.183594 204.707031 277.875 202.351562 270.203125 C 201.003906 265.8125 197.417969 254.140625 187.558594 254.140625 C 177.695312 254.140625 174.109375 265.8125 172.761719 270.203125 C 170.40625 277.875 168.683594 288.183594 166.863281 299.09375 C 162.097656 327.632812 156.167969 363.152344 136.925781 363.152344 C 122.847656 363.152344 120.824219 355.859375 118.289062 324.664062 C 116.066406 297.324219 113.019531 259.882812 90.285156 215.824219 C 58.558594 154.351562 75.472656 114.363281 84.21875 100.027344 C 93.054688 85.539062 105.964844 75.988281 118.726562 74.210938 C 125.617188 95.738281 134.179688 110.234375 145.492188 119.613281 C 156.304688 128.582031 169.671875 132.757812 187.558594 132.757812 C 205.441406 132.757812 218.808594 128.582031 229.621094 119.613281 C 240.933594 110.234375 249.496094 95.738281 256.386719 74.210938 C 269.148438 75.988281 282.058594 85.539062 290.894531 100.027344 C 299.640625 114.363281 316.554688 154.351562 284.828125 215.824219 Z M 284.828125 215.824219 " fill-opacity="1" fill-rule="nonzero"/><path fill="#32B2FF" d="M 145.492188 57.523438 C 155.078125 65.472656 166.679688 69.648438 181.644531 70.496094 L 181.644531 87.785156 L 176.980469 83.125 C 174.671875 80.816406 170.929688 80.816406 168.617188 83.125 C 166.308594 85.429688 166.308594 89.171875 168.617188 91.476562 L 183.375 106.226562 C 185.578125 108.511719 189.535156 108.511719 191.738281 106.226562 L 206.496094 91.476562 C 208.804688 89.171875 208.804688 85.429688 206.496094 83.125 C 204.1875 80.816406 200.441406 80.816406 198.132812 83.125 L 193.46875 87.785156 L 193.46875 70.496094 C 208.4375 69.648438 220.035156 65.472656 229.621094 57.523438 C 241.710938 47.5 250.65625 31.632812 257.78125 7.589844 C 258.308594 5.800781 257.964844 3.871094 256.847656 2.375 C 255.730469 0.882812 253.976562 0.00390625 252.109375 0.00390625 C 229.273438 0.00390625 218.363281 6.230469 209.597656 11.234375 C 202.835938 15.09375 197.496094 18.140625 187.558594 18.140625 C 177.617188 18.140625 172.277344 15.09375 165.515625 11.234375 C 156.75 6.230469 145.84375 0.00390625 123.003906 0.00390625 C 121.136719 0.00390625 119.382812 0.882812 118.265625 2.375 C 117.148438 3.871094 116.804688 5.800781 117.332031 7.589844 C 124.457031 31.632812 133.40625 47.5 145.492188 57.523438 Z M 159.648438 21.492188 C 166.941406 25.652344 174.476562 29.957031 187.558594 29.957031 C 200.636719 29.957031 208.171875 25.652344 215.464844 21.492188 C 222.539062 17.453125 229.820312 13.296875 243.921875 12.136719 C 230.625 50.789062 212.316406 58.851562 187.558594 58.851562 C 162.796875 58.851562 144.488281 50.789062 131.191406 12.136719 C 145.292969 13.296875 152.574219 17.453125 159.648438 21.492188 Z M 159.648438 21.492188 " fill-opacity="1" fill-rule="nonzero"/></svg>