<svg xmlns="http://www.w3.org/2000/svg" xmlns:xlink="http://www.w3.org/1999/xlink" width="500" zoomAndPan="magnify" viewBox="0 0 375 374.999991" height="500" preserveAspectRatio="xMidYMid meet" version="1.0"><path fill="#32B2FF" d="M 17.898438 170.277344 C 21.117188 170.652344 24.394531 170.839844 27.636719 170.839844 C 29.015625 170.839844 30.402344 170.804688 31.785156 170.738281 C 31.210938 176.636719 31.058594 182.597656 31.34375 188.503906 C 31.652344 194.960938 32.476562 201.441406 33.796875 207.773438 C 36.054688 218.609375 45.757812 226.476562 56.863281 226.476562 C 62.828125 226.476562 68.410156 224.261719 72.683594 220.375 C 75.945312 229.757812 84.769531 236.292969 95.132812 236.292969 C 102.5 236.292969 109.363281 232.824219 113.808594 227.21875 C 117.472656 234.605469 125.132812 239.566406 133.679688 239.566406 C 139.171875 239.566406 144.390625 237.53125 148.402344 233.964844 C 151.953125 241.222656 159.367188 246.109375 167.878906 246.109375 C 174.773438 246.109375 180.949219 242.902344 184.9375 237.824219 L 184.9375 372.023438 C 184.9375 373.667969 186.269531 375 187.910156 375 C 189.554688 375 190.886719 373.667969 190.886719 372.023438 L 190.886719 237.824219 C 194.871094 242.902344 201.046875 246.109375 207.941406 246.109375 C 216.453125 246.109375 223.867188 241.222656 227.421875 233.964844 C 231.433594 237.53125 236.648438 239.5625 242.140625 239.5625 C 250.691406 239.5625 258.347656 234.605469 262.011719 227.21875 C 266.457031 232.824219 273.320312 236.292969 280.6875 236.292969 C 291.050781 236.292969 299.875 229.757812 303.140625 220.375 C 307.410156 224.261719 312.992188 226.472656 318.960938 226.472656 C 330.066406 226.472656 339.765625 218.609375 342.027344 207.773438 C 343.347656 201.441406 344.171875 194.957031 344.480469 188.503906 C 344.761719 182.597656 344.609375 176.636719 344.039062 170.738281 C 345.421875 170.804688 346.804688 170.839844 348.1875 170.839844 C 351.425781 170.839844 354.703125 170.652344 357.925781 170.277344 C 367.578125 169.160156 374.855469 161.300781 375.222656 151.589844 C 375.519531 143.777344 375.117188 135.898438 374.03125 128.179688 C 373.507812 124.46875 372.816406 120.734375 371.976562 117.082031 C 369.59375 106.691406 360.441406 99.4375 349.726562 99.4375 C 341.246094 99.4375 333.792969 104.039062 329.847656 111 C 326.082031 104.046875 318.734375 99.4375 310.558594 99.4375 C 302.101562 99.4375 294.722656 104.238281 291.070312 111.324219 C 287.019531 102.257812 277.992188 96.164062 267.660156 96.164062 C 256.753906 96.164062 247.214844 103.1875 243.574219 113.042969 C 238.320312 102.925781 227.726562 96.164062 215.988281 96.164062 C 205.679688 96.164062 196.539062 101.21875 190.886719 108.972656 L 190.886719 2.976562 C 190.886719 1.332031 189.554688 0 187.914062 0 C 186.269531 0 184.9375 1.332031 184.9375 2.976562 L 184.9375 108.976562 C 179.285156 101.21875 170.144531 96.164062 159.835938 96.164062 C 148.097656 96.164062 137.503906 102.925781 132.246094 113.042969 C 128.609375 103.1875 119.070312 96.164062 108.164062 96.164062 C 97.832031 96.164062 88.804688 102.257812 84.753906 111.324219 C 81.101562 104.242188 73.722656 99.4375 65.261719 99.4375 C 57.089844 99.4375 49.738281 104.046875 45.972656 111 C 42.03125 104.039062 34.574219 99.4375 26.09375 99.4375 C 15.378906 99.4375 6.230469 106.691406 3.84375 117.082031 C 3.007812 120.734375 2.316406 124.46875 1.792969 128.179688 C 0.703125 135.898438 0.304688 143.777344 0.601562 151.589844 C 0.96875 161.300781 8.242188 169.160156 17.898438 170.277344 Z M 224.597656 213.515625 C 224.371094 217.648438 224.039062 221.835938 223.617188 225.957031 C 222.785156 234.050781 216.046875 240.15625 207.941406 240.15625 C 199.839844 240.15625 193.101562 234.050781 192.269531 225.953125 C 191.847656 221.835938 191.515625 217.648438 191.289062 213.515625 C 190.984375 208.035156 190.910156 199.382812 190.890625 194.484375 C 199.0625 196.175781 207.390625 197.03125 215.726562 197.03125 C 216.28125 197.03125 216.835938 197.027344 217.390625 197.019531 C 219.914062 196.988281 222.449219 196.863281 224.980469 196.671875 C 225.027344 202.285156 224.90625 207.933594 224.597656 213.515625 Z M 260.171875 203.722656 C 259.898438 209.429688 259.167969 215.167969 258 220.769531 C 256.449219 228.210938 249.78125 233.613281 242.140625 233.613281 C 237.164062 233.613281 232.492188 231.328125 229.425781 227.445312 C 229.464844 227.15625 229.507812 226.859375 229.535156 226.566406 C 229.96875 222.351562 230.308594 218.074219 230.539062 213.847656 C 230.867188 207.953125 230.984375 201.988281 230.921875 196.066406 C 238.707031 194.953125 245.078125 189.574219 247.667969 182.3125 C 251.507812 182.980469 255.386719 183.433594 259.277344 183.691406 C 260.1875 190.320312 260.492188 197.046875 260.171875 203.722656 Z M 332.917969 120.53125 C 333.824219 111.898438 341.050781 105.390625 349.726562 105.390625 C 357.652344 105.390625 364.417969 110.746094 366.179688 118.414062 C 366.980469 121.902344 367.640625 125.46875 368.140625 129.007812 C 369.179688 136.382812 369.5625 143.902344 369.277344 151.363281 C 369.019531 158.121094 363.960938 163.589844 357.242188 164.367188 C 350 165.203125 342.605469 165.015625 335.402344 163.835938 C 335.976562 154.179688 335.78125 144.441406 334.792969 134.835938 C 334.324219 130.28125 333.671875 125.703125 332.851562 121.175781 Z M 334.746094 169.761719 C 335.832031 169.933594 336.917969 170.09375 338.011719 170.222656 C 338.644531 176.195312 338.824219 182.234375 338.539062 188.21875 C 338.242188 194.363281 337.457031 200.53125 336.203125 206.554688 C 334.515625 214.648438 327.265625 220.523438 318.960938 220.523438 C 313.148438 220.523438 307.820312 217.722656 304.515625 212.988281 C 304.871094 208.914062 305.164062 204.804688 305.367188 200.738281 C 305.65625 194.894531 305.789062 188.980469 305.769531 183.101562 C 309.050781 184.441406 312.375 185.144531 315.585938 185.144531 C 318.203125 185.144531 320.75 184.679688 323.136719 183.714844 C 324.675781 183.089844 326.167969 182.226562 327.570312 181.140625 C 331.183594 178.339844 333.703125 174.300781 334.746094 169.761719 Z M 294.609375 120.53125 C 295.054688 112.039062 302.0625 105.390625 310.558594 105.390625 C 318.105469 105.390625 324.691406 110.785156 326.222656 118.222656 C 327.390625 123.894531 328.285156 129.6875 328.875 135.445312 C 329.921875 145.628906 330.058594 155.972656 329.289062 166.191406 C 328.976562 170.300781 327.023438 174.035156 323.929688 176.433594 C 322.957031 177.183594 321.941406 177.777344 320.90625 178.195312 C 313.523438 181.179688 303.375 177.1875 295.824219 168.460938 C 296.078125 167.324219 296.230469 166.15625 296.265625 164.957031 C 296.519531 156.054688 296.277344 147.042969 295.546875 138.167969 C 295.226562 134.289062 294.800781 130.390625 294.292969 126.507812 Z M 293.308594 174.507812 C 295.359375 176.59375 297.539062 178.390625 299.789062 179.890625 C 299.878906 186.726562 299.761719 193.632812 299.421875 200.441406 C 299.199219 204.96875 298.875 209.558594 298.457031 214.074219 C 297.609375 223.347656 289.96875 230.339844 280.6875 230.339844 C 273.578125 230.339844 267.101562 226.027344 264.304688 219.535156 C 265.257812 214.410156 265.867188 209.199219 266.113281 204.003906 C 266.433594 197.3125 266.160156 190.574219 265.308594 183.917969 C 265.675781 183.921875 266.046875 183.929688 266.414062 183.929688 C 270.878906 183.929688 275.386719 183.652344 279.820312 183.105469 C 285.492188 182.402344 290.371094 179.113281 293.308594 174.507812 Z M 248.019531 120.195312 C 248.863281 110.058594 257.492188 102.117188 267.660156 102.117188 C 277.3125 102.117188 285.488281 109.039062 287.101562 118.578125 C 288.222656 125.203125 289.066406 131.960938 289.617188 138.65625 C 290.328125 147.3125 290.5625 156.105469 290.316406 164.789062 C 290.136719 171.09375 285.3125 176.429688 279.089844 177.195312 C 269.085938 178.433594 258.851562 178.171875 248.914062 176.464844 C 250.1875 165.960938 250.480469 155.300781 249.757812 144.753906 C 249.339844 138.65625 248.578125 132.542969 247.496094 126.507812 Z M 190.886719 127.230469 C 190.886719 113.382812 202.148438 102.117188 215.988281 102.117188 C 227.71875 102.117188 238.046875 110.476562 240.539062 121.996094 C 242.183594 129.605469 243.289062 137.398438 243.820312 145.160156 C 244.550781 155.792969 244.222656 166.550781 242.847656 177.128906 C 241.949219 184.011719 236.574219 189.398438 229.773438 190.226562 C 225.652344 190.730469 221.457031 191.011719 217.308594 191.070312 C 208.449219 191.195312 199.566406 190.292969 190.886719 188.398438 Z M 133.679688 233.613281 C 126.042969 233.613281 119.375 228.210938 117.820312 220.769531 C 116.652344 215.164062 115.921875 209.429688 115.652344 203.71875 C 115.332031 197.046875 115.636719 190.320312 116.546875 183.6875 C 120.4375 183.433594 124.316406 182.976562 128.15625 182.308594 C 130.746094 189.570312 137.117188 194.949219 144.902344 196.066406 C 144.839844 201.984375 144.957031 207.953125 145.285156 213.84375 C 145.515625 218.070312 145.855469 222.351562 146.289062 226.5625 C 146.316406 226.859375 146.359375 227.152344 146.398438 227.445312 C 143.332031 231.324219 138.660156 233.613281 133.679688 233.613281 Z M 184.535156 213.515625 C 184.308594 217.652344 183.976562 221.835938 183.554688 225.957031 C 182.722656 234.050781 175.984375 240.15625 167.878906 240.15625 C 159.777344 240.15625 153.039062 234.050781 152.207031 225.957031 C 151.78125 221.835938 151.453125 217.648438 151.222656 213.515625 C 150.914062 207.933594 150.796875 202.285156 150.84375 196.671875 C 153.375 196.863281 155.910156 196.988281 158.433594 197.023438 C 158.988281 197.027344 159.542969 197.035156 160.097656 197.035156 C 168.429688 197.035156 176.761719 196.175781 184.929688 194.484375 C 184.914062 199.382812 184.835938 208.035156 184.535156 213.515625 Z M 132 145.160156 C 132.535156 137.398438 133.636719 129.605469 135.285156 121.996094 C 137.777344 110.476562 148.101562 102.117188 159.835938 102.117188 C 173.675781 102.117188 184.9375 113.382812 184.9375 127.230469 L 184.9375 188.398438 C 176.257812 190.292969 167.378906 191.1875 158.515625 191.070312 C 154.367188 191.011719 150.171875 190.730469 146.050781 190.226562 C 139.25 189.398438 133.871094 184.011719 132.976562 177.128906 C 131.601562 166.550781 131.273438 155.792969 132 145.160156 Z M 86.207031 138.65625 C 86.753906 131.960938 87.601562 125.203125 88.722656 118.582031 C 90.335938 109.039062 98.511719 102.117188 108.164062 102.117188 C 118.332031 102.117188 126.957031 110.058594 127.804688 120.195312 L 128.328125 126.511719 C 127.246094 132.542969 126.484375 138.65625 126.066406 144.753906 C 125.34375 155.300781 125.636719 165.960938 126.910156 176.464844 C 116.972656 178.171875 106.738281 178.433594 96.734375 177.199219 C 90.511719 176.429688 85.6875 171.09375 85.507812 164.789062 C 85.257812 156.105469 85.496094 147.3125 86.207031 138.65625 Z M 96.003906 183.105469 C 100.433594 183.652344 104.945312 183.929688 109.40625 183.929688 C 109.777344 183.929688 110.144531 183.921875 110.515625 183.917969 C 109.664062 190.574219 109.386719 197.3125 109.707031 204.003906 C 109.957031 209.199219 110.566406 214.414062 111.519531 219.539062 C 108.722656 226.027344 102.246094 230.339844 95.136719 230.339844 C 85.855469 230.339844 78.214844 223.347656 77.363281 214.078125 C 76.949219 209.558594 76.625 204.972656 76.398438 200.441406 C 76.058594 193.632812 75.945312 186.726562 76.035156 179.890625 C 78.285156 178.390625 80.460938 176.59375 82.511719 174.507812 C 85.453125 179.113281 90.332031 182.402344 96.003906 183.105469 Z M 46.949219 135.441406 C 47.539062 129.6875 48.433594 123.894531 49.601562 118.222656 C 51.132812 110.785156 57.71875 105.390625 65.261719 105.390625 C 73.761719 105.390625 80.769531 112.039062 81.214844 120.53125 L 81.53125 126.511719 C 81.019531 130.394531 80.59375 134.289062 80.277344 138.167969 C 79.546875 147.042969 79.304688 156.058594 79.558594 164.960938 C 79.59375 166.15625 79.75 167.328125 80 168.464844 C 72.449219 177.1875 62.296875 181.179688 54.917969 178.195312 C 53.882812 177.777344 52.863281 177.183594 51.894531 176.433594 C 48.800781 174.035156 46.847656 170.300781 46.535156 166.191406 C 45.761719 155.972656 45.902344 145.628906 46.949219 135.441406 Z M 48.253906 181.140625 C 49.652344 182.226562 51.144531 183.089844 52.6875 183.714844 C 55.074219 184.679688 57.617188 185.144531 60.238281 185.144531 C 63.449219 185.144531 66.773438 184.441406 70.054688 183.101562 C 70.035156 188.980469 70.167969 194.894531 70.457031 200.738281 C 70.660156 204.808594 70.953125 208.917969 71.308594 212.988281 C 68.003906 217.722656 62.675781 220.523438 56.863281 220.523438 C 48.558594 220.523438 41.308594 214.648438 39.621094 206.558594 C 38.363281 200.53125 37.578125 194.363281 37.285156 188.21875 C 37 182.234375 37.179688 176.195312 37.8125 170.226562 C 38.902344 170.09375 39.992188 169.933594 41.078125 169.761719 C 42.117188 174.300781 44.636719 178.339844 48.253906 181.140625 Z M 7.683594 129.007812 C 8.183594 125.46875 8.839844 121.902344 9.640625 118.414062 C 11.402344 110.746094 18.167969 105.390625 26.09375 105.390625 C 34.769531 105.390625 41.996094 111.898438 42.90625 120.53125 L 42.972656 121.175781 C 42.152344 125.703125 41.5 130.28125 41.03125 134.835938 C 40.042969 144.441406 39.847656 154.179688 40.421875 163.835938 C 33.21875 165.015625 25.824219 165.203125 18.582031 164.367188 C 11.863281 163.589844 6.800781 158.121094 6.546875 151.363281 C 6.261719 143.902344 6.644531 136.382812 7.683594 129.007812 Z M 318.453125 40.503906 C 318.453125 40.402344 318.453125 40.304688 318.453125 40.210938 C 318.441406 38.578125 317.113281 37.257812 315.480469 37.257812 C 313.84375 37.257812 312.515625 38.578125 312.503906 40.210938 C 312.503906 40.304688 312.503906 40.402344 312.503906 40.503906 C 312.484375 42.753906 311.949219 49.300781 306.820312 54.507812 C 302.761719 58.625 297.945312 59.839844 295.433594 60.195312 C 293.96875 60.40625 292.878906 61.660156 292.878906 63.140625 C 292.878906 64.625 293.96875 65.878906 295.433594 66.089844 C 297.945312 66.445312 302.761719 67.660156 306.820312 71.777344 C 311.949219 76.984375 312.484375 83.535156 312.503906 85.78125 C 312.503906 85.882812 312.503906 85.980469 312.503906 86.074219 C 312.515625 87.707031 313.84375 89.027344 315.480469 89.027344 C 317.113281 89.027344 318.441406 87.707031 318.453125 86.074219 C 318.453125 85.980469 318.453125 85.882812 318.453125 85.78125 C 318.472656 83.535156 319.007812 76.984375 324.140625 71.777344 C 328.195312 67.664062 333.011719 66.445312 335.523438 66.089844 C 336.988281 65.878906 338.078125 64.625 338.078125 63.144531 C 338.078125 61.660156 336.988281 60.40625 335.523438 60.195312 C 333.011719 59.839844 328.195312 58.625 324.140625 54.507812 C 319.007812 49.300781 318.472656 42.753906 318.453125 40.503906 Z M 319.902344 67.597656 C 317.972656 69.554688 316.539062 71.636719 315.480469 73.6875 C 314.417969 71.636719 312.984375 69.554688 311.054688 67.597656 C 309.148438 65.660156 307.113281 64.21875 305.136719 63.140625 C 307.113281 62.066406 309.148438 60.625 311.054688 58.6875 C 312.984375 56.726562 314.417969 54.648438 315.480469 52.597656 C 316.539062 54.648438 317.972656 56.726562 319.902344 58.6875 C 321.808594 60.625 323.847656 62.066406 325.820312 63.140625 C 323.84375 64.21875 321.808594 65.660156 319.902344 67.597656 Z M 256.601562 301.742188 C 258.234375 301.742188 259.5625 300.425781 259.574219 298.789062 C 259.578125 298.695312 259.578125 298.601562 259.574219 298.5 C 259.597656 296.25 260.132812 289.699219 265.261719 284.492188 C 269.316406 280.378906 274.136719 279.164062 276.644531 278.804688 C 278.113281 278.597656 279.203125 277.339844 279.203125 275.859375 C 279.203125 274.378906 278.113281 273.121094 276.644531 272.914062 C 274.136719 272.554688 269.316406 271.339844 265.261719 267.226562 C 260.132812 262.019531 259.597656 255.46875 259.574219 253.21875 C 259.574219 253.117188 259.574219 253.023438 259.574219 252.929688 C 259.5625 251.292969 258.234375 249.976562 256.601562 249.976562 C 254.964844 249.976562 253.640625 251.292969 253.625 252.929688 C 253.625 253.023438 253.625 253.121094 253.625 253.222656 C 253.605469 255.46875 253.070312 262.019531 247.941406 267.226562 C 243.882812 271.34375 239.066406 272.554688 236.558594 272.914062 C 235.089844 273.121094 234 274.378906 234 275.859375 C 234 277.34375 235.089844 278.597656 236.558594 278.804688 C 239.066406 279.164062 243.886719 280.378906 247.941406 284.496094 C 253.070312 289.703125 253.605469 296.25 253.625 298.5 C 253.625 298.601562 253.625 298.695312 253.625 298.789062 C 253.640625 300.425781 254.964844 301.742188 256.601562 301.742188 Z M 252.179688 280.316406 C 250.269531 278.378906 248.234375 276.933594 246.261719 275.859375 C 248.234375 274.785156 250.269531 273.339844 252.179688 271.402344 C 254.109375 269.445312 255.539062 267.367188 256.601562 265.316406 C 257.664062 267.367188 259.097656 269.445312 261.023438 271.402344 C 262.933594 273.339844 264.96875 274.785156 266.941406 275.859375 C 264.96875 276.933594 262.933594 278.378906 261.023438 280.316406 C 259.097656 282.273438 257.664062 284.351562 256.601562 286.402344 C 255.539062 284.351562 254.109375 282.273438 252.179688 280.316406 Z M 139.796875 153.675781 C 138.769531 152.390625 138.976562 150.519531 140.261719 149.492188 C 141.542969 148.464844 143.414062 148.671875 144.441406 149.957031 L 154.660156 162.730469 C 155.683594 164.015625 155.476562 165.886719 154.195312 166.914062 C 153.644531 167.355469 152.988281 167.566406 152.335938 167.566406 C 151.464844 167.566406 150.601562 167.183594 150.011719 166.449219 Z M 151.023438 146.761719 C 149.996094 145.476562 150.203125 143.605469 151.488281 142.578125 C 152.773438 141.550781 154.644531 141.757812 155.671875 143.042969 L 163.863281 153.289062 C 164.890625 154.574219 164.683594 156.445312 163.398438 157.472656 C 162.851562 157.914062 162.195312 158.125 161.542969 158.125 C 160.671875 158.125 159.804688 157.742188 159.21875 157.007812 Z M 162.273438 139.875 C 161.246094 138.589844 161.453125 136.71875 162.738281 135.691406 C 164.019531 134.664062 165.894531 134.871094 166.917969 136.15625 L 173.050781 143.824219 C 174.074219 145.105469 173.867188 146.980469 172.585938 148.007812 C 172.035156 148.445312 171.378906 148.65625 170.726562 148.65625 C 169.855469 148.65625 168.992188 148.273438 168.402344 147.539062 Z M 90.964844 156.332031 C 90.011719 154.996094 90.320312 153.136719 91.65625 152.179688 C 92.992188 151.226562 94.851562 151.535156 95.808594 152.871094 L 105.316406 166.183594 C 106.269531 167.523438 105.960938 169.382812 104.625 170.335938 C 104.101562 170.710938 103.496094 170.890625 102.898438 170.890625 C 101.96875 170.890625 101.054688 170.460938 100.476562 169.644531 Z M 102.550781 150.039062 C 101.597656 148.703125 101.90625 146.84375 103.242188 145.886719 C 104.578125 144.929688 106.4375 145.242188 107.394531 146.578125 L 115.019531 157.257812 C 115.976562 158.59375 115.664062 160.453125 114.328125 161.410156 C 113.804688 161.78125 113.199219 161.964844 112.601562 161.964844 C 111.671875 161.964844 110.757812 161.53125 110.179688 160.71875 Z M 12.074219 140.097656 C 11.046875 138.8125 11.253906 136.941406 12.539062 135.914062 C 13.820312 134.886719 15.691406 135.09375 16.71875 136.378906 L 24.914062 146.628906 C 25.941406 147.910156 25.730469 149.785156 24.449219 150.808594 C 23.902344 151.25 23.246094 151.460938 22.59375 151.460938 C 21.71875 151.460938 20.855469 151.078125 20.269531 150.34375 Z M 23.324219 133.210938 C 22.296875 131.925781 22.503906 130.054688 23.789062 129.027344 C 25.070312 128 26.941406 128.207031 27.96875 129.492188 L 34.097656 137.15625 C 35.125 138.441406 34.917969 140.3125 33.632812 141.339844 C 33.085938 141.78125 32.429688 141.992188 31.777344 141.992188 C 30.90625 141.992188 30.039062 141.609375 29.453125 140.875 Z M 51.941406 152.28125 C 50.914062 150.996094 51.121094 149.125 52.40625 148.097656 C 53.6875 147.070312 55.5625 147.28125 56.585938 148.5625 L 64.78125 158.8125 C 65.808594 160.09375 65.601562 161.96875 64.316406 162.996094 C 63.769531 163.433594 63.113281 163.648438 62.460938 163.648438 C 61.589844 163.648438 60.722656 163.265625 60.136719 162.53125 Z M 63.1875 145.394531 C 62.164062 144.109375 62.371094 142.238281 63.652344 141.210938 C 64.9375 140.183594 66.808594 140.394531 67.835938 141.675781 L 73.964844 149.34375 C 74.992188 150.625 74.785156 152.5 73.5 153.527344 C 72.953125 153.964844 72.296875 154.179688 71.644531 154.179688 C 70.769531 154.179688 69.90625 153.796875 69.320312 153.0625 Z M 161.511719 217.011719 L 169.707031 227.261719 C 170.734375 228.542969 170.527344 230.417969 169.242188 231.445312 C 168.695312 231.882812 168.039062 232.097656 167.386719 232.097656 C 166.515625 232.097656 165.648438 231.714844 165.0625 230.980469 L 156.867188 220.730469 C 155.839844 219.449219 156.050781 217.574219 157.332031 216.546875 C 158.613281 215.523438 160.488281 215.726562 161.511719 217.011719 Z M 168.117188 213.84375 C 167.089844 212.5625 167.296875 210.6875 168.582031 209.660156 C 169.863281 208.636719 171.734375 208.84375 172.761719 210.125 L 178.890625 217.792969 C 179.917969 219.074219 179.710938 220.949219 178.425781 221.976562 C 177.878906 222.414062 177.222656 222.628906 176.570312 222.628906 C 175.699219 222.628906 174.832031 222.246094 174.246094 221.511719 Z M 132.796875 215.253906 C 133.824219 216.535156 133.617188 218.410156 132.332031 219.4375 C 131.785156 219.875 131.128906 220.085938 130.476562 220.085938 C 129.605469 220.085938 128.738281 219.707031 128.152344 218.972656 L 121.34375 210.453125 C 120.316406 209.171875 120.523438 207.296875 121.808594 206.269531 C 123.089844 205.242188 124.960938 205.453125 125.988281 206.734375 Z M 140.429688 207.382812 C 141.457031 208.667969 141.25 210.539062 139.964844 211.566406 C 139.417969 212.007812 138.761719 212.21875 138.109375 212.21875 C 137.238281 212.21875 136.371094 211.835938 135.785156 211.101562 L 130.691406 204.730469 C 129.664062 203.445312 129.871094 201.574219 131.15625 200.546875 C 132.4375 199.519531 134.308594 199.726562 135.335938 201.011719 Z M 81.375 199.128906 C 80.347656 197.84375 80.554688 195.972656 81.835938 194.945312 C 83.121094 193.917969 84.992188 194.125 86.019531 195.410156 L 92.832031 203.925781 C 93.855469 205.210938 93.648438 207.082031 92.367188 208.109375 C 91.816406 208.550781 91.160156 208.761719 90.507812 208.761719 C 89.636719 208.761719 88.773438 208.378906 88.183594 207.644531 Z M 90.722656 193.402344 C 89.695312 192.121094 89.902344 190.246094 91.1875 189.21875 C 92.472656 188.195312 94.34375 188.402344 95.367188 189.683594 L 100.464844 196.054688 C 101.492188 197.339844 101.28125 199.210938 100 200.238281 C 99.449219 200.679688 98.792969 200.890625 98.144531 200.890625 C 97.269531 200.890625 96.40625 200.507812 95.816406 199.773438 Z M 43.9375 199.128906 C 42.910156 197.84375 43.117188 195.972656 44.402344 194.945312 C 45.683594 193.917969 47.558594 194.125 48.582031 195.410156 L 55.394531 203.925781 C 56.421875 205.210938 56.214844 207.082031 54.929688 208.109375 C 54.382812 208.550781 53.726562 208.761719 53.074219 208.761719 C 52.199219 208.761719 51.335938 208.378906 50.75 207.644531 Z M 53.289062 193.402344 C 52.261719 192.121094 52.46875 190.246094 53.753906 189.21875 C 55.035156 188.195312 56.90625 188.402344 57.933594 189.683594 L 63.027344 196.054688 C 64.054688 197.339844 63.847656 199.210938 62.5625 200.242188 C 62.015625 200.679688 61.359375 200.890625 60.707031 200.890625 C 59.832031 200.890625 58.96875 200.507812 58.382812 199.773438 Z M 53.289062 193.402344 " fill-opacity="1" fill-rule="nonzero"/></svg>