<svg xmlns="http://www.w3.org/2000/svg" xmlns:xlink="http://www.w3.org/1999/xlink" width="500" zoomAndPan="magnify" viewBox="0 0 375 374.999991" height="500" preserveAspectRatio="xMidYMid meet" version="1.0"><rect x="-37.5" width="450" fill="transparent" y="-37.499999" height="449.999989" fill-opacity="1"/><rect x="-37.5" width="450" fill="transparent" y="-37.499999" height="449.999989" fill-opacity="1"/><rect x="-37.5" width="450" fill="transparent" y="-37.499999" height="449.999989" fill-opacity="1"/><path fill="#32B2FF" d="M 46.164062 178.398438 C 38.148438 178.398438 31.988281 179.695312 24.453125 181.878906 C 15.71875 184.40625 9.628906 192.535156 9.628906 201.664062 L 9.628906 340.863281 C 9.628906 354.78125 20.949219 366.101562 34.867188 366.101562 L 340.429688 366.101562 C 354.347656 366.101562 365.667969 354.78125 365.667969 340.863281 L 365.667969 201.664062 C 365.667969 192.535156 359.566406 184.40625 350.847656 181.878906 C 342.53125 179.476562 335.917969 178.152344 326.59375 178.445312 C 296.960938 179.394531 281.640625 204.085938 277.523438 224.941406 C 269.230469 266.890625 254.359375 322.65625 221.050781 322.65625 C 221.039062 322.65625 221.027344 322.65625 221.027344 322.65625 C 203.722656 322.644531 197.714844 311.601562 193.738281 304.308594 C 190.894531 299.089844 189.746094 297.488281 187.824219 297.546875 C 187.707031 297.558594 187.589844 297.558594 187.472656 297.546875 C 185.640625 297.511719 184.402344 299.089844 181.558594 304.308594 C 177.582031 311.601562 171.574219 322.644531 154.269531 322.65625 C 154.269531 322.65625 154.257812 322.65625 154.246094 322.65625 C 120.9375 322.65625 106.066406 266.890625 97.773438 224.941406 C 93.65625 204.085938 78.335938 179.394531 48.703125 178.445312 C 47.832031 178.410156 46.996094 178.398438 46.164062 178.398438 Z M 340.429688 375.007812 L 34.867188 375.007812 C 16.03125 375.007812 0.722656 359.6875 0.722656 340.863281 L 0.722656 201.664062 C 0.722656 188.59375 9.464844 176.9375 21.980469 173.316406 C 30.910156 170.742188 38.542969 169.1875 48.980469 169.535156 C 83.84375 170.660156 101.765625 199.148438 106.519531 223.214844 C 118.546875 284.136719 134.15625 313.746094 154.246094 313.746094 C 154.257812 313.746094 154.257812 313.746094 154.269531 313.746094 C 166.285156 313.738281 169.902344 307.089844 173.742188 300.050781 C 176.699219 294.597656 180.085938 288.523438 187.648438 288.636719 C 195.347656 288.511719 198.597656 294.597656 201.554688 300.050781 C 205.394531 307.089844 209.011719 313.738281 221.027344 313.746094 C 221.039062 313.746094 221.039062 313.746094 221.050781 313.746094 C 241.140625 313.746094 256.75 284.136719 268.777344 223.214844 C 273.53125 199.148438 291.453125 170.660156 326.316406 169.535156 C 336.789062 169.1875 344.386719 170.742188 353.316406 173.316406 C 365.832031 176.9375 374.574219 188.59375 374.574219 201.664062 L 374.574219 340.863281 C 374.574219 359.6875 359.265625 375.007812 340.429688 375.007812 " fill-opacity="1" fill-rule="nonzero"/><path fill="#32B2FF" d="M 228.996094 244.679688 C 224.601562 266.253906 221.652344 276.273438 213.339844 274.871094 C 208.710938 274.09375 206.367188 251.675781 205.113281 239.636719 C 202.667969 216.253906 200.546875 196.074219 187.648438 196.074219 C 174.75 196.074219 172.640625 216.253906 170.191406 239.636719 C 168.929688 251.675781 166.585938 274.09375 161.957031 274.871094 C 153.675781 276.25 150.695312 266.253906 146.300781 244.679688 C 144.074219 233.742188 141.570312 221.601562 136.917969 211.070312 C 137.265625 211.105469 137.613281 211.164062 137.960938 211.164062 C 140.363281 211.164062 142.753906 210.445312 144.78125 209.027344 C 149.375 205.851562 151.324219 199.773438 148.851562 194.183594 C 147.679688 191.527344 145.394531 189.566406 142.773438 188.289062 C 138.75 186.320312 133.855469 182.109375 129.332031 177.621094 C 117.144531 165.511719 110.578125 148.507812 112.957031 131.496094 C 113.757812 125.730469 115.496094 120.269531 118.382812 115.292969 C 124.761719 104.367188 136.941406 99.601562 149.503906 99.601562 C 157.226562 99.601562 165.101562 101.398438 171.851562 104.679688 C 171.910156 104.714844 172.421875 104.957031 172.582031 105.039062 C 176.457031 106.976562 178.589844 109.144531 180.644531 111.257812 C 183.613281 114.273438 186.664062 117.402344 193.089844 118.03125 C 193.238281 118.042969 193.390625 118.050781 193.527344 118.050781 C 195.789062 118.050781 197.738281 116.335938 197.960938 114.027344 C 198.191406 111.582031 196.40625 109.402344 193.957031 109.167969 C 192.589844 109.03125 191.59375 108.703125 190.6875 108.195312 C 195.023438 107.835938 199.304688 106.710938 203.269531 104.761719 C 221.039062 96.039062 246.589844 97.59375 256.914062 115.292969 C 259.8125 120.28125 261.550781 125.753906 262.351562 131.53125 C 264.683594 148.359375 258.339844 165.246094 246.324219 177.273438 C 241.613281 181.980469 236.453125 186.445312 232.265625 188.40625 C 228.113281 190.355469 225.410156 194.554688 225.367188 199.113281 C 225.332031 203.066406 227.257812 206.777344 230.515625 209.027344 C 232.542969 210.445312 234.933594 211.164062 237.335938 211.164062 C 237.683594 211.164062 238.03125 211.105469 238.378906 211.070312 C 233.726562 221.601562 231.222656 233.742188 228.996094 244.679688 Z M 306.226562 0.285156 C 303.863281 0.144531 301.644531 1.992188 301.496094 4.449219 C 301.414062 5.5625 294.164062 116.777344 290.152344 135.714844 C 287.472656 148.3125 282.847656 159.457031 276.398438 168.851562 C 265.054688 185.367188 252.886719 196.480469 241.207031 200.992188 L 238.460938 202.046875 C 237.078125 202.589844 235.988281 201.988281 235.582031 201.710938 C 235.1875 201.433594 234.261719 200.632812 234.273438 199.179688 C 234.285156 198.035156 234.980469 196.964844 236.046875 196.46875 C 247.945312 190.890625 257.039062 182.792969 264.671875 170.988281 C 272.628906 158.679688 277.824219 143.882812 278.773438 127.945312 C 280.609375 97.222656 283.589844 4.914062 283.589844 4.914062 C 283.679688 2.453125 281.777344 0.378906 279.308594 0.285156 C 276.871094 0.226562 274.785156 2.105469 274.691406 4.566406 C 274.691406 4.566406 271.898438 91.398438 270.054688 124.558594 C 268.894531 119.757812 267.128906 115.140625 264.601562 110.816406 C 251.53125 88.382812 221.15625 86.066406 199.339844 96.769531 C 191.953125 100.398438 183.34375 100.398438 175.957031 96.769531 C 154.140625 86.066406 123.765625 88.382812 110.695312 110.816406 C 108.167969 115.140625 106.402344 119.757812 105.242188 124.546875 C 103.398438 91.203125 100.605469 4.566406 100.605469 4.566406 C 100.511719 2.105469 98.492188 0.238281 95.988281 0.285156 C 93.519531 0.378906 91.617188 2.453125 91.707031 4.914062 C 91.707031 4.914062 94.6875 97.363281 96.535156 128.132812 C 97.472656 143.882812 102.667969 158.679688 110.625 170.988281 C 118.257812 182.792969 127.351562 190.890625 139.25 196.46875 C 140.316406 196.964844 141.011719 198.035156 141.023438 199.179688 C 141.035156 200.632812 140.109375 201.433594 139.714844 201.710938 C 139.308594 201.988281 138.207031 202.589844 136.847656 202.058594 L 134.089844 200.992188 C 122.410156 196.480469 110.242188 185.367188 98.898438 168.851562 C 92.449219 159.457031 87.824219 148.3125 85.144531 135.714844 C 81.132812 116.777344 73.882812 5.5625 73.800781 4.449219 C 73.652344 1.992188 71.433594 0.15625 69.082031 0.285156 C 66.621094 0.449219 64.753906 2.570312 64.917969 5.027344 C 65.21875 9.632812 72.28125 118.007812 76.433594 137.5625 C 79.355469 151.304688 84.449219 163.527344 91.558594 173.898438 C 102.125 189.265625 113.164062 200.085938 124.484375 206.257812 C 125.101562 207.394531 125.714844 208.566406 126.328125 209.667969 C 132.210938 220.117188 135.050781 234.113281 137.578125 246.457031 C 141.335938 264.910156 145.210938 283.941406 160.113281 283.941406 C 161.167969 283.941406 162.273438 283.847656 163.441406 283.652344 C 174.738281 281.75 176.734375 262.65625 179.042969 240.5625 C 180.261719 229.011719 182.777344 204.980469 187.648438 204.980469 C 192.53125 204.980469 195.035156 229.011719 196.253906 240.5625 C 198.5625 262.65625 200.558594 281.75 211.855469 283.652344 C 229.5625 286.632812 233.703125 266.207031 237.71875 246.457031 C 240.246094 234.113281 243.085938 220.117188 248.96875 209.667969 C 249.59375 208.566406 250.207031 207.394531 250.824219 206.246094 C 262.132812 200.074219 273.171875 189.265625 283.738281 173.898438 C 290.847656 163.527344 295.941406 151.304688 298.863281 137.5625 C 303.015625 118.007812 310.078125 9.632812 310.378906 5.027344 C 310.542969 2.570312 308.675781 0.449219 306.226562 0.285156 " fill-opacity="1" fill-rule="nonzero"/></svg>