<svg xmlns="http://www.w3.org/2000/svg" xmlns:xlink="http://www.w3.org/1999/xlink" width="500" zoomAndPan="magnify" viewBox="0 0 375 374.999991" height="500" preserveAspectRatio="xMidYMid meet" version="1.0"><defs><clipPath id="30a78b6848"><path d="M 3 36 L 374 36 L 374 337.6875 L 3 337.6875 Z M 3 36 " clip-rule="nonzero"/></clipPath></defs><g clip-path="url(#30a78b6848)"><path fill="#32B2FF" d="M 57.222656 191.578125 L 55.027344 192.675781 C 53.550781 189.699219 48.867188 190.910156 48.824219 190.917969 L 48.617188 190.976562 L 48.402344 190.976562 C 40.117188 190.285156 38.925781 185.753906 38.878906 185.566406 L 40.074219 185.277344 L 41.257812 184.964844 C 41.296875 185.082031 42.207031 187.9375 48.40625 188.515625 C 49.609375 188.214844 55.0625 187.246094 57.222656 191.578125 Z M 266.886719 198.066406 L 267.347656 195.941406 C 265.054688 196.5 262.726562 196.765625 260.363281 196.738281 C 257.496094 196.75 254.667969 196.414062 251.882812 195.726562 C 249.945312 195.265625 248.132812 194.503906 246.445312 193.445312 L 246.445312 193.476562 C 245.433594 196.53125 240.292969 198.175781 235.941406 198.417969 C 235.597656 198.417969 235.203125 198.449219 234.773438 198.449219 C 231.355469 198.449219 225.550781 197.640625 221.265625 192.871094 C 220.558594 193.996094 219.65625 194.933594 218.5625 195.691406 C 217.472656 196.449219 216.277344 196.960938 214.976562 197.226562 C 211.324219 197.972656 207.640625 198.328125 203.917969 198.300781 C 195.441406 198.300781 185.953125 196.550781 182.59375 191.089844 C 181.800781 189.660156 181.386719 188.125 181.351562 186.488281 C 179.488281 187.378906 176.09375 188.175781 169.164062 188.175781 C 167.6875 188.175781 166.035156 188.140625 164.210938 188.0625 C 163.015625 188.007812 161.839844 187.828125 160.679688 187.519531 C 159.523438 187.210938 158.414062 186.777344 157.351562 186.226562 C 156.285156 185.675781 155.296875 185.015625 154.375 184.246094 C 153.457031 183.476562 152.632812 182.617188 151.902344 181.667969 C 151.320312 180.914062 150.808594 180.113281 150.367188 179.273438 C 149.695312 180.628906 148.847656 181.863281 147.828125 182.980469 C 146.808594 184.097656 145.652344 185.050781 144.363281 185.84375 C 143.074219 186.632812 141.703125 187.230469 140.242188 187.632812 C 138.785156 188.035156 137.300781 188.230469 135.789062 188.214844 C 134.632812 188.210938 133.488281 188.105469 132.347656 187.902344 C 128.707031 187.269531 124.484375 186.375 119.839844 185.238281 C 119.015625 185.035156 118.210938 184.773438 117.429688 184.445312 C 116.648438 184.117188 115.894531 183.726562 115.171875 183.28125 C 114.453125 182.835938 113.769531 182.335938 113.125 181.78125 C 112.484375 181.226562 111.886719 180.625 111.339844 179.976562 C 110.789062 179.328125 110.296875 178.640625 109.855469 177.917969 C 109.414062 177.191406 109.035156 176.433594 108.714844 175.648438 C 108.390625 174.863281 108.132812 174.058594 107.9375 173.230469 C 107.746094 172.402344 107.617188 171.566406 107.554688 170.71875 C 106.570312 173.539062 105.671875 174.800781 105.453125 175.085938 L 104.863281 175.855469 L 103.921875 176.070312 C 101.210938 176.617188 98.476562 176.875 95.710938 176.839844 C 95.261719 176.839844 94.792969 176.839844 94.316406 176.839844 C 93.660156 179.539062 92.863281 182.199219 91.929688 184.816406 L 91.882812 184.933594 C 87.773438 195.441406 79.378906 212.820312 72.84375 223.992188 C 73.964844 225.347656 74.917969 226.8125 75.707031 228.382812 C 75.867188 228.699219 76.011719 229.019531 76.15625 229.339844 C 76.40625 229.058594 76.679688 228.804688 76.980469 228.582031 C 77.480469 228.1875 78.039062 227.933594 78.664062 227.816406 C 79.289062 227.699219 79.902344 227.734375 80.511719 227.921875 C 81.902344 228.351562 84.152344 228.773438 86.542969 229.226562 C 95.972656 231.011719 107.710938 233.234375 107.976562 241.234375 C 107.976562 241.265625 107.976562 241.289062 107.976562 241.320312 L 108.511719 241.320312 C 108.800781 241.320312 115.613281 241.453125 123.03125 242.300781 C 137.363281 243.972656 140.816406 246.871094 142.167969 248.898438 C 142.59375 249.566406 142.882812 250.289062 143.039062 251.066406 C 143.039062 249.542969 143.066406 247.980469 143.117188 246.382812 L 143.1875 244.175781 L 145.355469 243.800781 C 145.449219 243.800781 154.53125 242.214844 163.921875 241.308594 C 174.058594 240.324219 179.722656 240.550781 183.023438 241.351562 C 183.597656 240.109375 184.433594 239.078125 185.535156 238.257812 C 187.039062 237.175781 189.6875 236.21875 193.738281 237.796875 C 197.785156 239.375 198.351562 239.148438 199.636719 238.683594 C 201.164062 238.132812 203.261719 237.375 208.113281 237.617188 C 212.882812 237.855469 216.722656 239.347656 219.558594 242.042969 C 219.53125 240.949219 219.53125 240.175781 219.53125 239.828125 L 219.53125 239.523438 L 219.59375 239.234375 C 220.445312 235.398438 224.390625 228.269531 233.195312 228.757812 C 236.261719 228.929688 239.476562 228.222656 242.585938 227.539062 C 247.832031 226.382812 253.777344 225.078125 256.550781 230.164062 C 256.640625 230.316406 256.734375 230.503906 256.835938 230.714844 C 257.179688 229.308594 257.445312 228.382812 257.480469 228.257812 L 257.679688 227.554688 L 258.207031 227.0625 C 259.460938 225.859375 270.695312 215.375 279.109375 216.496094 C 280.140625 216.652344 281.144531 216.910156 282.125 217.269531 L 282.492188 216.980469 C 283.171875 216.441406 296.6875 205.996094 310.507812 207.675781 L 310.449219 207.546875 C 314.050781 205.996094 313.617188 206.472656 316.640625 205.464844 L 316.824219 205.410156 C 336.484375 199.902344 351.226562 204.054688 356.296875 216.507812 C 365.972656 240.96875 356.078125 271.265625 333.296875 287.003906 L 332.945312 287.222656 C 286.972656 312.070312 237.023438 323.738281 194.21875 331.875 C 177.339844 335.003906 159.484375 337.699219 140.742188 337.699219 C 132.050781 337.71875 123.402344 337.097656 114.796875 335.839844 L 114.730469 335.839844 C 98.574219 333.144531 79.71875 329.367188 62.398438 321.796875 C 44.0625 313.785156 30.027344 302.652344 19.53125 287.800781 L 17.988281 286.246094 L 17.765625 285.902344 C 3.511719 263.769531 0.03125 236.992188 7.964844 210.484375 C 9.09375 206.417969 10.570312 202.484375 12.390625 198.679688 C 11.972656 193.578125 13.542969 186.335938 22.167969 178.65625 L 26.632812 174.050781 L 26.902344 173.621094 L 27.394531 173.207031 L 27.75 172.910156 L 39.542969 160.730469 L 40.964844 161.328125 L 42.058594 160.34375 C 44.261719 158.375 46.496094 156.378906 48.765625 154.351562 C 45.074219 152.449219 42.65625 149.746094 41.746094 146.484375 L 41.746094 146.425781 L 41.703125 146.535156 L 39.847656 146.042969 C 39.308594 145.898438 26.617188 142.445312 20.949219 138.324219 C 19.269531 137.101562 18.367188 134.8125 18.257812 131.519531 C 18.066406 125.738281 20.296875 117.105469 23.253906 110.320312 L 22.921875 109.898438 C 18.449219 104.125 15.820312 98.09375 15.105469 91.992188 L 15.058594 91.597656 L 15.097656 91.199219 C 15.246094 89.726562 18.933594 55.300781 40.570312 41.753906 C 50.832031 35.296875 63.273438 34.691406 77.554688 39.933594 C 95.527344 46.535156 105.035156 51 111.960938 54.257812 C 124.011719 59.917969 126.523438 61.09375 153.246094 62.335938 C 194.460938 64.253906 233.933594 68.101562 263.910156 93.699219 C 281.292969 108.542969 302.300781 108.589844 320.832031 108.628906 C 331.679688 108.65625 341.929688 108.675781 350.160156 111.742188 C 360.585938 115.628906 368.464844 125.5625 371.789062 139.003906 C 374.996094 151.996094 373.105469 164.828125 366.972656 171.6875 C 356.953125 182.882812 350.421875 198.980469 350.359375 199.140625 L 349.253906 201.890625 L 346.335938 201.371094 C 346.195312 201.34375 333.742188 198.078125 326.1875 196.746094 C 323.015625 197.238281 320.832031 198.472656 318.8125 199.609375 C 316.792969 200.746094 314.671875 201.949219 312.054688 201.949219 C 310.597656 201.929688 309.203125 201.613281 307.878906 201 C 304.175781 199.355469 300.363281 198.03125 296.4375 197.027344 C 293.851562 200.117188 289.179688 201.070312 284.394531 201.070312 C 277.394531 201.070312 270.140625 199.035156 268.808594 198.636719 Z M 293.429688 193.777344 L 296.601562 178.402344 C 296.023438 175.980469 295.042969 173.734375 293.652344 171.664062 C 293.335938 171.148438 292.925781 170.726562 292.421875 170.394531 C 291.917969 170.0625 291.367188 169.851562 290.769531 169.761719 C 286.304688 168.96875 279.332031 173.0625 276.285156 175.199219 L 276 176.527344 C 275.644531 182.558594 274.085938 188.332031 272.742188 191.519531 L 271.988281 194.992188 C 278.234375 196.53125 290.566406 198.457031 293.4375 193.785156 Z M 332.066406 192.300781 C 333.273438 192.421875 335.40625 192.484375 336.101562 191.519531 C 337.71875 189.277344 334.304688 181.632812 332.265625 177.070312 C 331.3125 174.929688 330.410156 172.910156 329.808594 171.167969 C 328.9375 168.707031 328.167969 168.265625 327.949219 168.21875 C 327.074219 167.921875 325 169.289062 323.320312 170.390625 C 322.304688 171.066406 321.25 171.753906 320.117188 172.359375 C 315.460938 174.902344 304.878906 177.546875 301.042969 178.453125 C 301.8125 183.039062 301.007812 187.796875 298.628906 193.0625 C 302.390625 194.101562 306.058594 195.414062 309.628906 196.996094 C 312.414062 198.21875 313.933594 197.359375 316.6875 195.800781 C 319.875 194.015625 324.257812 191.542969 332.074219 192.308594 Z M 42.265625 133.683594 C 43.96875 127.039062 46.753906 120.886719 50.621094 115.226562 L 50.695312 115.101562 C 52.269531 112.53125 52.847656 110.109375 45.023438 104.371094 C 39.332031 100.191406 32.765625 103.839844 31.867188 104.371094 C 28.007812 107.777344 22.316406 122.925781 22.597656 131.355469 C 22.664062 133.453125 23.128906 134.519531 23.5 134.800781 C 27.34375 137.597656 35.484375 140.207031 39.136719 141.304688 C 39.824219 139.578125 40.960938 136.804688 42.265625 133.683594 Z M 50.410156 150.320312 C 54.636719 152.625 60.355469 153.066406 62.207031 152.839844 C 62.75 151.632812 63.21875 150.402344 63.613281 149.140625 C 64.339844 146.472656 65.214844 143.546875 66.238281 140.566406 C 67.882812 134.863281 69.75 127.9375 71.453125 121.269531 C 71.097656 120.742188 70.714844 120.117188 70.277344 119.410156 C 68.472656 116.460938 65.449219 111.542969 62.320312 111.09375 C 62.15625 111.070312 61.992188 111.058594 61.828125 111.058594 C 60.785156 111.058594 59.695312 111.550781 58.519531 112.609375 C 56.984375 114.007812 55.621094 115.558594 54.425781 117.261719 L 54.367188 117.371094 C 52.933594 119.714844 49.488281 127.632812 46.40625 134.996094 C 45.421875 139.015625 45.179688 142.699219 45.914062 145.324219 C 46.484375 147.316406 47.992188 149.003906 50.410156 150.320312 Z M 53.300781 241.378906 C 53.058594 242.980469 52.847656 244.328125 52.6875 245.375 C 50.296875 262.1875 52.617188 265.121094 55.28125 268.492188 L 55.804688 269.148438 C 55.832031 269.1875 55.863281 269.226562 55.894531 269.261719 C 56.578125 268.929688 57.863281 267.664062 58.691406 266.882812 C 60.53125 265.101562 62.625 263.085938 65.179688 262.320312 C 65.953125 262 68.265625 259.171875 70.253906 253.835938 C 72.769531 247.074219 74.253906 237.472656 70.882812 230.800781 C 66.828125 222.800781 59.738281 221.777344 56.289062 221.820312 C 56.253906 222.078125 56.21875 222.359375 56.179688 222.660156 C 55.691406 226.300781 54.714844 232.609375 53.300781 241.378906 Z M 47.957031 240.507812 C 49.6875 228.984375 51.566406 214.125 51 210.75 C 50.910156 209.992188 50.625 209.320312 50.144531 208.730469 C 49.664062 208.144531 49.0625 207.726562 48.34375 207.488281 C 47.847656 207.324219 47.339844 207.246094 46.816406 207.25 C 44.507812 207.25 41.691406 208.675781 38.953125 211.289062 C 36.988281 213.167969 35.707031 217.21875 34.90625 222.183594 C 34.425781 224.097656 34.117188 226.039062 33.984375 228.011719 C 33.96875 228.164062 33.96875 228.320312 33.984375 228.472656 C 33.984375 228.484375 33.984375 228.5 33.984375 228.511719 C 34 228.648438 34.03125 228.78125 34.074219 228.910156 C 34.074219 228.949219 34.074219 228.992188 34.113281 229.039062 C 33.648438 235.835938 33.679688 242.632812 34.207031 249.429688 L 34.207031 249.648438 C 34.207031 254.40625 35.1875 255.757812 35.425781 255.835938 C 36.898438 256.328125 42.355469 251.902344 47.121094 245.605469 C 47.175781 245.28125 47.226562 244.953125 47.28125 244.625 C 47.449219 243.457031 47.632812 242.238281 47.839844 240.953125 C 47.914062 240.820312 47.933594 240.679688 47.957031 240.507812 Z M 28.808594 227.71875 C 29.351562 221.300781 30.535156 214.890625 32.902344 210.554688 L 29.464844 202.246094 C 28.058594 202.863281 26.875 203.777344 25.917969 204.980469 C 23.125 208.445312 22.089844 214.269531 22.925781 221.828125 C 23.761719 229.386719 24.636719 234.089844 25.382812 237.109375 Z M 57.085938 208.457031 C 57.664062 206.054688 57.675781 203.644531 57.125 201.238281 C 57.007812 200.617188 56.738281 200.070312 56.3125 199.605469 C 55.5625 199.019531 53.238281 198.773438 50.992188 198.535156 C 46.910156 198.105469 41.328125 197.515625 36.082031 194.359375 C 32.101562 191.957031 28.386719 189.199219 24.9375 186.078125 C 20.8125 190.386719 19.039062 194.6875 19.703125 198.867188 C 19.867188 200.28125 20.195312 201.65625 20.683594 202.992188 C 21.039062 202.4375 21.425781 201.902344 21.84375 201.394531 C 25.660156 196.804688 30.328125 196.332031 30.847656 196.292969 L 32.816406 196.152344 C 32.816406 196.152344 35.058594 201.703125 36.746094 206.03125 C 41.214844 202.347656 45.972656 201.003906 50.019531 202.351562 C 50.832031 202.625 51.59375 203 52.300781 203.480469 C 53.011719 203.960938 53.644531 204.53125 54.199219 205.183594 C 54.75 205.839844 55.207031 206.558594 55.5625 207.335938 C 55.917969 208.117188 56.164062 208.933594 56.292969 209.777344 Z M 59.492188 195.476562 C 60.761719 196.535156 61.605469 197.863281 62.023438 199.460938 C 64.972656 193.78125 67.953125 187.167969 68.75 182.179688 C 64.324219 183.628906 58.09375 184.96875 53.636719 183.125 C 52.511719 182.679688 51.523438 182.027344 50.679688 181.164062 C 49.835938 180.300781 49.203125 179.300781 48.785156 178.167969 C 47.230469 174.023438 43.484375 171.128906 41.078125 169.613281 L 27.085938 184.039062 C 26.667969 184.40625 26.273438 184.777344 25.890625 185.144531 C 28.308594 185.367188 32.796875 186.316406 38.757812 189.894531 C 43.019531 192.453125 47.742188 192.949219 51.535156 193.339844 C 54.777344 193.699219 57.570312 193.992188 59.492188 195.472656 Z M 68.703125 168.980469 C 66.222656 167.398438 63.886719 165.621094 61.695312 163.652344 L 60.570312 162.644531 L 60.835938 161.167969 C 60.886719 160.894531 61.148438 159.453125 61.636719 157.234375 C 61.425781 157.234375 61.210938 157.234375 60.984375 157.234375 C 59.785156 157.226562 58.59375 157.132812 57.410156 156.960938 C 54.148438 159.78125 50.957031 162.644531 47.820312 165.46875 C 50.714844 167.753906 53.933594 171.113281 55.605469 175.589844 C 55.738281 175.988281 56.007812 176.25 56.414062 176.371094 C 58.929688 177.414062 64.503906 176.046875 68.699219 174.441406 Z M 294.40625 224.3125 C 299.855469 228.285156 304.558594 232.578125 305.890625 234.148438 C 305.890625 234.171875 305.929688 234.203125 305.957031 234.226562 L 308.488281 236.402344 C 309.03125 236.875 309.632812 237.257812 310.292969 237.550781 C 310.953125 237.84375 311.640625 238.035156 312.359375 238.121094 C 313.074219 238.207031 313.789062 238.191406 314.496094 238.0625 C 315.207031 237.9375 315.886719 237.710938 316.527344 237.382812 C 320.355469 235.417969 323.261719 232.957031 325.164062 230.007812 C 327.066406 227.054688 328.113281 225.058594 327.832031 223.804688 C 327.339844 221.765625 323.035156 218.976562 316.269531 215.140625 C 306.363281 209.523438 294.011719 215.917969 288.605469 219.359375 Z M 260.492188 240.175781 C 261.347656 242.71875 262.21875 245.554688 262.996094 248.460938 C 268.078125 251.730469 278.671875 254.226562 288.71875 252.886719 C 297.3125 251.738281 300.398438 246.023438 301.328125 243.621094 C 302.417969 240.796875 302.210938 238.628906 301.890625 237.871094 L 291.007812 228.527344 C 286.429688 225.21875 281.496094 222.261719 278.398438 221.847656 C 274.15625 221.28125 266.636719 226.628906 262.484375 230.449219 C 261.632812 233.652344 260.976562 236.894531 260.511719 240.175781 Z M 224.9375 240.175781 C 224.96875 246.078125 225.800781 261.324219 229.359375 266.300781 C 233.039062 271.445312 251.429688 272.652344 259.007812 269.332031 C 259.367188 269.175781 259.617188 268.570312 259.734375 268.21875 C 260.875 264.890625 259.898438 258.316406 258.261719 251.667969 C 256.125 249.859375 254.96875 247.871094 254.820312 245.765625 C 254.746094 244.085938 254.804688 242.410156 255.003906 240.738281 C 254.121094 238.015625 253.058594 235.367188 251.816406 232.789062 C 251.199219 231.65625 249.300781 231.742188 246.277344 232.328125 C 246.210938 232.878906 245.996094 233.359375 245.628906 233.773438 C 245.265625 234.1875 244.8125 234.460938 244.277344 234.59375 C 240.964844 235.367188 238.273438 237.808594 236.71875 239.515625 C 236.503906 239.753906 236.25 239.949219 235.964844 240.097656 C 235.679688 240.246094 235.375 240.339844 235.054688 240.378906 C 234.734375 240.417969 234.417969 240.402344 234.101562 240.328125 C 233.789062 240.253906 233.496094 240.125 233.230469 239.945312 L 233.046875 239.808594 C 232.753906 239.578125 232.519531 239.296875 232.34375 238.964844 C 232.167969 238.636719 232.0625 238.285156 232.035156 237.910156 C 232.003906 237.535156 232.050781 237.171875 232.171875 236.820312 C 232.292969 236.464844 232.480469 236.148438 232.734375 235.875 C 233.222656 235.359375 233.753906 234.792969 234.375 234.21875 C 233.882812 234.21875 233.390625 234.21875 232.898438 234.1875 C 227.140625 233.84375 225.335938 238.832031 224.976562 240.167969 Z M 199.496094 244.34375 C 200.460938 244.816406 201.378906 245.371094 202.25 246 C 202.40625 246.117188 202.550781 246.25 202.679688 246.394531 C 202.808594 246.542969 202.921875 246.703125 203.015625 246.875 C 203.109375 247.046875 203.183594 247.226562 203.238281 247.414062 C 203.292969 247.601562 203.328125 247.792969 203.34375 247.988281 C 203.355469 248.183594 203.347656 248.378906 203.320312 248.574219 C 203.289062 248.765625 203.238281 248.953125 203.167969 249.136719 C 203.097656 249.320312 203.011719 249.492188 202.902344 249.65625 C 202.792969 249.820312 202.671875 249.972656 202.53125 250.105469 L 202.574219 250.171875 L 202.5 250.136719 C 202.363281 250.269531 202.210938 250.382812 202.046875 250.480469 L 201.933594 250.550781 C 201.488281 250.8125 201.003906 250.925781 200.488281 250.890625 C 199.972656 250.855469 199.507812 250.679688 199.097656 250.363281 C 196.851562 248.671875 192.378906 247.238281 188.527344 246.429688 C 189.535156 249.378906 189.820312 253.3125 189.628906 257.574219 C 193.558594 269.996094 199.949219 282.414062 205.40625 287.539062 C 206.304688 288.390625 206.917969 288.390625 207.613281 288.117188 C 212.402344 286.238281 218.757812 271.683594 219.535156 260.792969 C 220.003906 254.226562 218.945312 249.433594 216.394531 246.53125 C 214.472656 244.359375 211.671875 243.207031 207.84375 243.015625 C 204.015625 242.824219 202.691406 243.324219 201.453125 243.769531 C 200.824219 244.011719 200.179688 244.199219 199.515625 244.332031 Z M 159.117188 287.226562 C 164.523438 291.03125 170.652344 289.496094 173.816406 288.242188 C 175.589844 287.539062 178.382812 283.953125 180.894531 275.992188 C 182.714844 270.199219 183.820312 264.273438 184.210938 258.210938 C 183.183594 254.886719 182.347656 251.660156 181.753906 248.707031 L 181.714844 248.503906 L 181.714844 248.292969 C 181.695312 247.730469 181.707031 247.171875 181.75 246.609375 C 179.785156 246.117188 174.964844 245.625 163.5625 246.769531 C 157.421875 247.386719 151.527344 248.273438 148.460938 248.757812 C 148.042969 273.949219 153.980469 283.585938 159.117188 287.226562 Z M 112.816406 278.292969 C 113.761719 279.8125 114.964844 281.078125 116.4375 282.09375 C 117.90625 283.113281 119.515625 283.792969 121.269531 284.140625 C 123.238281 284.515625 126.265625 282.019531 129.222656 277.644531 C 132.386719 272.757812 134.804688 267.527344 136.46875 261.949219 C 138.433594 255.296875 137.996094 252.394531 137.683594 251.902344 C 137.5 251.636719 135.542969 249.21875 122.445312 247.6875 C 117.757812 247.136719 113.226562 246.890625 110.648438 246.789062 C 107.015625 264.503906 109.789062 273.683594 112.816406 278.292969 Z M 108.300781 281.242188 C 106.132812 277.941406 104.703125 273.820312 104.019531 268.984375 C 100.863281 279.859375 97 285.832031 92.53125 286.726562 C 91.175781 287.015625 89.894531 287.507812 88.695312 288.203125 C 87.082031 289.054688 85.707031 289.519531 84.363281 289.519531 C 81.339844 289.519531 78.519531 287.136719 73.707031 281.359375 L 73.128906 280.664062 L 73.082031 279.757812 C 73.082031 279.660156 72.6875 271.277344 72.625 261.511719 C 71.121094 264.128906 69.097656 266.753906 66.730469 267.460938 C 65.421875 267.855469 63.839844 269.386719 62.449219 270.734375 C 60.429688 272.699219 58.34375 274.707031 55.761719 274.707031 L 55.414062 274.707031 C 54.632812 274.632812 53.902344 274.398438 53.222656 274.003906 C 52.546875 273.609375 51.980469 273.089844 51.53125 272.445312 L 51.039062 271.820312 C 47.992188 267.964844 45.945312 264.410156 46.316406 254.863281 C 43.074219 258.136719 39.066406 261.230469 35.503906 261.257812 C 34.910156 261.257812 34.332031 261.167969 33.769531 260.980469 C 28.90625 259.378906 28.855469 252.269531 28.855469 249.769531 C 28.785156 248.9375 28.644531 246.945312 28.535156 244.246094 L 27.550781 246.953125 L 25.65625 246.953125 C 22.863281 246.953125 19.953125 243.980469 17.558594 222.414062 C 17.097656 218.730469 17.128906 215.050781 17.652344 211.378906 C 17.136719 210.78125 16.667969 210.1875 16.230469 209.582031 C 15.90625 210.566406 15.609375 211.550781 15.34375 212.535156 L 15.308594 212.636719 C 8.054688 236.84375 11.136719 261.25 23.984375 281.414062 L 25.398438 282.835938 L 25.589844 283.105469 C 47.667969 314.523438 83.804688 322.882812 115.949219 328.246094 C 143.167969 332.273438 168.96875 328.738281 192.804688 324.308594 C 237.074219 315.890625 284.222656 304.761719 329.117188 280.539062 C 348.921875 266.738281 357.546875 240.457031 349.1875 219.316406 C 344.742188 208.390625 329.472656 210.269531 321.757812 212.015625 C 328.804688 216.152344 332.203125 218.902344 333.0625 222.472656 C 333.917969 225.960938 332.039062 229.257812 329.679688 232.898438 C 327.261719 236.648438 323.65625 239.757812 318.964844 242.15625 C 318.066406 242.617188 317.121094 242.964844 316.136719 243.199219 C 315.152344 243.433594 314.152344 243.546875 313.140625 243.542969 C 312.128906 243.535156 311.132812 243.40625 310.148438 243.15625 C 309.167969 242.90625 308.230469 242.542969 307.335938 242.066406 C 307.132812 243.226562 306.820312 244.359375 306.398438 245.460938 C 305.128906 248.777344 300.9375 256.675781 289.433594 258.210938 C 287.296875 258.492188 285.152344 258.628906 283 258.625 C 276.433594 258.625 269.777344 257.402344 264.570312 255.28125 C 265.664062 261.003906 266.046875 266.414062 264.835938 269.921875 C 263.9375 272.554688 262.339844 273.71875 261.160156 274.234375 C 257.90625 275.660156 252.5 276.527344 246.78125 276.527344 C 238.054688 276.527344 228.59375 274.511719 224.949219 269.394531 C 224.578125 268.867188 224.25 268.3125 223.964844 267.734375 C 221.753906 278.117188 216.289062 290.484375 209.597656 293.105469 C 208.933594 293.375 208.246094 293.542969 207.53125 293.605469 C 206.820312 293.667969 206.113281 293.625 205.410156 293.476562 C 204.710938 293.328125 204.046875 293.078125 203.421875 292.734375 C 202.792969 292.386719 202.230469 291.953125 201.734375 291.4375 C 196.820312 286.820312 191.972656 278.277344 188.183594 269.15625 C 187.625 271.992188 186.921875 274.792969 186.070312 277.554688 C 184.164062 283.597656 180.835938 291.226562 175.828125 293.207031 C 172.988281 294.359375 170.039062 294.941406 166.980469 294.964844 C 165.027344 294.992188 163.113281 294.726562 161.242188 294.160156 C 159.371094 293.59375 157.632812 292.761719 156.019531 291.65625 C 148.15625 286.125 143.84375 274.363281 143.148438 256.628906 C 142.226562 264.113281 137.980469 274.246094 133.90625 280.34375 C 129.015625 287.71875 124.726562 289.574219 121.652344 289.574219 C 121.183594 289.574219 120.714844 289.53125 120.253906 289.441406 C 115.332031 288.515625 111.199219 285.683594 108.300781 281.261719 Z M 78.019531 257.429688 C 77.96875 266.804688 78.3125 275.808594 78.4375 278.632812 C 79.871094 280.332031 82.59375 283.4375 84.15625 284.082031 C 84.527344 284.234375 84.621094 284.273438 86.15625 283.457031 C 87.824219 282.511719 89.59375 281.835938 91.464844 281.441406 C 92.941406 281.148438 96.109375 277.046875 98.980469 266.941406 C 101.390625 258.433594 102.796875 248.410156 102.5625 241.398438 C 102.441406 237.722656 91.019531 235.558594 85.527344 234.511719 C 83.441406 234.117188 81.570312 233.765625 80.058594 233.382812 C 79.417969 235.023438 78.113281 240.429688 78.019531 257.429688 Z M 87.726562 176.203125 C 83.671875 175.554688 79.757812 174.425781 75.980469 172.816406 L 75.980469 177.628906 L 76.023438 177.628906 C 76.023438 177.960938 76.023438 178.304688 75.980469 178.652344 L 75.980469 179.234375 L 75.917969 179.257812 C 74.894531 188.46875 65.878906 203.527344 61.941406 210.433594 C 61.546875 211.972656 60.832031 213.347656 59.804688 214.558594 C 59.238281 215.25 58.511719 215.609375 57.621094 215.640625 C 57.1875 215.636719 56.773438 215.535156 56.386719 215.335938 C 56.386719 215.671875 56.347656 216.019531 56.324219 216.375 C 60.058594 216.367188 63.570312 217.253906 66.855469 219.035156 C 73.042969 208.265625 80.910156 191.921875 84.722656 182.195312 C 85.355469 180.382812 85.996094 178.417969 86.542969 176.347656 C 86.695312 176.347656 86.847656 176.335938 87 176.3125 C 87.25 176.257812 87.496094 176.234375 87.734375 176.203125 Z M 105.542969 143.933594 C 105.542969 134.519531 105.472656 129.074219 104.066406 126.535156 C 102.941406 124.5 100.375 123.695312 94.167969 121.898438 C 92.722656 121.476562 91.082031 121.003906 89.253906 120.421875 C 88.332031 120.132812 87.394531 120.054688 86.4375 120.195312 C 85.480469 120.332031 84.605469 120.671875 83.804688 121.214844 C 74.789062 126.722656 68.5 150.203125 66.449219 160.558594 C 68.855469 162.605469 71.449219 164.378906 74.226562 165.878906 C 77.003906 167.382812 79.902344 168.585938 82.929688 169.484375 C 85.957031 170.382812 89.046875 170.957031 92.191406 171.214844 C 95.339844 171.46875 98.480469 171.394531 101.609375 170.996094 C 102.714844 168.667969 105.542969 161.144531 105.542969 143.933594 Z M 115.160156 139.890625 C 120.257812 130.921875 127.511719 126.808594 136.128906 127.96875 C 142.222656 128.792969 146.984375 131.648438 150.289062 136.441406 C 153.0625 140.472656 154.398438 145.371094 154.910156 150.074219 L 155.035156 149.824219 C 155.492188 149.066406 166.339844 131.332031 178.839844 137.808594 C 184.550781 140.757812 186.621094 149.382812 187.347656 156.074219 C 187.558594 157.984375 187.683594 160.148438 187.714844 162.414062 C 187.972656 161.84375 188.207031 161.371094 188.34375 161.027344 C 188.929688 159.65625 197.402344 140.371094 210.09375 143.257812 C 216.644531 144.734375 221.066406 149.125 223.496094 154.5 C 227.621094 151.941406 233.898438 148.859375 239.308594 149.582031 C 240.671875 149.753906 241.941406 150.191406 243.121094 150.894531 C 244.300781 151.601562 245.289062 152.511719 246.085938 153.628906 C 247.769531 155.960938 248.746094 159.183594 249.238281 162.796875 C 255.03125 158.621094 265.328125 152.925781 271.570312 159.503906 C 273.449219 161.46875 274.761719 164.175781 275.46875 167.503906 C 275.660156 168.410156 275.804688 169.324219 275.902344 170.242188 C 279.621094 167.917969 286.199219 164.503906 291.558594 165.464844 C 292.75 165.660156 293.847656 166.089844 294.851562 166.757812 C 295.855469 167.421875 296.679688 168.265625 297.324219 169.285156 C 298.355469 170.859375 299.214844 172.519531 299.902344 174.269531 C 303.410156 173.441406 313.84375 170.851562 318.058594 168.554688 C 319.039062 168.019531 320.023438 167.382812 320.957031 166.757812 C 323.667969 164.972656 326.480469 163.121094 329.355469 164.09375 C 331.324219 164.753906 332.796875 166.605469 333.921875 169.742188 C 334.472656 171.296875 335.34375 173.242188 336.257812 175.300781 C 339.207031 181.929688 342.273438 188.765625 340.1875 193.125 C 341.800781 193.25 343.363281 193.417969 344.792969 193.667969 C 347.207031 188.308594 353.148438 176.179688 361.558594 166.800781 C 365.984375 161.84375 367.300781 151.121094 364.734375 140.734375 C 362.007812 129.667969 355.773438 121.589844 347.644531 118.558594 C 340.636719 115.949219 331.023438 115.929688 320.839844 115.902344 C 302.035156 115.863281 278.625 115.808594 259.203125 99.226562 C 230.929688 75.109375 194.347656 71.546875 152.921875 69.621094 C 124.761719 68.308594 121.710938 66.875 108.882812 60.855469 C 102.0625 57.65625 92.71875 53.269531 75.070312 46.777344 C 63.03125 42.351562 52.730469 42.734375 44.464844 47.90625 C 26.964844 58.851562 22.839844 87.839844 22.402344 91.535156 C 22.929688 95.46875 24.523438 99.375 27.128906 103.253906 C 27.730469 102.402344 28.421875 101.636719 29.203125 100.949219 L 29.414062 100.796875 C 29.808594 100.539062 39.121094 94.644531 47.601562 100.863281 C 51.128906 103.457031 54.304688 106.273438 55.492188 109.535156 L 55.691406 109.347656 C 58.035156 107.28125 60.488281 106.425781 62.988281 106.796875 C 68.113281 107.5625 71.660156 113.320312 74.003906 117.125 C 74.464844 117.914062 74.964844 118.679688 75.507812 119.414062 L 76.214844 120.265625 L 75.980469 121.195312 C 77.382812 119.390625 79.046875 117.863281 80.96875 116.621094 C 82.425781 115.675781 84.011719 115.085938 85.734375 114.851562 C 87.453125 114.617188 89.140625 114.757812 90.796875 115.28125 C 92.566406 115.820312 94.1875 116.261719 95.621094 116.699219 C 102.398438 118.667969 106.484375 119.84375 108.742188 123.910156 C 110.804688 127.632812 110.898438 133.035156 110.898438 143.933594 C 110.898438 146.390625 110.839844 148.644531 110.742188 150.75 C 111.753906 146.945312 113.21875 143.324219 115.140625 139.890625 Z M 148.886719 163.292969 C 150.246094 157.511719 150.550781 146.402344 145.8125 139.515625 C 143.378906 135.980469 139.96875 133.957031 135.386719 133.339844 C 129.074219 132.484375 123.867188 135.554688 119.898438 142.464844 C 117.859375 146.140625 116.402344 150.03125 115.523438 154.140625 L 113.066406 167.640625 C 112.949219 168.308594 112.890625 168.980469 112.898438 169.660156 C 112.90625 170.335938 112.976562 171.007812 113.109375 171.671875 C 113.246094 172.335938 113.441406 172.984375 113.695312 173.609375 C 113.953125 174.238281 114.265625 174.835938 114.632812 175.402344 C 115.003906 175.972656 115.421875 176.5 115.890625 176.988281 C 116.363281 177.476562 116.871094 177.917969 117.425781 178.3125 C 117.976562 178.703125 118.5625 179.039062 119.175781 179.320312 C 119.792969 179.601562 120.429688 179.824219 121.089844 179.984375 C 125.628906 181.09375 129.71875 181.953125 133.242188 182.582031 C 141.730469 184.058594 144.96875 178.003906 145.460938 176.960938 C 145.761719 175.910156 147.125 170.789062 148.886719 163.292969 Z M 179.359375 181.417969 C 181.15625 179.746094 183.382812 166.855469 181.816406 155.25 C 180.902344 148.542969 178.917969 143.9375 176.363281 142.617188 C 168.828125 138.703125 160.589844 151.113281 159.726562 152.472656 C 157.292969 157.875 155.425781 163.464844 154.128906 169.246094 C 154.042969 169.636719 153.980469 170.03125 153.9375 170.433594 C 153.894531 170.832031 153.875 171.230469 153.875 171.632812 C 153.878906 172.035156 153.902344 172.433594 153.945312 172.832031 C 153.992188 173.230469 154.058594 173.628906 154.148438 174.019531 C 154.234375 174.410156 154.34375 174.796875 154.476562 175.175781 C 154.605469 175.554688 154.753906 175.925781 154.925781 176.289062 C 155.097656 176.652344 155.289062 177.007812 155.496094 177.347656 C 155.707031 177.691406 155.933594 178.023438 156.175781 178.339844 C 156.421875 178.65625 156.683594 178.960938 156.960938 179.25 C 157.238281 179.539062 157.53125 179.8125 157.839844 180.070312 C 158.148438 180.328125 158.46875 180.566406 158.804688 180.789062 C 159.136719 181.011719 159.484375 181.214844 159.839844 181.402344 C 160.195312 181.585938 160.558594 181.75 160.933594 181.894531 C 161.308594 182.039062 161.6875 182.164062 162.078125 182.269531 C 162.464844 182.371094 162.855469 182.453125 163.253906 182.515625 C 163.648438 182.574219 164.046875 182.613281 164.449219 182.632812 C 176.808594 183.191406 179.121094 181.59375 179.339844 181.410156 Z M 219.394531 176.335938 C 219.550781 173.714844 219.710938 171.003906 220.089844 168.59375 C 221.417969 160.195312 217.996094 150.609375 208.894531 148.539062 C 208.445312 148.4375 207.988281 148.386719 207.527344 148.386719 C 199.761719 148.386719 193.375 163.023438 193.308594 163.179688 L 193.265625 163.269531 C 188.84375 172.808594 185.265625 185.074219 187.21875 188.253906 C 189.972656 192.726562 204.386719 194.046875 213.820312 191.953125 C 218.160156 190.976562 218.859375 184.859375 219.375 176.332031 Z M 241.425781 191.460938 C 241.648438 190.699219 241.96875 189.332031 242.3125 187.570312 C 242.277344 187.351562 242.242188 187.125 242.222656 186.902344 L 242.445312 186.902344 C 244.011719 178.566406 245.886719 162.660156 241.707031 156.851562 C 241.347656 156.328125 240.890625 155.902344 240.34375 155.578125 C 239.796875 155.253906 239.203125 155.058594 238.570312 154.992188 C 234.582031 154.4375 228.882812 157.453125 225.207031 159.867188 C 225.855469 163.050781 225.929688 166.246094 225.433594 169.457031 C 225.09375 171.609375 224.941406 174.074219 224.789062 176.679688 C 224.589844 179.976562 224.371094 183.589844 223.640625 186.871094 C 225.425781 190.191406 228.285156 192.203125 232.152344 192.851562 C 236.6875 193.589844 240.5 192.148438 241.40625 191.453125 Z M 268.605469 190.246094 L 271.667969 176.015625 C 271.835938 173.46875 271.671875 170.941406 271.175781 168.433594 C 270.640625 165.902344 269.703125 163.910156 268.375 162.53125 C 263.730469 157.613281 253.632812 164.765625 249.589844 168.003906 C 249.789062 175.566406 248.539062 183.742188 247.527344 188.789062 C 248.570312 189.816406 249.792969 190.550781 251.191406 190.992188 C 257.691406 193.367188 266.828125 192.261719 268.175781 190.992188 C 268.328125 190.75 268.464844 190.5 268.585938 190.238281 Z M 269.265625 236.382812 C 270.371094 237.15625 271.65625 238.09375 271.359375 238.09375 C 271.960938 238.09375 273.960938 238.761719 275.292969 239.203125 C 277.917969 240.078125 280.734375 241.019531 283.089844 241.019531 C 283.792969 241.027344 284.480469 240.925781 285.152344 240.714844 C 285.488281 240.59375 285.765625 240.398438 285.992188 240.121094 C 286.21875 239.847656 286.359375 239.53125 286.410156 239.179688 C 286.460938 238.828125 286.417969 238.488281 286.28125 238.160156 C 286.140625 237.828125 285.929688 237.558594 285.640625 237.351562 C 284.984375 236.859375 284.296875 236.367188 283.84375 236.003906 C 283.535156 235.769531 283.1875 235.636719 282.800781 235.613281 C 281.40625 235.550781 278.484375 234.574219 276.976562 234.074219 C 273.46875 232.898438 271.148438 232.105469 269.328125 233.183594 C 269.195312 233.265625 269.070312 233.367188 268.960938 233.480469 C 268.851562 233.59375 268.753906 233.71875 268.675781 233.855469 C 268.597656 233.992188 268.535156 234.136719 268.492188 234.289062 C 268.449219 234.441406 268.425781 234.597656 268.421875 234.757812 C 268.417969 234.914062 268.433594 235.074219 268.46875 235.226562 C 268.503906 235.382812 268.554688 235.53125 268.628906 235.671875 C 268.699219 235.8125 268.789062 235.941406 268.894531 236.0625 C 268.996094 236.179688 269.117188 236.285156 269.246094 236.375 Z M 316.097656 221.355469 L 316.203125 219.914062 C 316.226562 219.65625 316.195312 219.402344 316.117188 219.152344 C 316.035156 218.90625 315.910156 218.683594 315.742188 218.484375 C 315.574219 218.285156 315.375 218.125 315.140625 218.007812 C 314.910156 217.886719 314.664062 217.816406 314.40625 217.796875 C 309.488281 217.304688 307.355469 216.648438 306.542969 216.289062 C 306.242188 216.164062 305.925781 216.113281 305.601562 216.132812 C 305.070312 216.171875 304.1875 216.191406 303.359375 216.203125 C 303.191406 216.203125 303.023438 216.230469 302.859375 216.273438 C 302.695312 216.320312 302.542969 216.386719 302.394531 216.472656 C 302.25 216.558594 302.117188 216.660156 301.996094 216.78125 C 301.875 216.902344 301.773438 217.035156 301.6875 217.183594 C 301.601562 217.332031 301.539062 217.484375 301.492188 217.648438 C 301.449219 217.8125 301.425781 217.980469 301.421875 218.152344 C 301.421875 218.320312 301.441406 218.488281 301.484375 218.652344 C 301.527344 218.816406 301.585938 218.976562 301.671875 219.125 L 301.671875 219.152344 C 302.617188 220.671875 304.855469 222.320312 313.914062 223.179688 C 314.179688 223.207031 314.441406 223.183594 314.695312 223.101562 C 314.949219 223.023438 315.179688 222.898438 315.382812 222.726562 C 315.585938 222.554688 315.75 222.347656 315.871094 222.109375 C 315.988281 221.871094 316.058594 221.617188 316.074219 221.351562 Z M 316.097656 221.355469 " fill-opacity="1" fill-rule="nonzero"/></g></svg>