<svg xmlns="http://www.w3.org/2000/svg" xmlns:xlink="http://www.w3.org/1999/xlink" width="500" zoomAndPan="magnify" viewBox="0 0 375 374.999991" height="500" preserveAspectRatio="xMidYMid meet" version="1.0"><path fill="#0145E8" d="M 36.417969 217.535156 C 38.300781 210.589844 39.289062 203.472656 40.773438 196.464844 C 32.367188 199.585938 25.515625 196.84375 20.453125 191.164062 C 19.613281 195.746094 18.679688 200.304688 18.019531 204.933594 C 17.011719 212.078125 14.761719 223.664062 18.996094 230.195312 C 26.550781 241.882812 34.824219 223.507812 36.417969 217.535156 Z M 38.167969 150.183594 C 38.167969 149.488281 38.191406 148.722656 38.21875 147.953125 C 32.230469 139.507812 21.867188 128.957031 18.019531 143.6875 C 16.207031 150.660156 15.988281 158.066406 16.878906 165.210938 C 18.8125 180.308594 26.636719 197.878906 42.949219 187.8125 C 38.59375 176.285156 37.902344 162.175781 38.167969 150.183594 Z M 73.960938 204.09375 C 74.058594 200.597656 74.144531 197.515625 74.21875 195.136719 C 66.25 198.574219 56.84375 201.15625 50.152344 197.464844 C 49.519531 202.058594 48.800781 206.617188 48.414062 211.222656 C 48 216.132812 45.542969 232.207031 51.671875 234.792969 C 61.867188 239.105469 68.742188 223.714844 71.226562 216.4375 C 72.636719 212.269531 73.402344 208.1875 73.960938 204.09375 Z M 76.96875 148.1875 C 77.464844 145.125 78.183594 141.691406 79.207031 138.277344 C 73.960938 128.664062 55.578125 111.808594 48.414062 128.53125 C 46.089844 133.964844 45.164062 140.007812 44.921875 146.054688 C 45.164062 146.746094 45.117188 147.417969 44.847656 148.027344 C 44.8125 150.925781 44.847656 153.828125 44.957031 156.628906 C 45.296875 164.113281 45.75 171.8125 47.367188 179.164062 C 51.515625 198.097656 65.847656 192.238281 78.523438 185.632812 C 74.097656 174.128906 75.179688 159.347656 76.96875 148.1875 Z M 109 203.632812 C 108.953125 202.925781 108.90625 202.277344 108.84375 201.667969 C 99.402344 202.753906 90.070312 201.558594 83.964844 194.796875 C 83.292969 194.054688 82.671875 193.273438 82.089844 192.46875 C 81.75 194.664062 81.480469 196.820312 81.214844 198.976562 C 81.382812 211.40625 81.773438 223.421875 80.871094 235.65625 C 80.519531 240.628906 78.523438 253.339844 85.738281 254.582031 C 89.707031 255.25 93.269531 250.730469 95.207031 247.902344 C 99.839844 241.101562 103.527344 233.523438 106.082031 225.710938 C 108.429688 218.570312 108.34375 211.066406 109 203.632812 Z M 128.894531 146.855469 C 130.890625 132.183594 103.453125 115.113281 92.222656 127.542969 C 84.570312 136.011719 82.867188 149.171875 82.578125 160.164062 C 82.308594 170.851562 81.382812 189.496094 94.21875 193.46875 C 105.339844 196.929688 117.25 193.761719 128.019531 189.945312 C 127.519531 188.644531 127.070312 187.289062 126.765625 185.816406 C 124.636719 175.75 126.605469 163.769531 128.078125 153.695312 C 128.359375 151.867188 128.636719 150.027344 128.96875 148.160156 C 128.871094 147.757812 128.84375 147.332031 128.894531 146.855469 Z M 152.328125 203.082031 C 152.328125 202.972656 152.375 202.886719 152.375 202.804688 C 149.664062 202.484375 146.925781 202.195312 144.210938 201.960938 C 138.601562 201.476562 134.429688 199.316406 131.472656 195.855469 C 127.03125 197.453125 121.667969 199.21875 116.070312 200.464844 C 115.949219 201.132812 115.839844 201.828125 115.730469 202.5 C 117.359375 216.132812 118.320312 229.929688 121.558594 243.25 C 122.617188 247.609375 124.269531 258.894531 130.753906 258.347656 C 134.878906 258.015625 137.859375 254.3125 139.855469 251.023438 C 148.921875 236.082031 150.988281 220.121094 152.328125 203.082031 Z M 182.683594 255.605469 C 190.214844 241.859375 191.492188 225.554688 191.40625 210.003906 C 191.332031 208.640625 191.273438 207.335938 191.175781 206.105469 C 181.125 206.324219 171.195312 205.128906 161.234375 203.898438 C 160.40625 216.367188 163.007812 228.1875 164.261719 240.675781 C 164.957031 247.453125 165.210938 259.164062 173.863281 261.136719 C 178.058594 262.101562 180.808594 259.003906 182.683594 255.605469 Z M 197.441406 199.023438 C 197.125 186.425781 197.136719 173.800781 196.332031 161.1875 C 196.296875 160.785156 196.273438 160.359375 196.246094 159.933594 C 196.089844 159.507812 195.992188 159.007812 196.066406 158.433594 C 196.089844 158.25 196.113281 158.09375 196.113281 157.933594 C 195.480469 147.648438 194.628906 136.765625 188.910156 127.96875 C 175.566406 107.363281 147.53125 110.605469 139.5625 133.914062 C 134.636719 148.367188 131.070312 167.050781 133.042969 182.402344 C 134.855469 196.367188 146.984375 195.699219 158.277344 196.820312 C 158.8125 196.757812 159.371094 196.820312 159.871094 197.003906 C 160.222656 197.027344 160.585938 197.0625 160.917969 197.113281 C 173.144531 198.769531 185.117188 200.074219 197.441406 199.023438 Z M 227.84375 212.90625 C 227.832031 211.039062 227.808594 209.152344 227.757812 207.261719 C 218.21875 207.898438 208.742188 207.980469 199.09375 206.617188 C 198.691406 206.542969 198.375 206.433594 198.085938 206.277344 C 198.085938 207.238281 198.109375 208.1875 198.132812 209.152344 C 198.621094 217.109375 199.007812 225.101562 200.371094 232.9375 C 202.027344 242.222656 204.738281 258.015625 214.523438 262.417969 C 229.171875 269.019531 226.835938 238.421875 226.6875 232.355469 C 226.53125 225.820312 227.308594 219.398438 227.84375 212.90625 Z M 254.902344 198.171875 C 263.625 195.515625 262.96875 178.066406 262.589844 171.082031 C 262.140625 162.648438 260.914062 154.207031 258.261719 146.136719 C 255.925781 139.070312 253.976562 129.761719 249.851562 123.519531 C 244.5625 115.527344 234.753906 115.050781 226.457031 118.195312 C 218 121.386719 208.828125 127.042969 206.152344 136.351562 C 204.519531 142.066406 203.875 147.894531 203.269531 153.753906 C 205.007812 169.460938 203.828125 186.109375 204.179688 200.5 C 213.476562 201.511719 222.710938 201.132812 232.042969 200.28125 C 239.195312 199.609375 248.003906 200.257812 254.902344 198.171875 Z M 260.839844 250.511719 C 268.980469 236.386719 269.050781 216.339844 265.683594 200.660156 C 265.304688 200.4375 264.941406 200.171875 264.5625 199.925781 C 264.515625 199.988281 264.453125 200.074219 264.402344 200.144531 C 258.234375 206.617188 248.257812 205.519531 240.046875 206.277344 C 238.367188 206.433594 236.664062 206.59375 234.996094 206.726562 C 234.886719 208.957031 234.730469 211.175781 234.523438 213.40625 C 234.570312 221.167969 234.851562 229.074219 237.066406 236.449219 C 239.402344 244.246094 252.722656 264.574219 260.839844 250.511719 Z M 287.035156 242.675781 C 289.210938 244.5625 304.578125 257.296875 304.238281 246.539062 C 303.761719 231.953125 303.226562 216.390625 300.757812 201.902344 C 292.191406 205.070312 281.816406 205.984375 273.066406 203.667969 C 274.320312 211.417969 274.648438 219.328125 273.941406 227.175781 C 274.003906 227.234375 274.078125 227.285156 274.136719 227.371094 C 278.285156 232.632812 281.925781 238.238281 287.035156 242.675781 Z M 307.207031 189.542969 C 310.941406 180.246094 307.582031 163.601562 305.988281 154.179688 C 304.84375 147.355469 303.433594 139.851562 299.335938 134.097656 C 296.148438 129.601562 287.214844 119.050781 280.511719 123.472656 C 272.09375 129.015625 269.539062 141.554688 266.875 150.609375 C 266.789062 150.902344 266.691406 151.148438 266.558594 151.378906 C 268.492188 159.03125 269.671875 166.855469 269.355469 174.789062 C 269.160156 179.675781 269.34375 187.789062 267.566406 193.96875 C 267.703125 194.054688 267.835938 194.125 267.96875 194.234375 C 268.515625 194.636719 269.078125 195.003906 269.660156 195.355469 C 270.171875 195.453125 270.671875 195.699219 271.046875 196.101562 C 277.214844 198.976562 284.988281 198.28125 291.363281 196.90625 C 295.585938 196.015625 302.898438 195.199219 306.050781 191.519531 C 306.234375 190.75 306.632812 190.03125 307.207031 189.542969 Z M 333.351562 234.582031 C 333.558594 224.019531 330.140625 212.589844 325.457031 203.070312 C 320.003906 202.484375 314.175781 199.804688 309.847656 197.039062 C 309.554688 197.292969 309.3125 197.5625 308.96875 197.769531 C 308.347656 198.183594 307.691406 198.597656 307.023438 198.976562 C 308.570312 208.25 308.59375 217.574219 309.128906 226.882812 C 313.253906 229.355469 317 232.425781 321.0625 235.011719 C 325.164062 237.640625 333.167969 243.273438 333.351562 234.582031 Z M 335.6875 180.832031 C 337.160156 171.4375 338.875 161.734375 338.351562 152.183594 C 338.035156 146.855469 337.683594 140.410156 334.738281 135.695312 C 330.589844 129.042969 325.101562 132.015625 321.464844 137.242188 C 318.058594 142.117188 315.273438 147.285156 312.511719 152.546875 L 312.511719 152.558594 C 313.859375 162.46875 315.371094 173.070312 315.027344 183.074219 C 314.933594 185.902344 314.601562 188.863281 313.617188 191.542969 C 317.183594 193.945312 322.523438 197.027344 326.890625 197.113281 C 327.5 196.867188 328.144531 196.796875 328.777344 196.953125 C 331.0625 196.441406 332.878906 194.820312 333.753906 191.410156 C 334.652344 187.925781 335.117188 184.378906 335.6875 180.832031 Z M 340.421875 228.089844 C 347.925781 232.023438 347.050781 219.242188 346.746094 214.050781 C 346.332031 207.261719 345.53125 200.011719 343.195312 193.542969 C 342.28125 193.335938 341.308594 193.089844 340.324219 192.796875 C 340.03125 193.652344 339.714844 194.503906 339.386719 195.332031 C 337.851562 199.085938 335.457031 201.265625 332.585938 202.351562 C 335.980469 209.554688 339.628906 219.191406 340.421875 228.089844 Z M 342.234375 186.328125 C 359.253906 191.273438 358.9375 171.4375 358.78125 159.398438 C 358.71875 154.839844 358.960938 150.136719 358.621094 145.578125 C 357.820312 134.171875 347.71875 148.699219 345.105469 153.328125 C 345.554688 163.867188 344.765625 175.933594 342.234375 186.328125 Z M 359.4375 210.40625 C 359.972656 203.789062 359.046875 197.40625 356.25 191.445312 C 354.570312 192.664062 352.625 193.492188 350.300781 193.859375 C 351.917969 199.964844 353.460938 210.566406 353.035156 219.667969 C 353.085938 219.71875 353.160156 219.730469 353.195312 219.777344 C 357.1875 223.445312 359.21875 213.417969 359.4375 210.40625 Z M 359.949219 133.769531 C 360.484375 129.542969 360.871094 125.289062 360.605469 121.121094 C 359.730469 107.519531 351.539062 102.269531 339.789062 97.613281 C 321.625 90.410156 302.535156 85.78125 283.140625 83.539062 C 244.21875 79.066406 205.152344 81.394531 166.125 82.296875 C 132.996094 83.089844 99.402344 79.152344 66.40625 82.675781 C 51.964844 84.210938 23.921875 87.242188 15.625 101.464844 C 9.394531 112.078125 9.636719 125.519531 12.824219 137.511719 C 13.785156 135.425781 15.050781 133.5625 16.683594 132.050781 C 22.632812 126.640625 28.789062 128.773438 34.105469 133.183594 C 33.886719 132.28125 33.679688 131.355469 33.535156 130.394531 C 32.828125 125.59375 33.726562 121.121094 34.921875 118.085938 C 36.257812 115.34375 37.476562 113.882812 37.9375 114.066406 C 38.460938 114.261719 38.082031 116.148438 37.425781 119.023438 C 37.097656 121.765625 36.648438 125.570312 37.269531 129.882812 C 37.742188 132.683594 38.351562 135.316406 38.949219 137.609375 C 40.003906 129.199219 42.65625 120.570312 49.570312 116.917969 C 61.492188 110.605469 73.78125 119.132812 81.238281 129.015625 C 81.238281 128.933594 81.238281 128.820312 81.238281 128.710938 C 80.558594 126.191406 79.667969 123.3125 78.453125 120.351562 C 76.589844 115.832031 74.277344 112.152344 71.992188 110.105469 C 69.921875 108.082031 67.734375 107.324219 67.953125 106.765625 C 68.023438 106.507812 68.585938 106.425781 69.546875 106.472656 C 70.019531 106.472656 70.605469 106.605469 71.324219 106.875 C 71.675781 107.007812 72.078125 107.167969 72.492188 107.324219 C 72.820312 107.519531 73.195312 107.753906 73.609375 107.972656 C 76.808594 109.835938 79.9375 113.96875 81.945312 118.914062 C 82.101562 119.316406 82.261719 119.695312 82.394531 120.109375 C 82.527344 119.632812 82.625 119.183594 82.78125 118.707031 C 83.539062 116.574219 84.546875 114.601562 85.691406 112.957031 C 86.882812 111.347656 88.160156 110.042969 89.414062 109.191406 C 91.90625 107.410156 93.832031 107.191406 94.011719 107.617188 C 94.269531 108.128906 92.894531 109.191406 91.214844 111.164062 C 90.363281 112.128906 89.488281 113.40625 88.636719 114.871094 C 87.796875 116.355469 87.042969 118.0625 86.371094 119.949219 C 85.628906 122.144531 85.117188 124.265625 84.679688 126.191406 C 88.320312 120.804688 93.40625 116.867188 100.570312 116.710938 C 112.273438 116.464844 125.621094 123.046875 131.921875 133.183594 C 131.875 133 131.851562 132.84375 131.800781 132.660156 C 131 128.957031 129.722656 123.875 127.167969 118.890625 C 125.863281 116.417969 124.332031 114.285156 122.75 112.515625 C 121.109375 110.785156 119.429688 109.457031 117.882812 108.496094 C 114.902344 106.644531 112.3125 105.925781 112.519531 105.363281 C 112.589844 105.097656 113.210938 104.988281 114.34375 105.011719 C 115.390625 104.988281 117.117188 105.351562 119.074219 106.109375 C 120.996094 106.851562 123.175781 108.15625 125.195312 110.042969 C 127.191406 111.933594 129.050781 114.355469 130.535156 117.136719 C 131.714844 119.476562 132.542969 121.816406 133.152344 124.03125 C 133.261719 122.414062 133.40625 120.753906 133.578125 118.988281 C 133.894531 116.355469 134.394531 113.808594 135.097656 111.542969 C 135.890625 109.277344 136.828125 107.324219 137.957031 105.863281 C 140.125 102.890625 142.242188 101.925781 142.507812 102.269531 C 142.933594 102.71875 141.582031 104.339844 140.246094 107.230469 C 139.5625 108.65625 138.980469 110.445312 138.46875 112.492188 C 137.996094 114.550781 137.640625 116.890625 137.351562 119.414062 C 137.191406 120.828125 137.035156 122.242188 136.875 123.582031 C 137.226562 122.996094 137.554688 122.414062 137.910156 121.851562 C 149.273438 105.097656 175.296875 101.304688 189.3125 117.367188 C 192.683594 121.230469 195.273438 125.519531 197.316406 130.078125 C 196.878906 127.019531 196.332031 123.65625 195.554688 120.144531 C 194.117188 113.796875 192.027344 108.335938 189.714844 104.875 C 187.609375 101.441406 185.296875 99.636719 185.699219 99.1875 C 185.929688 98.855469 188.667969 99.636719 191.867188 103.257812 C 195.03125 106.691406 197.746094 112.628906 199.253906 119.316406 C 199.8125 121.839844 200.191406 124.300781 200.445312 126.617188 C 200.726562 125.070312 201.066406 123.496094 201.492188 121.851562 C 203.109375 115.527344 206.480469 110.289062 209.449219 107.277344 C 211.03125 105.765625 212.320312 104.667969 213.328125 104.085938 C 214.328125 103.464844 214.949219 103.207031 215.128906 103.390625 C 215.554688 103.769531 213.753906 105.816406 211.515625 109.007812 C 209.230469 112.261719 206.648438 117 205.128906 122.851562 C 204.765625 124.265625 204.460938 125.652344 204.144531 127.019531 C 208.269531 120.109375 214.59375 114.6875 224.679688 111.675781 C 232.113281 109.484375 242.019531 108.019531 248.84375 112.945312 C 254.9375 117.34375 257.410156 123.449219 259.71875 130.054688 C 259.828125 128.421875 260.035156 126.726562 260.351562 124.960938 C 260.460938 124.375 260.597656 123.789062 260.730469 123.203125 C 259.621094 116.953125 257.699219 111.589844 256.058594 107.839844 C 254.113281 103.925781 252.761719 101.464844 253.261719 101.148438 C 253.660156 100.890625 255.707031 102.746094 258.308594 106.398438 C 259.988281 108.984375 261.667969 112.46875 262.96875 116.515625 C 264.113281 114.101562 265.414062 112.042969 266.875 110.605469 C 269.78125 107.546875 272.457031 106.925781 272.59375 107.324219 C 272.910156 107.863281 270.949219 109.25 268.953125 112.261719 C 267.214844 114.808594 265.644531 118.671875 264.585938 123.230469 C 265.121094 126.847656 265.304688 130.285156 265.28125 133.378906 C 268.6875 124.667969 273.820312 116.390625 282.300781 115.992188 C 292.082031 115.539062 299.46875 121.765625 304.53125 129.917969 C 304.347656 125.433594 304.03125 121.5 303.496094 118.597656 C 302.984375 115.539062 302.351562 113.40625 302.875 113.222656 C 303.324219 113.054688 304.75 114.539062 306.074219 117.878906 C 307.402344 121.097656 308.214844 125.898438 308.363281 131.003906 C 308.460938 133.464844 308.496094 135.78125 308.542969 137.902344 C 309.175781 139.398438 309.710938 140.910156 310.199219 142.433594 C 314.226562 134.890625 319.082031 127.226562 327.023438 124.265625 C 336.039062 120.890625 341.492188 132.527344 343.621094 140.835938 C 343.570312 140.324219 343.558594 139.851562 343.511719 139.339844 C 343.265625 137.292969 342.890625 135.0625 342.320312 132.734375 C 341.199219 128.003906 339.921875 123.679688 339.335938 120.402344 C 338.730469 117.097656 338.828125 115.027344 339.335938 114.894531 C 339.847656 114.785156 340.699219 116.683594 341.917969 119.660156 C 343.132812 122.667969 344.8125 126.859375 346.015625 131.855469 C 346.539062 134.050781 346.808594 136.230469 346.917969 138.277344 C 350.480469 134.441406 354.835938 131.941406 359.949219 133.769531 Z M 367.671875 240.761719 C 367.683594 235.011719 367.355469 229.183594 366.589844 223.484375 C 366.371094 221.800781 366.140625 217.890625 365.421875 214.609375 C 365.070312 216.28125 364.621094 217.914062 364.011719 219.535156 C 361.761719 225.578125 357.171875 228.917969 352.125 226.941406 C 350.617188 233.78125 347.125 238.042969 340.3125 235.570312 C 339.898438 238.335938 339.070312 240.921875 337.660156 243.164062 C 331.964844 252.3125 318.035156 241.664062 309.894531 235.621094 C 309.957031 236.21875 310.003906 236.824219 310.089844 237.460938 C 310.941406 243.6875 312.582031 252.558594 305.988281 256.421875 C 295.5625 262.550781 283.203125 249.546875 275.171875 239.542969 C 275.195312 239.835938 275.234375 240.152344 275.257812 240.445312 C 276.375 247.390625 276.449219 253.179688 275.414062 253.339844 C 274.394531 253.496094 272.675781 248.148438 271.582031 241.324219 C 269.722656 249.046875 266.339844 258.601562 258.625 261.003906 C 248.464844 264.148438 237.6875 255.433594 233.683594 246.515625 C 233.585938 248.4375 233.378906 250.351562 233.050781 252.242188 C 231.664062 259.675781 226.945312 271.714844 217.175781 270.167969 C 204.070312 268.09375 197.925781 255.996094 194.835938 242.089844 C 194.726562 242.542969 194.605469 242.980469 194.472656 243.429688 C 194.472656 243.855469 194.472656 244.285156 194.445312 244.734375 C 194.726562 251.496094 194.945312 257.457031 193.828125 257.542969 C 193.253906 257.617188 192.34375 255.703125 191.648438 252.582031 C 189.289062 258.957031 185.722656 265.476562 179.664062 267.425781 C 170.480469 270.433594 161.207031 262.34375 159.371094 253.546875 C 158.703125 250.375 158.070312 247.125 157.460938 243.820312 C 156.902344 247.074219 156.011719 249.949219 154.894531 252.058594 C 153.300781 255.203125 151.585938 256.421875 151.207031 256.152344 C 150.746094 255.835938 151.683594 253.972656 152.398438 251.070312 C 153.226562 248.132812 153.882812 243.90625 154.238281 239.164062 C 154.371094 237.277344 154.46875 235.484375 154.503906 233.78125 C 153.96875 235.703125 153.359375 237.617188 152.644531 239.542969 C 149.6875 247.5 145.378906 259.722656 136.851562 263.5 C 120.863281 270.542969 114.488281 251.363281 111.617188 231.769531 C 111.351562 231.867188 111.082031 231.925781 110.839844 232.023438 C 110.816406 232.023438 110.789062 232.023438 110.765625 232.050781 C 110.632812 232.453125 110.472656 232.878906 110.339844 233.304688 C 110.339844 234.792969 110.339844 236.339844 110.28125 237.996094 C 110.035156 242.445312 109.148438 246.539062 107.761719 249.390625 C 106.421875 251.996094 105.097656 253.253906 104.671875 253.046875 C 104.136719 252.851562 104.671875 251.023438 105.316406 248.328125 C 105.609375 246.890625 105.851562 245.074219 106.082031 243.003906 C 102.492188 250.402344 97.285156 259.273438 89.863281 261.003906 C 80.933594 263.085938 74.304688 255.3125 73.902344 246.804688 C 73.671875 242.515625 73.609375 237.226562 73.585938 231.648438 C 73.183594 232.828125 72.757812 234.085938 72.308594 235.375 C 70.957031 239.617188 69.996094 243.503906 69.414062 246.28125 C 68.875 249.183594 68.488281 251.097656 67.953125 251.097656 C 67.464844 251.070312 66.882812 249.253906 66.734375 246.195312 C 66.648438 243.210938 67.234375 239.277344 68.449219 235.144531 C 64.253906 239.933594 58.71875 243.554688 52.097656 241.882812 C 46.734375 240.554688 43.691406 236.949219 42.097656 232.132812 C 41.78125 233.328125 41.441406 234.535156 40.992188 235.777344 C 39.835938 238.800781 38.144531 241.566406 36.113281 243.6875 C 34.082031 245.820312 31.671875 247.050781 29.652344 247.792969 C 27.511719 248.425781 25.722656 248.644531 24.652344 248.511719 C 23.496094 248.425781 22.851562 248.269531 22.800781 248.011719 C 22.753906 247.746094 23.335938 247.414062 24.445312 247.050781 C 25.589844 246.722656 26.976562 246.113281 28.59375 245.320312 C 30.199219 244.40625 32.023438 243.1875 33.546875 241.324219 C 35.066406 239.457031 36.417969 237.117188 37.449219 234.425781 C 38.035156 232.804688 38.507812 231.207031 38.910156 229.660156 C 34.578125 238.800781 28.203125 244.492188 18.570312 238.875 C 15.1875 236.921875 12.960938 234.085938 11.546875 230.746094 C 8.566406 236.824219 5.429688 243.664062 8.8125 248.535156 C 13.738281 255.605469 21.792969 259.566406 29.042969 263.804688 C 45.078125 273.261719 61.113281 280.707031 79.363281 284.863281 C 117.203125 293.441406 158.605469 297.730469 197.414062 297.304688 C 240.496094 296.804688 284.84375 289.980469 324.945312 273.6875 C 334.996094 269.605469 343.886719 264.390625 353.035156 258.640625 C 359.703125 254.472656 367.601562 249.683594 367.671875 240.761719 Z M 374.378906 237.277344 C 374.621094 253.226562 364.035156 259.492188 351.734375 267.472656 C 330.566406 281.21875 304.957031 288.726562 280.523438 294.296875 C 255.996094 299.914062 230.898438 303.347656 205.714844 303.910156 C 179.070312 304.496094 152.777344 301.863281 126.339844 298.949219 C 104.027344 296.5 81.164062 293.820312 59.886719 286.3125 C 42.949219 280.367188 24.785156 271.582031 10.757812 260.148438 C 6.121094 256.371094 -0.09375 250.4375 0.683594 243.6875 C 1.609375 235.644531 5.941406 229.148438 8.335938 221.558594 C 8.578125 220.789062 9.019531 220.230469 9.527344 219.851562 C 9.261719 207.847656 13.542969 193.738281 14.664062 185.121094 C 14.761719 184.4375 15.003906 183.902344 15.332031 183.425781 C 12.109375 176.894531 10.246094 169.035156 9.84375 161.773438 C 9.664062 158.179688 9.554688 153.828125 9.929688 149.441406 C 9.746094 149.222656 9.601562 148.953125 9.457031 148.660156 C 3.859375 135.0625 1.023438 116.417969 7.4375 102.5625 C 14.1875 88.023438 32.023438 82.027344 46.683594 78.96875 C 84.679688 71 123.980469 76.542969 162.472656 75.644531 C 208.960938 74.570312 256.53125 70.632812 302.535156 79.785156 C 314.628906 82.1875 326.671875 85.222656 338.144531 89.753906 C 345.46875 92.652344 355.261719 95.421875 360.375 101.792969 C 370.15625 113.96875 367.066406 128.933594 365.445312 143.335938 C 365.898438 147.734375 365.375 152.546875 365.445312 155.460938 C 365.628906 165.195312 365.289062 177.796875 360.921875 185.902344 C 361.054688 186.082031 361.1875 186.289062 361.296875 186.484375 C 364.121094 191.761719 365.800781 197.648438 366.214844 203.632812 C 366.324219 203.691406 366.433594 203.742188 366.542969 203.800781 C 374.777344 209.871094 374.21875 228.246094 374.378906 237.277344 " fill-opacity="1" fill-rule="nonzero"/><path fill="#0145E8" d="M 363.160156 234.804688 C 363.660156 234.875 363.988281 235.777344 363.804688 237.277344 C 363.5625 238.738281 362.527344 240.652344 360.945312 242.066406 C 359.351562 243.457031 357.78125 244.285156 356.613281 244.734375 C 355.421875 245.210938 354.496094 245.34375 354.191406 244.917969 C 353.875 244.515625 354.167969 243.664062 354.972656 242.601562 C 355.824219 241.542969 357.101562 240.398438 358.402344 239.25 C 359.679688 238.105469 360.582031 237.082031 361.335938 236.242188 C 361.992188 235.375 362.625 234.71875 363.160156 234.804688 " fill-opacity="1" fill-rule="nonzero"/><path fill="#0145E8" d="M 341.296875 248.855469 C 341.757812 249.011719 341.832031 250.167969 341.199219 251.949219 C 340.503906 253.65625 338.9375 255.835938 336.464844 257.335938 C 333.960938 258.773438 331.332031 259.1875 329.386719 258.957031 C 327.632812 258.664062 326.707031 258.054688 326.707031 257.566406 C 326.707031 257.007812 327.839844 256.664062 329.386719 256.285156 C 330.722656 255.8125 332.609375 255.164062 334.519531 254.082031 C 336.382812 252.9375 337.839844 251.59375 338.9375 250.511719 C 339.96875 249.414062 340.773438 248.671875 341.296875 248.855469 " fill-opacity="1" fill-rule="nonzero"/><path fill="#0145E8" d="M 310.722656 258.957031 C 311.148438 259.199219 310.855469 260.613281 309.652344 262.527344 C 308.433594 264.414062 306.171875 266.644531 303.140625 268.328125 C 300.0625 269.921875 296.902344 270.519531 294.527344 270.386719 C 292.328125 270.191406 291.121094 269.558594 291.121094 269.070312 C 291.097656 268.507812 292.484375 268.191406 294.457031 267.71875 C 296.230469 267.179688 298.75 266.328125 301.367188 264.976562 C 303.921875 263.539062 306.097656 261.988281 307.667969 260.734375 C 309.1875 259.492188 310.273438 258.664062 310.722656 258.957031 " fill-opacity="1" fill-rule="nonzero"/><path fill="#0145E8" d="M 267.835938 266.253906 C 268.019531 266.753906 266.691406 267.742188 264.402344 268.910156 C 262.082031 270.007812 258.84375 271.628906 254.597656 272.214844 C 250.339844 272.800781 246.554688 271.554688 244.109375 270.570312 C 241.800781 269.398438 240.472656 268.4375 240.65625 267.949219 C 240.8125 267.449219 242.445312 267.523438 244.988281 268.035156 C 247.40625 268.277344 250.609375 268.9375 254.136719 268.4375 C 257.652344 267.984375 260.996094 266.839844 263.503906 266.390625 C 266.023438 265.851562 267.652344 265.769531 267.835938 266.253906 " fill-opacity="1" fill-rule="nonzero"/><path fill="#0145E8" d="M 225.496094 274.980469 C 225.824219 275.308594 225.09375 276.773438 222.941406 278.136719 C 221.882812 278.867188 220.472656 279.378906 218.851562 279.804688 C 217.234375 280.160156 215.421875 280.34375 213.535156 280.207031 C 209.777344 279.964844 206.515625 278.660156 204.519531 277.246094 C 202.417969 275.808594 201.675781 274.53125 201.941406 274.113281 C 202.636719 273.3125 207.308594 276.078125 213.792969 276.429688 C 216.992188 276.660156 219.8125 276.273438 221.832031 275.6875 C 223.828125 275.152344 225.132812 274.554688 225.496094 274.980469 " fill-opacity="1" fill-rule="nonzero"/><path fill="#0145E8" d="M 162.800781 270.351562 C 168.226562 273.847656 173.253906 276.429688 172.789062 277.492188 C 172.609375 277.964844 171.125 277.894531 168.921875 277.269531 C 166.707031 276.660156 163.726562 275.492188 160.722656 273.519531 C 157.691406 271.53125 155.332031 268.9375 154.347656 266.621094 C 153.277344 264.21875 153.578125 262.769531 154.003906 262.625 C 154.527344 262.390625 155.308594 263.78125 156.621094 265.207031 C 157.960938 266.730469 160.089844 268.570312 162.800781 270.351562 " fill-opacity="1" fill-rule="nonzero"/><path fill="#0145E8" d="M 140.855469 267.667969 C 141.074219 268.121094 140.148438 269.132812 138.519531 270.375 C 136.828125 271.605469 134.429688 273.226562 131.207031 274.347656 C 127.921875 275.441406 124.5625 275.140625 122.347656 274.394531 C 120.4375 273.492188 119.378906 272.640625 119.539062 272.164062 C 119.671875 271.652344 121.046875 271.605469 123.089844 271.8125 C 124.902344 271.691406 127.300781 271.652344 130.039062 270.726562 C 132.726562 269.800781 135.28125 268.644531 137.253906 268.011719 C 139.261719 267.363281 140.597656 267.207031 140.855469 267.667969 " fill-opacity="1" fill-rule="nonzero"/><path fill="#0145E8" d="M 85.3125 267.667969 C 85.449219 268.144531 84.597656 268.839844 83.003906 269.3125 C 81.410156 269.765625 79.058594 269.851562 76.542969 269.132812 C 74.085938 268.328125 72.101562 266.777344 71.089844 265.109375 C 70.335938 263.648438 70.359375 262.625 70.738281 262.332031 C 71.1875 261.988281 72.078125 262.660156 73.21875 263.5 C 74.253906 264.0625 75.789062 264.890625 77.660156 265.511719 C 79.59375 266.058594 81.433594 266.390625 82.84375 266.644531 C 84.21875 266.863281 85.203125 267.132812 85.3125 267.667969 " fill-opacity="1" fill-rule="nonzero"/></svg>