<svg xmlns="http://www.w3.org/2000/svg" xmlns:xlink="http://www.w3.org/1999/xlink" width="500" zoomAndPan="magnify" viewBox="0 0 375 374.999991" height="500" preserveAspectRatio="xMidYMid meet" version="1.0"><path fill="#32B2FF" d="M 145.75 139.949219 C 131.972656 139.949219 119.066406 144.730469 113.40625 155.523438 C 99.9375 181.214844 112.285156 210.832031 123.179688 236.960938 C 124.277344 239.589844 125.363281 242.199219 126.414062 244.765625 C 132.074219 258.644531 134.554688 279.472656 136.75 297.839844 C 138.132812 309.390625 139.929688 324.472656 142.296875 330.652344 C 142.683594 331.660156 144.125 331.589844 144.457031 330.558594 C 146.148438 325.273438 146.890625 312.980469 147.453125 303.53125 C 149.050781 276.785156 151.246094 240.164062 171.941406 223.226562 C 180.960938 215.84375 193.710938 215.84375 202.71875 223.226562 C 223.410156 240.164062 225.605469 276.785156 227.207031 303.53125 C 227.777344 312.949219 228.511719 325.179688 230.257812 330.527344 C 230.589844 331.53125 232.03125 331.554688 232.410156 330.558594 C 234.753906 324.324219 236.546875 309.332031 237.910156 297.839844 C 240.101562 279.472656 242.585938 258.644531 248.253906 244.765625 C 249.308594 242.1875 250.394531 239.578125 251.492188 236.949219 C 262.375 210.820312 274.734375 181.214844 261.265625 155.523438 C 252.632812 139.042969 227.09375 136.59375 207.40625 143.734375 C 194.464844 148.4375 180.207031 148.4375 167.265625 143.734375 C 160.472656 141.273438 152.984375 139.949219 145.75 139.949219 Z M 231.585938 341.785156 C 220.703125 341.785156 219.808594 326.773438 218.449219 304.054688 C 216.941406 278.9375 214.882812 244.535156 197.160156 230.035156 C 189.902344 224.097656 184.757812 224.085938 177.496094 230.035156 C 159.777344 244.535156 157.71875 278.9375 156.222656 304.054688 C 154.859375 326.785156 153.957031 341.785156 143.085938 341.785156 C 133.148438 341.785156 131.230469 325.640625 128.039062 298.882812 C 125.914062 281.066406 123.5 260.867188 118.285156 248.09375 C 117.246094 245.542969 116.171875 242.957031 115.085938 240.347656 C 103.4375 212.433594 90.242188 180.792969 105.621094 151.449219 C 116.890625 129.933594 147.328125 127.152344 170.261719 135.472656 C 181.269531 139.46875 193.402344 139.46875 204.410156 135.472656 C 227.332031 127.152344 257.765625 129.933594 269.039062 151.449219 C 284.417969 180.792969 271.234375 212.421875 259.597656 240.335938 C 258.5 242.957031 257.425781 245.542969 256.382812 248.09375 C 251.171875 260.867188 248.757812 281.066406 246.632812 298.894531 C 243.441406 325.652344 241.507812 341.785156 231.585938 341.785156 " fill-opacity="1" fill-rule="nonzero"/><path fill="#32B2FF" d="M 271.953125 253.496094 C 262.03125 271.140625 257.457031 293.628906 253.421875 313.484375 C 246.953125 345.253906 242.195312 364.605469 226.476562 361.941406 C 217.511719 360.429688 214.195312 328.671875 211.773438 305.476562 C 208.125 270.628906 204.980469 240.53125 187.339844 240.53125 C 169.699219 240.53125 166.554688 270.628906 162.910156 305.476562 C 160.484375 328.671875 157.160156 360.429688 148.195312 361.941406 C 132.496094 364.59375 127.71875 345.253906 121.257812 313.472656 C 117.210938 293.628906 112.640625 271.140625 102.726562 253.496094 C 78.890625 211.09375 55.359375 152.179688 78.570312 112.320312 C 88.859375 94.652344 108.476562 86.925781 128.644531 86.925781 C 140.71875 86.925781 152.996094 89.695312 163.59375 94.742188 C 163.859375 94.871094 166.832031 96.367188 167.515625 96.769531 C 172.433594 99.59375 175.417969 102.652344 178.320312 105.613281 C 182.769531 110.148438 186.964844 114.4375 195.960938 115.332031 C 196.109375 115.34375 196.246094 115.34375 196.394531 115.34375 C 198.625 115.34375 200.535156 113.648438 200.75 111.382812 C 200.992188 108.96875 199.230469 106.816406 196.820312 106.578125 C 191.421875 106.050781 188.941406 103.875 185.433594 100.316406 C 193.949219 100.625 202.535156 98.941406 210.308594 95.121094 C 238.640625 81.195312 279.5 83.8125 296.113281 112.320312 C 319.320312 152.179688 295.78125 211.09375 271.953125 253.496094 Z M 303.691406 107.902344 C 284.292969 74.578125 239.003906 71.226562 206.433594 87.222656 C 194.933594 92.890625 181.269531 93.09375 169.597656 87.875 C 169.140625 87.660156 165.46875 85.921875 164.085938 85.324219 C 131.925781 71.570312 89.578125 75.976562 70.988281 107.902344 C 45.6875 151.347656 70.121094 213.40625 95.066406 257.808594 C 104.304688 274.242188 108.742188 296.023438 112.652344 315.226562 C 118.480469 343.871094 124.015625 371.027344 145.015625 371.027344 C 146.492188 371.027344 148.035156 370.890625 149.660156 370.613281 C 165.207031 367.992188 168.179688 339.441406 171.644531 306.390625 C 174.160156 282.300781 177.613281 249.320312 187.339844 249.320312 C 197.070312 249.320312 200.523438 282.300781 203.039062 306.390625 C 206.492188 339.441406 209.476562 367.992188 225.023438 370.613281 C 249.902344 374.792969 255.789062 345.871094 262.019531 315.238281 C 265.929688 296.023438 270.367188 274.242188 279.605469 257.808594 C 304.5625 213.40625 328.992188 151.347656 303.691406 107.902344 " fill-opacity="1" fill-rule="nonzero"/><path fill="#32B2FF" d="M 299.898438 19.75 L 275.167969 46.804688 C 272.753906 49.449219 268.628906 49.628906 265.976562 47.203125 C 264.695312 46.039062 263.953125 44.433594 263.871094 42.695312 C 263.792969 40.957031 264.398438 39.296875 265.574219 38.015625 L 290.292969 10.960938 C 291.4375 9.714844 292.96875 9.003906 294.535156 8.878906 C 296.285156 8.71875 298.089844 9.277344 299.484375 10.550781 C 300.765625 11.726562 301.519531 13.328125 301.589844 15.070312 C 301.667969 16.808594 301.0625 18.46875 299.898438 19.75 Z M 305.417969 4.070312 C 302.402344 1.3125 298.492188 -0.105469 294.421875 0.078125 C 290.316406 0.285156 286.578125 2.011719 283.824219 5.023438 L 259.09375 32.074219 C 256.339844 35.097656 254.921875 39 255.101562 43.085938 C 255.207031 45.546875 255.960938 47.867188 257.148438 49.949219 C 223.558594 84.957031 194.828125 124.625 172.902344 168.019531 C 161.699219 190.4375 152.414062 213.921875 146.230469 238.332031 C 143.199219 250.566406 140.867188 262.9375 139.6875 275.570312 C 138.71875 288.148438 138.589844 300.667969 139.804688 313.222656 C 139.929688 314.46875 140.957031 315.476562 142.25 315.511719 C 143.632812 315.546875 144.800781 314.445312 144.835938 313.050781 L 144.835938 313.015625 C 145.164062 300.761719 145.816406 288.410156 147.050781 276.269531 C 148.480469 264.207031 150.6875 252.109375 153.761719 240.265625 C 159.960938 216.566406 169.207031 193.675781 180.34375 171.796875 C 191.546875 149.914062 204.683594 129.019531 219.191406 109.164062 C 232.832031 90.519531 247.613281 72.714844 263.5625 56.027344 C 265.863281 57.195312 268.398438 57.8125 271.050781 57.699219 C 271.269531 57.6875 271.488281 57.664062 271.703125 57.652344 C 275.535156 57.320312 279.03125 55.59375 281.648438 52.730469 L 306.367188 25.691406 C 309.121094 22.667969 310.539062 18.765625 310.371094 14.679688 C 310.175781 10.59375 308.425781 6.828125 305.417969 4.070312 " fill-opacity="1" fill-rule="nonzero"/></svg>