<svg xmlns="http://www.w3.org/2000/svg" xmlns:xlink="http://www.w3.org/1999/xlink" width="500" zoomAndPan="magnify" viewBox="0 0 375 374.999991" height="500" preserveAspectRatio="xMidYMid meet" version="1.0"><path fill="#32B2FF" d="M 245.027344 375 C 229.769531 375 227.480469 355.316406 225.066406 334.363281 C 223.921875 324.839844 222.777344 314.933594 220.488281 305.917969 C 205.613281 246.359375 193.027344 228.835938 187.558594 227.691406 C 182.21875 228.835938 169.632812 246.359375 154.632812 305.917969 C 152.34375 315.0625 151.199219 324.839844 150.054688 334.363281 C 147.636719 355.191406 145.222656 375 130.09375 375 C 108.859375 375 88.519531 323.570312 88.390625 323.0625 C 75.675781 290.550781 79.617188 237.089844 82.035156 205.214844 C 82.796875 195.308594 83.433594 186.800781 83.050781 183.878906 C 82.542969 179.4375 74.277344 168.386719 68.304688 160.261719 C 66.523438 157.722656 64.742188 155.433594 63.089844 153.148438 C 59.148438 149.210938 55.714844 144.894531 52.664062 140.195312 C 52.15625 139.433594 51.773438 138.800781 51.394531 138.039062 L 51.265625 137.785156 C 35.121094 113.402344 29.527344 83.433594 35.882812 55.496094 L 36.136719 54.605469 C 39.824219 40 49.359375 26.539062 63.089844 16.382812 C 77.710938 5.585938 95.257812 0 113.945312 0 L 120.558594 0 C 124.117188 0 127.675781 0.253906 131.238281 0.761719 C 137.46875 1.015625 143.316406 2.667969 150.054688 6.222656 C 155.140625 8.507812 159.972656 11.429688 164.421875 14.859375 C 170.777344 18.539062 177.898438 21.96875 187.6875 22.730469 C 197.476562 21.96875 204.597656 18.539062 210.953125 14.859375 C 215.402344 11.429688 220.234375 8.507812 225.320312 6.222656 C 232.058594 2.667969 237.90625 0.890625 244.136719 0.761719 C 247.699219 0.253906 251.257812 0 254.816406 0 L 261.429688 0 C 280.117188 0 297.664062 5.714844 312.285156 16.382812 C 326.015625 26.414062 335.550781 40 339.238281 54.476562 L 339.492188 55.496094 C 345.847656 83.433594 340.253906 113.527344 324.109375 137.785156 L 323.980469 138.039062 C 323.601562 138.800781 323.089844 139.433594 322.710938 140.195312 C 319.785156 144.894531 316.226562 149.210938 312.285156 153.148438 C 310.632812 155.433594 308.980469 157.722656 307.070312 160.261719 C 301.097656 168.386719 292.832031 179.4375 292.324219 183.878906 C 291.941406 186.800781 292.578125 195.308594 293.339844 205.214844 C 295.757812 237.089844 299.699219 290.550781 286.984375 323.0625 C 286.601562 323.570312 266.261719 375 245.027344 375 Z M 187.558594 218.675781 C 187.6875 218.675781 187.816406 218.675781 187.941406 218.675781 C 196.585938 219.3125 204.597656 229.976562 213.242188 252.074219 C 219.980469 269.21875 225.574219 289.664062 229.136719 303.632812 C 231.550781 313.28125 232.695312 323.441406 233.964844 333.21875 C 236 350.109375 237.78125 365.984375 245.15625 365.984375 C 255.070312 365.984375 271.21875 338.554688 278.59375 319.632812 C 290.542969 289.027344 286.730469 236.835938 284.441406 205.722656 C 283.550781 194.167969 283.042969 186.546875 283.421875 182.738281 C 284.1875 176.386719 290.417969 167.625 299.824219 154.800781 C 301.730469 152.261719 303.511719 149.847656 305.164062 147.5625 C 305.292969 147.308594 305.546875 147.179688 305.671875 146.925781 C 309.234375 143.5 312.285156 139.5625 314.953125 135.371094 C 315.207031 134.863281 315.464844 134.355469 315.84375 133.847656 C 315.972656 133.71875 315.972656 133.59375 316.097656 133.464844 C 316.097656 133.339844 316.226562 133.339844 316.226562 133.210938 C 316.226562 133.085938 316.351562 133.085938 316.351562 132.957031 L 316.480469 132.832031 C 316.605469 132.703125 316.605469 132.578125 316.734375 132.449219 C 316.734375 132.324219 316.863281 132.324219 316.863281 132.195312 C 316.988281 131.941406 316.988281 131.816406 317.117188 131.5625 C 317.117188 131.5625 317.242188 131.433594 317.242188 131.433594 C 317.371094 131.308594 317.496094 131.054688 317.625 130.925781 C 317.75 130.671875 317.878906 130.546875 318.132812 130.417969 C 331.863281 108.449219 336.441406 81.90625 330.847656 57.144531 L 330.59375 56.257812 C 324.746094 33.144531 298.554688 8.636719 261.554688 8.636719 L 254.945312 8.636719 C 251.765625 8.636719 248.460938 8.890625 245.410156 9.398438 C 245.28125 9.398438 245.027344 9.398438 244.902344 9.398438 C 239.941406 9.523438 235.238281 10.921875 229.644531 13.96875 C 229.515625 13.96875 229.515625 14.097656 229.390625 14.097656 C 224.8125 16.128906 220.488281 18.792969 216.421875 21.84375 C 216.292969 21.96875 216.167969 22.097656 215.914062 22.222656 C 208.917969 26.285156 200.148438 30.605469 188.195312 31.492188 C 187.941406 31.492188 187.816406 31.492188 187.558594 31.492188 C 175.738281 30.605469 166.964844 26.285156 159.84375 22.222656 C 159.714844 22.097656 159.460938 21.96875 159.335938 21.84375 C 155.394531 18.792969 150.945312 16.128906 146.367188 14.097656 C 146.238281 14.097656 146.113281 13.96875 146.113281 13.96875 C 140.519531 10.921875 135.816406 9.523438 130.855469 9.398438 C 130.730469 9.398438 130.472656 9.398438 130.347656 9.398438 C 127.167969 8.890625 123.992188 8.636719 120.8125 8.636719 L 113.820312 8.636719 C 76.695312 8.636719 50.503906 33.269531 44.65625 56.382812 L 44.527344 57.273438 C 38.808594 82.035156 43.511719 108.574219 57.242188 130.546875 C 57.371094 130.671875 57.625 130.925781 57.75 131.054688 C 57.878906 131.179688 58.003906 131.433594 58.132812 131.5625 L 58.257812 131.6875 C 58.386719 131.941406 58.511719 132.070312 58.511719 132.324219 C 58.511719 132.449219 58.640625 132.449219 58.640625 132.578125 C 58.769531 132.703125 58.769531 132.832031 58.894531 132.957031 L 59.023438 133.085938 C 59.023438 133.085938 59.148438 133.210938 59.148438 133.339844 C 59.148438 133.464844 59.277344 133.464844 59.277344 133.59375 C 59.402344 133.71875 59.402344 133.847656 59.53125 133.972656 C 59.910156 134.480469 60.167969 134.988281 60.421875 135.496094 C 63.089844 139.6875 66.140625 143.625 69.703125 147.054688 C 69.828125 147.179688 70.082031 147.433594 70.210938 147.6875 C 71.863281 149.972656 73.644531 152.386719 75.550781 154.925781 C 84.957031 167.753906 91.1875 176.515625 91.953125 182.863281 C 92.332031 186.675781 91.824219 194.292969 90.933594 205.851562 C 88.644531 236.960938 84.703125 289.15625 96.78125 319.757812 C 104.15625 338.679688 120.304688 366.109375 130.21875 366.109375 C 137.46875 366.109375 139.375 350.238281 141.410156 333.347656 C 142.554688 323.570312 143.824219 313.410156 146.238281 303.757812 C 149.800781 289.664062 155.394531 269.21875 162.132812 252.199219 C 170.777344 230.105469 178.789062 219.566406 187.433594 218.804688 C 187.304688 218.675781 187.433594 218.675781 187.558594 218.675781 Z M 187.558594 218.675781 " fill-opacity="1" fill-rule="nonzero"/><path fill="#32B2FF" d="M 318.640625 142.226562 C 317.878906 142.226562 317.117188 142.101562 316.480469 141.59375 C 314.320312 140.449219 313.554688 137.785156 314.699219 135.625 C 314.699219 135.625 314.699219 135.496094 314.828125 135.496094 C 314.828125 135.371094 314.828125 135.496094 314.953125 135.371094 C 315.082031 135.117188 315.207031 135.117188 315.335938 134.863281 C 316.863281 133.085938 319.40625 132.703125 321.3125 134.101562 C 323.21875 135.371094 323.726562 138.039062 322.582031 139.941406 C 321.691406 141.464844 320.167969 142.226562 318.640625 142.226562 Z M 318.640625 142.226562 " fill-opacity="1" fill-rule="nonzero"/><path fill="#32B2FF" d="M 56.480469 142.226562 C 54.953125 142.226562 53.554688 141.464844 52.664062 140.070312 C 51.519531 138.039062 52.03125 135.496094 53.9375 134.226562 C 55.84375 132.832031 58.386719 133.210938 59.910156 134.988281 C 60.039062 135.117188 60.167969 135.371094 60.292969 135.625 C 60.292969 135.75 60.292969 135.625 60.421875 135.75 C 61.566406 137.910156 60.800781 140.578125 58.769531 141.71875 C 58.003906 142.101562 57.242188 142.226562 56.480469 142.226562 Z M 56.480469 142.226562 " fill-opacity="1" fill-rule="nonzero"/><path fill="#32B2FF" d="M 255.835938 108.574219 C 253.417969 108.574219 251.382812 106.542969 251.382812 104.132812 C 251.382812 100.449219 246.933594 97.402344 241.847656 97.402344 C 236.761719 97.402344 232.3125 100.449219 232.3125 104.132812 C 232.3125 106.542969 230.28125 108.574219 227.863281 108.574219 C 225.449219 108.574219 223.414062 106.542969 223.414062 104.132812 C 223.414062 95.496094 231.679688 88.511719 241.847656 88.511719 C 252.019531 88.511719 260.285156 95.496094 260.285156 104.132812 C 260.285156 106.542969 258.378906 108.574219 255.835938 108.574219 Z M 255.835938 108.574219 " fill-opacity="1" fill-rule="nonzero"/><path fill="#32B2FF" d="M 147.382812 108.574219 C 144.96875 108.574219 142.933594 106.542969 142.933594 104.132812 C 142.933594 100.449219 138.484375 97.402344 133.398438 97.402344 C 128.3125 97.402344 123.863281 100.449219 123.863281 104.132812 C 123.863281 106.542969 121.828125 108.574219 119.414062 108.574219 C 116.996094 108.574219 114.964844 106.542969 114.964844 104.132812 C 114.964844 95.496094 123.226562 88.511719 133.398438 88.511719 C 143.570312 88.511719 151.835938 95.496094 151.835938 104.132812 C 151.835938 106.542969 149.800781 108.574219 147.382812 108.574219 Z M 147.382812 108.574219 " fill-opacity="1" fill-rule="nonzero"/><path fill="#32B2FF" d="M 187.558594 187.691406 C 160.480469 187.691406 138.484375 169.65625 138.484375 147.5625 C 138.484375 145.148438 140.519531 143.117188 142.933594 143.117188 C 145.351562 143.117188 147.382812 145.148438 147.382812 147.5625 C 147.382812 164.832031 165.4375 178.800781 187.558594 178.800781 C 209.683594 178.800781 227.738281 164.832031 227.738281 147.5625 C 227.738281 145.148438 229.769531 143.117188 232.1875 143.117188 C 234.601562 143.117188 236.636719 145.148438 236.636719 147.5625 C 236.636719 169.65625 214.640625 187.691406 187.558594 187.691406 Z M 187.558594 187.691406 " fill-opacity="1" fill-rule="nonzero"/></svg>